<?xml version="1.0" encoding="UTF-8"?>
<svg version="1.1" xmlns="http://www.w3.org/2000/svg" width="500" height="300">
<path d="M0 0 C6.72394934 1.27593015 13.21528751 3.17294293 19.75 5.1875 C21.25228149 5.64552002 21.25228149 5.64552002 22.78491211 6.11279297 C28.55847114 7.8878045 34.2851037 9.76422253 39.99316406 11.73876953 C51.49874286 15.70734147 63.07296228 18.59971465 75 21 C76.17820312 21.2475 77.35640625 21.495 78.5703125 21.75 C91.88411756 24.20164697 105.5590461 23.50481244 118.91796875 21.80078125 C119.94369995 21.67095856 120.96943115 21.54113586 122.02624512 21.40737915 C134.77144209 19.72351574 147.37753191 17.29173662 160 14.875 C163.60781435 14.1898924 167.21601604 13.50692146 170.82470703 12.82644653 C173.04241133 12.40770271 175.25957397 11.98607568 177.47607422 11.56100464 C209.0820611 5.55999241 241.5272806 9.38821471 268.578125 27.75 C270.79609133 29.42510744 272.89962223 31.18019217 275 33 C275.80824219 33.65355469 276.61648438 34.30710938 277.44921875 34.98046875 C291.83007747 47.070961 301.09471741 64.35384685 303.23193359 83.02636719 C304.63121208 101.08014954 298.88894145 118.54236986 287.75 132.75 C272.19055758 150.64861535 252.03751897 162.01146216 229 167 C227.99066406 167.22558594 226.98132813 167.45117188 225.94140625 167.68359375 C219.11235044 168.97125707 212.30555893 169.22798835 205.375 169.3125 C204.53573975 169.33022461 203.69647949 169.34794922 202.83178711 169.36621094 C194.3469498 169.35672626 186.13873861 167.86723244 177.79864502 166.46450806 C172.68405004 165.61560777 167.56040155 164.82429743 162.4375 164.02734375 C161.34418365 163.85713211 160.25086731 163.68692047 159.12442017 163.5115509 C156.88085676 163.16251696 154.63723437 162.8138619 152.39355469 162.46557617 C150.13091221 162.11348296 147.86854113 161.75964118 145.60644531 161.40405273 C124.73598331 158.12514094 104.39635611 155.58681564 83.25 155.625 C81.84531967 155.62382172 81.84531967 155.62382172 80.41226196 155.62261963 C59.13530407 155.64371414 38.06832133 157.53171078 17.01708984 160.56811523 C9.05072786 161.70333453 1.29792691 162.35551704 -6.75 162.3125 C-7.86544189 162.30758545 -8.98088379 162.3026709 -10.13012695 162.29760742 C-35.46592165 161.94337497 -60.6313058 155.02660642 -80 138 C-80.80566406 137.34773437 -81.61132812 136.69546875 -82.44140625 136.0234375 C-96.73619165 124.02018258 -105.38643748 107.38827916 -108 89 C-109.2441325 69.668095 -103.65496207 51.74168454 -91 37 C-90.5153125 36.37351563 -90.030625 35.74703125 -89.53125 35.1015625 C-73.47261343 15.1857044 -47.0615484 5.28558054 -22.37207031 2.24072266 C-17.23755729 1.71966154 -12.08489072 1.46488611 -6.92797852 1.28979492 C-3.15419746 1.52480054 -3.15419746 1.52480054 0 0 Z M-86.38818359 38.50146484 C-98.41929222 52.40540533 -104.42357106 69.67818159 -103.20703125 87.96972656 C-101.22644097 107.39259068 -90.00294288 123.72354284 -75.35644531 136.00292969 C-53.31823659 153.50497195 -25.46830343 158.5467493 2 157 C5.599242 156.56674405 9.12627015 155.87149254 12.67480469 155.13989258 C18.82561227 153.91016688 24.87767651 153.56839997 31.13830566 153.35676575 C36.19016229 153.17476834 41.18002568 152.81606391 46.20407104 152.26275635 C57.48319912 151.02781231 68.65823203 150.68881335 79.99853516 150.73925781 C82.92240254 150.75017703 85.84567991 150.73917576 88.76953125 150.7265625 C90.65625134 150.72788126 92.54297106 150.73043774 94.4296875 150.734375 C95.29012665 150.73032654 96.1505658 150.72627808 97.03707886 150.72210693 C102.0500318 150.76099834 106.17946276 151.47573701 111 153 C113.2967328 153.31819627 113.2967328 153.31819627 115.41796875 153.34375 C116.19221191 153.37202881 116.96645508 153.40030762 117.76416016 153.42944336 C118.5638623 153.45272705 119.36356445 153.47601074 120.1875 153.5 C135.58771411 154.13482939 135.58771411 154.13482939 142 156 C142.33 156.66 142.66 157.32 143 158 C144.04788696 158.01401855 144.04788696 158.01401855 145.11694336 158.02832031 C157.89597658 158.24240611 170.06358434 158.59927314 182.4140625 162.0625 C208.47874776 168.8767968 238.30234215 162.35932588 261.31640625 149.3046875 C270.37806587 143.85287963 278.59781059 136.39548321 285 128 C285.51949219 127.32839844 286.03898437 126.65679687 286.57421875 125.96484375 C296.05500529 112.80637175 299.46528056 96.95319527 298 81 C294.55103253 60.32684768 282.69787866 44.1882326 266 32 C241.32709941 15.43133683 211.57510091 10.29242267 182.5625 15.875 C178.21380386 16.74216151 173.98700609 17.66139207 169.7890625 19.1015625 C165.78758577 20.3905536 161.88180887 20.4461983 157.70703125 20.65625 C154.78227415 20.82342526 154.78227415 20.82342526 152 23 C149.5390625 23.27124023 149.5390625 23.27124023 146.625 23.30859375 C145.55636719 23.33373047 144.48773438 23.35886719 143.38671875 23.38476562 C141.16020686 23.4194345 138.93364033 23.45078206 136.70703125 23.47851562 C130.26029861 23.63641051 124.66170128 24.42492617 118.48925781 26.28637695 C102.86095576 30.76671502 84.62535971 28.09619551 69 25 C68.67 24.67 68.34 24.34 68 24 C66.50747901 23.76013056 65.00457929 23.58377854 63.5 23.4375 C62.58863281 23.34597656 61.67726562 23.25445312 60.73828125 23.16015625 C58.3030721 23.01772604 56.10744797 23.15500473 53.6875 23.375 C49.45968439 23.42620192 46.93777151 22.05145703 43.3125 19.9375 C2.74499039 -3.51633635 -54.43003711 3.9354077 -86.38818359 38.50146484 Z " fill="#010101" transform="translate(185,58)"/>
</svg>
