<?xml version="1.0" encoding="UTF-8"?>
<svg version="1.1" xmlns="http://www.w3.org/2000/svg" width="225" height="225">
<path d="M0 0 C2.04923181 -0.00269864 4.09846236 -0.00658415 6.14768982 -0.01159668 C10.42858145 -0.01747286 14.70913777 -0.00898862 18.98999023 0.00976562 C24.45958132 0.03256831 29.92838773 0.01941149 35.39795017 -0.00452423 C39.62491198 -0.01902074 43.85168961 -0.01435879 48.07865715 -0.00401306 C50.09475741 -0.00135718 52.11087474 -0.00457518 54.12695503 -0.01393127 C56.95039925 -0.02416216 59.77259532 -0.00850555 62.59594727 0.01367188 C63.41749802 0.00557495 64.23904877 -0.00252197 65.085495 -0.01086426 C73.38767042 0.10912331 80.36395848 3.22848512 86.4921875 8.81640625 C92.00651379 15.10417052 93.14731235 22.16651895 93.1730957 30.26611328 C93.1796669 31.15917679 93.1862381 32.0522403 93.19300842 32.97236633 C93.21274029 35.93209925 93.22440554 38.89178135 93.234375 41.8515625 C93.23845053 42.86360622 93.24252605 43.87564995 93.24672508 44.91836166 C93.26758816 50.27792914 93.28188727 55.63747101 93.29125977 60.99707031 C93.30230761 66.52170306 93.33668826 72.0459312 93.37643147 77.57042122 C93.40263526 81.82736945 93.4109551 86.08422197 93.41454124 90.34124374 C93.41939967 92.37690835 93.43099234 94.4125689 93.44957924 96.44815445 C93.47404417 99.30576404 93.47299188 102.16233629 93.46606445 105.02001953 C93.48527954 106.26884163 93.48527954 106.26884163 93.50488281 107.54289246 C93.43154823 115.89202721 90.33037549 122.86455044 84.7109375 129.02734375 C78.45065404 134.51756956 71.45924134 135.67995863 63.390625 135.62890625 C62.55142014 135.6274913 61.71221527 135.62607635 60.84757996 135.62461853 C58.16788159 135.61902215 55.48826685 135.60647035 52.80859375 135.59375 C50.99153767 135.58873453 49.17448027 135.58417171 47.35742188 135.58007812 C42.90361362 135.56905391 38.44986786 135.55179178 33.99609375 135.53125 C33.97082485 128.71363106 33.95326131 121.89602411 33.94116211 115.07836914 C33.93612042 112.75707549 33.92928724 110.43578503 33.9206543 108.11450195 C33.9085815 104.78596205 33.90286396 101.45746398 33.8984375 98.12890625 C33.89327621 97.08412613 33.88811493 96.03934601 33.88279724 94.96290588 C33.88272171 94.00198532 33.88264618 93.04106476 33.88256836 92.05102539 C33.88034775 91.20053116 33.87812714 90.35003693 33.87583923 89.47377014 C33.99609375 87.53125 33.99609375 87.53125 34.99609375 86.53125 C37.52887025 86.45804837 40.02713293 86.43897431 42.55859375 86.46875 C45.01296875 86.489375 47.46734375 86.51 49.99609375 86.53125 C50.65609375 80.59125 51.31609375 74.65125 51.99609375 68.53125 C46.44636254 68.57082481 46.44636254 68.57082481 40.89672852 68.62133789 C38.92963401 68.62848091 36.96255754 68.58156893 34.99609375 68.53125 C33.31720948 66.85236573 33.78443927 64.83198107 33.74609375 62.53125 C33.79464565 57.21134944 34.46211753 52.27593799 36.99609375 47.53125 C41.87774484 44.27681594 47.20478557 44.87528811 52.99609375 44.53125 C52.99609375 39.58125 52.99609375 34.63125 52.99609375 29.53125 C37.23811594 28.2304504 37.23811594 28.2304504 22.99609375 33.53125 C17.992474 39.17715635 15.98314246 44.27805314 15.6796875 51.734375 C15.6168457 53.20390625 15.6168457 53.20390625 15.55273438 54.703125 C15.51341797 55.71890625 15.47410156 56.7346875 15.43359375 57.78125 C15.36881836 59.328125 15.36881836 59.328125 15.30273438 60.90625 C15.19683788 63.44776588 15.09597894 65.98949077 14.99609375 68.53125 C9.38609375 68.53125 3.77609375 68.53125 -2.00390625 68.53125 C-2.00390625 74.47125 -2.00390625 80.41125 -2.00390625 86.53125 C3.2167265 86.49167843 3.2167265 86.49167843 8.43725586 86.44116211 C10.29043134 86.43401055 12.14358683 86.4809648 13.99609375 86.53125 C14.99609375 87.53125 14.99609375 87.53125 15.11634827 89.47377014 C15.11412766 90.32426437 15.11190704 91.17475861 15.10961914 92.05102539 C15.10954361 93.01194595 15.10946808 93.97286652 15.10939026 94.96290588 C15.10422897 96.007686 15.09906769 97.05246613 15.09375 98.12890625 C15.09233505 99.19290146 15.0909201 100.25689667 15.08946228 101.35313416 C15.08384439 104.76670083 15.07128886 108.180203 15.05859375 111.59375 C15.05358106 113.90169176 15.04901775 116.20963455 15.04492188 118.51757812 C15.03386915 124.18882426 15.01711362 129.86003253 14.99609375 135.53125 C10.03399368 135.63086748 5.07248835 135.7030678 0.10961914 135.75097656 C-1.57505446 135.77096886 -3.25965976 135.79817223 -4.9440918 135.83300781 C-16.95638134 136.0750332 -26.19989909 135.72623217 -35.5 127.24609375 C-41.01432629 120.95832948 -42.15512485 113.89598105 -42.1809082 105.79638672 C-42.1874794 104.90332321 -42.1940506 104.0102597 -42.20082092 103.09013367 C-42.22055279 100.13040075 -42.23221804 97.17071865 -42.2421875 94.2109375 C-42.24626303 93.19889378 -42.25033855 92.18685005 -42.25453758 91.14413834 C-42.27540066 85.78457086 -42.28969977 80.42502899 -42.29907227 75.06542969 C-42.31012011 69.54079694 -42.34450076 64.0165688 -42.38424397 58.49207878 C-42.41044776 54.23513055 -42.4187676 49.97827803 -42.42235374 45.72125626 C-42.42721217 43.68559165 -42.43880484 41.6499311 -42.45739174 39.61434555 C-42.48185667 36.75673596 -42.48080438 33.90016371 -42.47387695 31.04248047 C-42.48668701 30.2099324 -42.49949707 29.37738434 -42.51269531 28.51960754 C-42.43731234 19.93726439 -39.10866748 12.52264542 -33.08982849 6.39831543 C-24.07496732 -1.67069852 -11.27748427 -0.05239659 0 0 Z " fill="#007FFE" transform="translate(87.00390625,44.46875)"/>
<path d="M0 0 C1.02378477 3.25855102 0.95339495 5.79213317 0.57080078 9.17114258 C-0.18503642 17.20102168 -0.14460934 25.20587999 -0.1328125 33.26171875 C-0.13348798 34.9045259 -0.13446002 36.54733296 -0.13571167 38.19013977 C-0.13717593 41.61155155 -0.13507451 45.03293701 -0.13037109 48.4543457 C-0.12466095 52.81832048 -0.12796904 57.18223391 -0.13394356 61.54620647 C-0.13757209 64.93071447 -0.13640031 68.31520812 -0.13381577 71.69971657 C-0.13315354 73.30831726 -0.13395002 74.9169193 -0.13629532 76.52551842 C-0.66806992 91.05384633 -0.66806992 91.05384633 2.875 104.875 C3.36613281 105.95394531 3.36613281 105.95394531 3.8671875 107.0546875 C5.0543489 109.09333018 6.173545 110.50816271 8 112 C10.62570704 112.25069913 10.62570704 112.25069913 13 112 C13.165 112.61875 13.33 113.2375 13.5 113.875 C15.40275525 116.57056993 17.131524 116.87437458 20.26757812 117.58935547 C26.45673033 118.51949789 32.75374123 118.48759794 39 118.625 C46.425 118.810625 46.425 118.810625 54 119 C53.67 104.15 53.34 89.3 53 74 C48.05 73.67 43.1 73.34 38 73 C37 72 37 72 36.88647461 69.95874023 C36.89171143 69.08419189 36.89694824 68.20964355 36.90234375 67.30859375 C36.90556641 66.36435547 36.90878906 65.42011719 36.91210938 64.44726562 C36.92467773 62.95743164 36.92467773 62.95743164 36.9375 61.4375 C36.94201172 60.44041016 36.94652344 59.44332031 36.95117188 58.41601562 C36.96299977 55.94398513 36.98093585 53.47198528 37 51 C42.61 51 48.22 51 54 51 C53.97679687 49.33710937 53.95359375 47.67421875 53.9296875 45.9609375 C53.91092418 43.7656295 53.89272459 41.57031663 53.875 39.375 C53.85824219 38.28058594 53.84148437 37.18617187 53.82421875 36.05859375 C53.7604773 25.54125437 53.7604773 25.54125437 56 21 C58.125 20.125 58.125 20.125 60 20 C59.71125 20.70125 59.4225 21.4025 59.125 22.125 C58.75375 23.07375 58.3825 24.0225 58 25 C57.6596875 25.8146875 57.319375 26.629375 56.96875 27.46875 C55.61005223 32.42142251 55.533386 37.26045212 55.375 42.375 C55.33632812 43.39722656 55.29765625 44.41945312 55.2578125 45.47265625 C55.16402434 47.98148965 55.08094454 50.49071938 55 53 C49.39 53 43.78 53 38 53 C38 58.94 38 64.88 38 71 C43.22063275 70.96042843 43.22063275 70.96042843 48.44116211 70.90991211 C50.29433759 70.90276055 52.14749308 70.9497148 54 71 C55 72 55 72 55.12025452 73.94252014 C55.11803391 74.79301437 55.11581329 75.64350861 55.11352539 76.51977539 C55.11344986 77.48069595 55.11337433 78.44161652 55.11329651 79.43165588 C55.10813522 80.476436 55.10297394 81.52121613 55.09765625 82.59765625 C55.0962413 83.66165146 55.09482635 84.72564667 55.09336853 85.82188416 C55.08775064 89.23545083 55.07519511 92.648953 55.0625 96.0625 C55.05748731 98.37044176 55.052924 100.67838455 55.04882812 102.98632812 C55.0377754 108.65757426 55.02101987 114.32878253 55 120 C50.03789993 120.09961748 45.0763946 120.1718178 40.11352539 120.21972656 C38.42885179 120.23971886 36.74424649 120.26692223 35.05981445 120.30175781 C23.04752491 120.5437832 13.80400716 120.19498217 4.50390625 111.71484375 C-1.02930939 105.40554072 -2.14959889 98.34302443 -2.14526367 90.2175293 C-2.14862228 89.31964691 -2.1519809 88.42176453 -2.15544128 87.49667358 C-2.16495542 84.52250797 -2.16689474 81.54839864 -2.16796875 78.57421875 C-2.17118138 76.507797 -2.17454546 74.44137549 -2.17805481 72.37495422 C-2.1840475 68.03975904 -2.1858946 63.7045838 -2.18530273 59.36938477 C-2.18520119 53.8176819 -2.19884498 48.26610714 -2.21607494 42.71443462 C-2.22720154 38.44474197 -2.22922173 34.1750802 -2.22869301 29.90537453 C-2.22987245 27.85888033 -2.23429222 25.81238531 -2.24202538 23.76590538 C-2.25183697 20.9007309 -2.24894236 18.03583336 -2.24291992 15.1706543 C-2.24853943 14.3273204 -2.25415894 13.48398651 -2.25994873 12.61509705 C-2.23540113 8.01264356 -1.75834376 4.33299426 0 0 Z " fill="#177AE3" transform="translate(47,60)"/>
<path d="M0 0 C0.33 0 0.66 0 1 0 C1 4.95 1 9.9 1 15 C6.61 15 12.22 15 18 15 C19.62651522 18.25303044 19.11453156 21.39225602 19 25 C18.67 25.33 18.34 25.66 18 26 C17.7180604 28.28684338 17.55222995 30.57363273 17.37890625 32.87109375 C17 35 17 35 15 37 C10.38 37 5.76 37 1 37 C1 52.18 1 67.36 1 83 C9.3840625 82.7834375 9.3840625 82.7834375 17.9375 82.5625 C20.58640259 82.49784546 20.58640259 82.49784546 23.28881836 82.43188477 C24.6808374 82.39377644 26.07284667 82.35530856 27.46484375 82.31640625 C28.19384888 82.29993042 28.922854 82.28345459 29.6739502 82.26647949 C33.12951786 82.46708492 33.12951786 82.46708492 36 81 C37.66617115 80.95936168 39.33388095 80.957279 41 81 C41 80.34 41 79.68 41 79 C42.65 79 44.3 79 46 79 C43.42299975 82.14966698 40.89172247 82.96946438 37 84 C34.02968542 84.2555547 31.08099581 84.23374543 28.1015625 84.1953125 C26.84912247 84.19106766 26.84912247 84.19106766 25.57138062 84.18673706 C22.92243709 84.17560301 20.27384016 84.15051127 17.625 84.125 C15.82161949 84.11496143 14.01823364 84.10583712 12.21484375 84.09765625 C7.80976367 84.0756859 3.40494047 84.04120321 -1 84 C-1.0252689 77.18238106 -1.04283244 70.36477411 -1.05493164 63.54711914 C-1.05997333 61.22582549 -1.06680651 58.90453503 -1.07543945 56.58325195 C-1.08751225 53.25471205 -1.09322979 49.92621398 -1.09765625 46.59765625 C-1.10281754 45.55287613 -1.10797882 44.50809601 -1.11329651 43.43165588 C-1.11337204 42.47073532 -1.11344757 41.50981476 -1.11352539 40.51977539 C-1.115746 39.66928116 -1.11796661 38.81878693 -1.12025452 37.94252014 C-1 36 -1 36 0 35 C2.5327765 34.92679837 5.03103918 34.90772431 7.5625 34.9375 C10.016875 34.958125 12.47125 34.97875 15 35 C15.66 29.06 16.32 23.12 17 17 C11.45026879 17.03957481 11.45026879 17.03957481 5.90063477 17.09008789 C3.93354026 17.09723091 1.96646379 17.05031893 0 17 C-1 16 -1 16 -1.1328125 13.671875 C-1.13023438 12.70765625 -1.12765625 11.7434375 -1.125 10.75 C-1.12757812 9.79609375 -1.13015625 8.8421875 -1.1328125 7.859375 C-1.00628725 5.13536072 -0.61005381 2.65324991 0 0 Z " fill="#1E78DB" transform="translate(122,96)"/>
<path d="M0 0 C1.34791878 -0.005476 1.34791878 -0.005476 2.72306824 -0.01106262 C5.67023071 -0.01911708 8.61683458 -0.00560268 11.56396484 0.0090332 C13.62324015 0.00955233 15.68251595 0.00903259 17.74179077 0.00752258 C22.04717453 0.00761207 26.35237013 0.01799565 30.65771484 0.03613281 C36.17006609 0.05884757 41.68214338 0.05935633 47.19452858 0.05261517 C51.44278387 0.04927092 55.69097695 0.05591343 59.93922043 0.0657444 C61.9717514 0.06958665 64.00428929 0.07074866 66.03682327 0.06915855 C68.87754725 0.06878686 71.71792231 0.08143644 74.55859375 0.09765625 C75.39407242 0.09517883 76.22955109 0.09270142 77.09034729 0.09014893 C81.66768441 0.1317678 85.33973225 0.63031555 89.64990234 2.37231445 C89.64990234 2.70231445 89.64990234 3.03231445 89.64990234 3.37231445 C88.39566971 3.37009384 87.14143707 3.36787323 85.84919739 3.36558533 C74.03369121 3.34532041 62.21818856 3.33032612 50.40266895 3.32050228 C44.3280903 3.31528199 38.25352566 3.30819978 32.17895508 3.296875 C26.31752573 3.28601587 20.45610988 3.28003117 14.59467125 3.27743721 C12.35755895 3.27558843 10.1204474 3.27197829 7.88334084 3.2665844 C4.75188216 3.25933388 1.62047938 3.25832522 -1.51098633 3.25878906 C-2.43743454 3.25519379 -3.36388275 3.25159851 -4.31840515 3.24789429 C-8.45952244 3.25453912 -12.31281994 3.31664635 -16.35009766 4.37231445 C-17.01009766 7.01231445 -17.67009766 9.65231445 -18.35009766 12.37231445 C-19.01009766 12.37231445 -19.67009766 12.37231445 -20.35009766 12.37231445 C-20.35009766 13.03231445 -20.35009766 13.69231445 -20.35009766 14.37231445 C-21.34009766 14.70231445 -22.33009766 15.03231445 -23.35009766 15.37231445 C-23.35009766 14.71231445 -23.35009766 14.05231445 -23.35009766 13.37231445 C-24.01009766 13.37231445 -24.67009766 13.37231445 -25.35009766 13.37231445 C-25.35009766 14.03231445 -25.35009766 14.69231445 -25.35009766 15.37231445 C-26.01009766 15.37231445 -26.67009766 15.37231445 -27.35009766 15.37231445 C-26.01140221 9.85019573 -21.91326506 6.4289123 -17.35009766 3.37231445 C-11.34028432 0.71249047 -6.52975368 -0.06003117 0 0 Z " fill="#1C78D9" transform="translate(75.35009765625,44.627685546875)"/>
<path d="M0 0 C0 3 0 3 -1.45703125 6.46875 C-3.50613613 11.73064895 -3.55909103 16.9087066 -3.6875 22.5 C-3.72166016 23.51320313 -3.75582031 24.52640625 -3.79101562 25.5703125 C-3.8727767 28.04650507 -3.9380808 30.52323183 -4 33 C-9.61 33 -15.22 33 -21 33 C-21 38.94 -21 44.88 -21 51 C-15.77936725 50.96042843 -15.77936725 50.96042843 -10.55883789 50.90991211 C-8.70566241 50.90276055 -6.85250692 50.9497148 -5 51 C-4 52 -4 52 -3.87974548 53.94252014 C-3.8830764 55.21826149 -3.8830764 55.21826149 -3.88647461 56.51977539 C-3.88655014 57.48069595 -3.88662567 58.44161652 -3.88670349 59.43165588 C-3.89186478 60.476436 -3.89702606 61.52121613 -3.90234375 62.59765625 C-3.9037587 63.66165146 -3.90517365 64.72564667 -3.90663147 65.82188416 C-3.91224936 69.23545083 -3.92480489 72.648953 -3.9375 76.0625 C-3.94251269 78.37044176 -3.947076 80.67838455 -3.95117188 82.98632812 C-3.9622246 88.65757426 -3.97898013 94.32878253 -4 100 C-4.33 100 -4.66 100 -5 100 C-5.33 84.82 -5.66 69.64 -6 54 C-10.95 53.67 -15.9 53.34 -21 53 C-22 52 -22 52 -22.11352539 49.95874023 C-22.10828857 49.08419189 -22.10305176 48.20964355 -22.09765625 47.30859375 C-22.09443359 46.36435547 -22.09121094 45.42011719 -22.08789062 44.44726562 C-22.07951172 43.45404297 -22.07113281 42.46082031 -22.0625 41.4375 C-22.05798828 40.44041016 -22.05347656 39.44332031 -22.04882812 38.41601562 C-22.03700023 35.94398513 -22.01906415 33.47198528 -22 31 C-16.39 31 -10.78 31 -5 31 C-5.03480469 28.50566406 -5.03480469 28.50566406 -5.0703125 25.9609375 C-5.08907582 23.7656295 -5.10727541 21.57031663 -5.125 19.375 C-5.14175781 18.28058594 -5.15851563 17.18617187 -5.17578125 16.05859375 C-5.24069492 5.34783848 -5.24069492 5.34783848 -3 1 C-2.01 0.67 -1.02 0.34 0 0 Z " fill="#2E7DD5" transform="translate(106,80)"/>
<path d="M0 0 C0.33 0 0.66 0 1 0 C1 15.51 1 31.02 1 47 C9.6315625 46.7834375 9.6315625 46.7834375 18.4375 46.5625 C21.16471313 46.49784546 21.16471313 46.49784546 23.94702148 46.43188477 C25.38005586 46.39377677 26.81308073 46.35530892 28.24609375 46.31640625 C28.99669067 46.29993042 29.7472876 46.28345459 30.52062988 46.26647949 C34.05692641 46.4816412 34.05692641 46.4816412 37 45 C38.66617115 44.95936168 40.33388095 44.957279 42 45 C42 44.34 42 43.68 42 43 C43.65 43 45.3 43 47 43 C44.42299975 46.14966698 41.89172247 46.96946438 38 48 C35.0298232 48.25554285 32.08086693 48.23391004 29.1015625 48.1953125 C28.36059326 48.19329834 27.61962402 48.19128418 26.85620117 48.18920898 C24.11240365 48.17881688 21.36869501 48.15089472 18.625 48.125 C9.405625 48.063125 9.405625 48.063125 0 48 C0 32.16 0 16.32 0 0 Z " fill="#2875CB" transform="translate(121,132)"/>
<path d="M0 0 C-3 2 -3 2 -7 2 C-7.66 4.64 -8.32 7.28 -9 10 C-9.66 10 -10.32 10 -11 10 C-11 10.66 -11 11.32 -11 12 C-11.99 12.33 -12.98 12.66 -14 13 C-14 12.34 -14 11.68 -14 11 C-14.66 11 -15.32 11 -16 11 C-16 11.66 -16 12.32 -16 13 C-16.66 13 -17.32 13 -18 13 C-16.63654575 7.37575123 -12.44348071 4.32406538 -8 1 C-3.76923077 -1.25641026 -3.76923077 -1.25641026 0 0 Z " fill="#1384F1" transform="translate(66,47)"/>
<path d="M0 0 C0 3 0 3 -1.45703125 6.5 C-3.44576506 11.60687201 -3.55644879 16.5707357 -3.6875 22 C-3.72166016 22.96550781 -3.75582031 23.93101563 -3.79101562 24.92578125 C-3.87271763 27.2834677 -3.93805221 29.64171183 -4 32 C-9.94 32 -15.88 32 -22 32 C-22 31.67 -22 31.34 -22 31 C-16.39 31 -10.78 31 -5 31 C-5.03480469 28.50566406 -5.03480469 28.50566406 -5.0703125 25.9609375 C-5.08907582 23.7656295 -5.10727541 21.57031663 -5.125 19.375 C-5.14175781 18.28058594 -5.15851563 17.18617187 -5.17578125 16.05859375 C-5.24069492 5.34783848 -5.24069492 5.34783848 -3 1 C-2.01 0.67 -1.02 0.34 0 0 Z " fill="#1D7ADD" transform="translate(106,80)"/>
<path d="M0 0 C0.77923828 0.00902344 1.55847656 0.01804687 2.36132812 0.02734375 C4.26185447 0.05066309 6.16222008 0.08652414 8.0625 0.125 C8.0625 0.785 8.0625 1.445 8.0625 2.125 C7.02351563 2.15078125 5.98453125 2.1765625 4.9140625 2.203125 C-4.76916163 2.55522111 -12.68186945 3.6212463 -20.9375 9.125 C-20.9375 8.135 -20.9375 7.145 -20.9375 6.125 C-20.298125 5.83625 -19.65875 5.5475 -19 5.25 C-16.78543921 4.29676549 -16.78543921 4.29676549 -15.9375 2.125 C-10.54138124 0.11812098 -5.71235962 -0.12726765 0 0 Z " fill="#207ADA" transform="translate(127.9375,70.875)"/>
<path d="M0 0 C0.33 0 0.66 0 1 0 C1.02684679 2.64590014 1.04676357 5.29153096 1.0625 7.9375 C1.07087891 8.69224609 1.07925781 9.44699219 1.08789062 10.22460938 C1.09652441 12.14994313 1.05224333 14.07535581 1 16 C0 17 0 17 -2.06640625 17.09765625 C-2.89011719 17.08605469 -3.71382812 17.07445313 -4.5625 17.0625 C-5.38878906 17.05347656 -6.21507812 17.04445313 -7.06640625 17.03515625 C-8.02353516 17.01775391 -8.02353516 17.01775391 -9 17 C-9.33 17.99 -9.66 18.98 -10 20 C-11.65 20 -13.3 20 -15 20 C-15 20.66 -15 21.32 -15 22 C-15.66 22 -16.32 22 -17 22 C-16.6875 20.125 -16.6875 20.125 -16 18 C-11.11834891 14.74556594 -5.79130818 15.34403811 0 15 C0 10.05 0 5.1 0 0 Z " fill="#2480E4" transform="translate(140,74)"/>
<path d="M0 0 C0.33 0.66 0.66 1.32 1 2 C-0.82153171 7.35814198 -3.82141635 11.28570342 -8 15 C-8.66 14.67 -9.32 14.34 -10 14 C-9.67 13.01 -9.34 12.02 -9 11 C-8.01 10.67 -7.02 10.34 -6 10 C-6 8.68 -6 7.36 -6 6 C-5.34 6 -4.68 6 -4 6 C-3.67 5.01 -3.34 4.02 -3 3 C-2.34 3 -1.68 3 -1 3 C-0.67 2.01 -0.34 1.02 0 0 Z " fill="#1F7BDC" transform="translate(178,160)"/>
<path d="M0 0 C1.65 0 3.3 0 5 0 C2.44403516 3.12395702 -0.12667029 4.03166757 -4 5 C-6.33212027 5.07522969 -8.6685311 5.09325876 -11 5 C-11 4.67 -11 4.34 -11 4 C-7.17679443 2.57741188 -4.08718695 1.75957724 0 2 C0 1.34 0 0.68 0 0 Z " fill="#2581E0" transform="translate(163,175)"/>
<path d="M0 0 C-3 2 -3 2 -7 2 C-7.66 3.32 -8.32 4.64 -9 6 C-10.32 5.67 -11.64 5.34 -13 5 C-5.16 -1.72 -5.16 -1.72 0 0 Z " fill="#2D85E1" transform="translate(66,47)"/>
</svg>
