<?xml version="1.0" encoding="UTF-8"?>
<svg version="1.1" xmlns="http://www.w3.org/2000/svg" width="225" height="225">
<path d="M0 0 C9.04858845 9.36180882 14.86559795 22.32585678 15.1953125 35.32421875 C15.21476929 36.00978348 15.23422607 36.69534821 15.25427246 37.40168762 C15.31458644 39.63485647 15.36108325 41.86803973 15.40625 44.1015625 C15.44357391 45.66748702 15.48117529 47.23340494 15.51904297 48.79931641 C15.85704286 63.54562302 15.98528935 78.28962249 15.78125 93.0390625 C15.76868164 94.06821777 15.75611328 95.09737305 15.74316406 96.15771484 C15.45961107 113.67145199 12.90596621 128.43505221 0.53125 141.7890625 C-13.85994916 155.0365902 -30.43371598 156.67145859 -49.078125 156.53515625 C-50.84255025 156.53531178 -52.60697582 156.53680972 -54.37139893 156.53956604 C-58.03893449 156.54093814 -61.7060733 156.52858907 -65.37353516 156.50561523 C-70.0421923 156.47714968 -74.71019629 156.48000691 -79.37890244 156.49270535 C-83.0114894 156.49970155 -86.64392879 156.49182991 -90.27649689 156.47944832 C-91.99704673 156.47497796 -93.71761265 156.47455771 -95.43816376 156.47851372 C-112.31800039 156.49918014 -127.45797105 154.16542841 -140.30859375 142.1328125 C-155.93643863 125.00290481 -155.47252542 104.36931238 -155.23828125 82.62109375 C-155.23132421 81.8797135 -155.22436718 81.13833324 -155.21719933 80.37448692 C-155.18025237 76.46253207 -155.13650678 72.55072719 -155.08666992 68.63891602 C-155.03710681 64.64541456 -155.01103978 60.65211586 -154.99023914 56.65837574 C-154.9697151 53.53944612 -154.93179538 50.42089234 -154.8893795 47.30219078 C-154.87226531 45.8309294 -154.86139718 44.35957922 -154.85743141 42.88822365 C-154.8001214 26.46996537 -150.8292287 13.02658205 -139.53125 0.7890625 C-128.0174599 -10.03567839 -114.88798897 -13.38441122 -99.4921875 -13.47265625 C-98.30509186 -13.49060745 -97.11799622 -13.50855865 -95.89492798 -13.52705383 C-92.12790471 -13.58076071 -88.36100036 -13.61482293 -84.59375 -13.6484375 C-82.08982653 -13.68166968 -79.58591949 -13.71616462 -77.08203125 -13.75195312 C-16.48976888 -14.57370419 -16.48976888 -14.57370419 0 0 Z " fill="#F7275C" transform="translate(182.21875,40.9609375)"/>
<path d="M0 0 C9.04858845 9.36180882 14.86559795 22.32585678 15.1953125 35.32421875 C15.21476929 36.00978348 15.23422607 36.69534821 15.25427246 37.40168762 C15.31458644 39.63485647 15.36108325 41.86803973 15.40625 44.1015625 C15.44357391 45.66748702 15.48117529 47.23340494 15.51904297 48.79931641 C15.85704286 63.54562302 15.98528935 78.28962249 15.78125 93.0390625 C15.76868164 94.06821777 15.75611328 95.09737305 15.74316406 96.15771484 C15.45961107 113.67145199 12.90596621 128.43505221 0.53125 141.7890625 C-13.85994916 155.0365902 -30.43371598 156.67145859 -49.078125 156.53515625 C-50.84255025 156.53531178 -52.60697582 156.53680972 -54.37139893 156.53956604 C-58.03893449 156.54093814 -61.7060733 156.52858907 -65.37353516 156.50561523 C-70.0421923 156.47714968 -74.71019629 156.48000691 -79.37890244 156.49270535 C-83.0114894 156.49970155 -86.64392879 156.49182991 -90.27649689 156.47944832 C-91.99704673 156.47497796 -93.71761265 156.47455771 -95.43816376 156.47851372 C-112.31800039 156.49918014 -127.45797105 154.16542841 -140.30859375 142.1328125 C-155.93643863 125.00290481 -155.47252542 104.36931238 -155.23828125 82.62109375 C-155.23132421 81.8797135 -155.22436718 81.13833324 -155.21719933 80.37448692 C-155.18025237 76.46253207 -155.13650678 72.55072719 -155.08666992 68.63891602 C-155.03710681 64.64541456 -155.01103978 60.65211586 -154.99023914 56.65837574 C-154.9697151 53.53944612 -154.93179538 50.42089234 -154.8893795 47.30219078 C-154.87226531 45.8309294 -154.86139718 44.35957922 -154.85743141 42.88822365 C-154.8001214 26.46996537 -150.8292287 13.02658205 -139.53125 0.7890625 C-128.0174599 -10.03567839 -114.88798897 -13.38441122 -99.4921875 -13.47265625 C-98.30509186 -13.49060745 -97.11799622 -13.50855865 -95.89492798 -13.52705383 C-92.12790471 -13.58076071 -88.36100036 -13.61482293 -84.59375 -13.6484375 C-82.08982653 -13.68166968 -79.58591949 -13.71616462 -77.08203125 -13.75195312 C-16.48976888 -14.57370419 -16.48976888 -14.57370419 0 0 Z M-123.96875 21.7265625 C-131.5970049 31.31334631 -132.97301865 40.36897204 -132.84765625 52.3828125 C-132.84848744 53.8428973 -132.8509562 55.30298199 -132.85496521 56.76306152 C-132.85780492 59.80571046 -132.84330413 62.84761585 -132.81567383 65.89013672 C-132.78159307 69.75998085 -132.7876262 73.62849773 -132.8063364 77.49840546 C-132.81698326 80.50822716 -132.80789967 83.51774825 -132.79295158 86.52754211 C-132.7878254 87.95305993 -132.78818269 89.37860988 -132.79449654 90.80412292 C-132.82825264 102.99995527 -131.07264003 113.97789757 -122.28125 123.03515625 C-114.49725933 130.40021686 -106.61216243 134.10969898 -95.89648438 134.23193359 C-93.97298157 134.25602798 -93.97298157 134.25602798 -92.01062012 134.28060913 C-90.61125357 134.29210289 -89.21187951 134.30271036 -87.8125 134.3125 C-87.10299698 134.31782368 -86.39349396 134.32314735 -85.66249084 134.32863235 C-81.90098148 134.35533072 -78.13950479 134.37470904 -74.37792969 134.38916016 C-71.28582837 134.40244697 -68.19439522 134.43020493 -65.10253906 134.47119141 C-61.35010918 134.5209189 -57.59828047 134.54533017 -53.84553528 134.55238724 C-52.42635017 134.55903768 -51.00717517 134.57409456 -49.58818054 134.59827805 C-36.35714166 134.8107581 -26.09372504 131.92299592 -16.41796875 122.65234375 C-10.60444219 115.74426334 -7.14056074 107.66172322 -6.99414062 98.6784668 C-6.97162231 97.36246994 -6.949104 96.04647308 -6.92590332 94.69059753 C-6.84976827 88.63690361 -6.79713973 82.58309403 -6.75878906 76.52905273 C-6.73663261 73.34652851 -6.69504464 70.16519905 -6.63574219 66.9831543 C-6.5639363 63.12157842 -6.52785199 59.26111394 -6.51567078 55.3989048 C-6.50538299 53.93943561 -6.48323366 52.47999216 -6.44807434 51.02091026 C-6.16309758 38.53664999 -9.11624153 28.64399222 -17.40625 19.0390625 C-24.24454789 12.90172909 -33.35786524 8.93260067 -42.47509766 8.87792969 C-43.76719147 8.86832214 -45.05928528 8.8587146 -46.39053345 8.84881592 C-47.80462466 8.84396598 -49.21871794 8.83968763 -50.6328125 8.8359375 C-52.08670045 8.83018156 -53.54058839 8.82442388 -54.99447632 8.81866455 C-58.04596306 8.80815847 -61.0974235 8.80231416 -64.14892578 8.79882812 C-68.03910843 8.79336353 -71.9289375 8.769378 -75.81900978 8.74085617 C-78.82523574 8.72212691 -81.83137858 8.71701862 -84.83765793 8.71549225 C-86.2704396 8.71248511 -87.70322049 8.70452288 -89.13594437 8.69130707 C-103.34180905 8.56969076 -113.95962947 11.15415813 -123.96875 21.7265625 Z " fill="#EF415F" transform="translate(182.21875,40.9609375)"/>
<path d="M0 0 C1.28225967 -0.01606293 2.56451935 -0.03212585 3.88563538 -0.04867554 C5.27978848 -0.06016846 6.67394913 -0.07077607 8.06811523 -0.08056641 C8.77670118 -0.08589008 9.48528713 -0.09121376 10.21534538 -0.09669876 C13.97037546 -0.12336955 17.72537308 -0.14275857 21.48046875 -0.15722656 C24.56573416 -0.17052267 27.6503314 -0.19830223 30.73535156 -0.23925781 C34.48245049 -0.28898241 38.22894759 -0.31339569 41.97636223 -0.32045364 C43.39275639 -0.32710266 44.8091405 -0.34215564 46.2253437 -0.36634445 C57.62399071 -0.54983776 68.11119897 1.26787987 76.87670898 9.13037109 C85.60491439 17.90349394 89.45366589 27.58574376 89.48553467 39.83889771 C89.46636585 41.23034753 89.44567853 42.62177715 89.42358398 44.01318359 C89.42321879 45.48900477 89.42524378 46.96482824 89.42950439 48.44064331 C89.4307873 51.50853447 89.40819947 54.57497121 89.36694336 57.64257812 C89.31578062 61.54052686 89.31810868 65.43620337 89.33755112 69.33436775 C89.34793009 72.3734758 89.33331753 75.41207715 89.31116486 78.45110703 C89.30290536 79.88694877 89.30124193 81.32284665 89.3068161 82.75870132 C89.32871217 95.96459326 86.43476168 106.33186148 77.17749023 115.99365234 C70.32061788 121.76408453 62.25504826 125.30030551 53.32373047 125.35400391 C52.03486435 125.36361145 50.74599823 125.37321899 49.41807556 125.38311768 C48.00715309 125.38796813 46.59622856 125.39224635 45.18530273 125.39599609 C43.73381042 125.40175261 42.28231811 125.40751028 40.83082581 125.41326904 C37.78353523 125.42377623 34.73627098 125.42961957 31.68896484 125.43310547 C27.80784807 125.43856514 23.92708658 125.46253949 20.04608059 125.49107742 C17.04410332 125.50982728 14.04220914 125.51491609 11.0401783 125.51644135 C9.61101418 125.51944474 8.18185069 125.52739388 6.75274467 125.54062653 C-7.67486089 125.66459269 -16.67221204 123.48801823 -27.18969727 113.53271484 C-33.42464922 106.92272818 -36.51206584 97.88530559 -36.66040039 88.92407227 C-36.6829187 87.62809616 -36.70543701 86.33212006 -36.7286377 84.99687195 C-36.80478866 79.03477399 -36.85740249 73.07255827 -36.89575195 67.11010742 C-36.91790572 63.97607694 -36.95948938 60.84326023 -37.01879883 57.7097168 C-37.09062217 53.90649318 -37.12669146 50.1043983 -37.13887024 46.30053139 C-37.14915531 44.86338873 -37.17129789 43.42627203 -37.20646667 41.98952293 C-37.49335431 29.61696972 -34.51731507 19.63750177 -26.18579102 10.19287109 C-18.48660599 3.32979666 -10.18718819 0.11643543 0 0 Z M-19.37329102 21.19287109 C-20.19120117 22.15193359 -20.19120117 22.15193359 -21.02563477 23.13037109 C-24.00841282 27.49299384 -24.68854505 31.27081583 -24.71044922 36.50854492 C-24.71998123 37.76367386 -24.72951324 39.0188028 -24.73933411 40.31196594 C-24.7390726 41.6746117 -24.73813518 43.03725746 -24.73657227 44.39990234 C-24.74046348 45.80848821 -24.74479903 47.21707292 -24.7495575 48.62565613 C-24.75700737 51.57526454 -24.75673812 54.52475324 -24.75146484 57.47436523 C-24.7456819 61.2368319 -24.76257823 64.9988044 -24.78580952 68.76118946 C-24.80061256 71.67045411 -24.80140951 74.57960168 -24.79829979 77.48889732 C-24.79881004 78.87504744 -24.8039917 80.26120462 -24.81411171 81.64731789 C-24.86228342 89.16986636 -24.71103669 95.34846825 -21.43579102 102.19287109 C-20.77579102 102.19287109 -20.11579102 102.19287109 -19.43579102 102.19287109 C-19.22954102 102.74974609 -19.02329102 103.30662109 -18.81079102 103.88037109 C-15.97193305 108.65481404 -11.63561623 111.51197044 -6.43579102 113.19287109 C-3.41710133 113.51318408 -3.41710133 113.51318408 -0.15185547 113.49926758 C1.72115486 113.52324867 1.72115486 113.52324867 3.63200378 113.54771423 C4.98830758 113.55409352 6.34461633 113.55948545 7.70092773 113.56396484 C9.10472198 113.5729428 10.50851532 113.58206484 11.91230774 113.59132385 C14.85350866 113.60778861 17.79459615 113.61550878 20.73583984 113.6184082 C24.48044573 113.62377572 28.2239645 113.66139674 31.96826458 113.70715237 C34.86904147 113.73709985 37.76956279 113.74413562 40.67048073 113.74513435 C42.04943611 113.74930525 43.4283945 113.76161196 44.80719566 113.7826519 C54.29281464 113.91582621 62.24877362 113.09133444 69.46928406 106.4372406 C76.9689149 98.5121062 77.03940689 90.26075069 77.03295898 79.82568359 C77.04007223 78.42235006 77.0477729 77.0190194 77.05603027 75.61569214 C77.06943268 72.68218899 77.07106333 69.74895477 77.06518555 66.81542969 C77.05929545 63.07745539 77.08986974 59.34078266 77.13030243 55.60305977 C77.15629907 52.70658559 77.15904612 49.8104198 77.15541077 46.91384506 C77.15709111 45.53687141 77.16662793 44.15988181 77.18455505 42.78302383 C77.29350058 33.38171985 76.46794575 26.33623661 69.80871582 19.35159302 C61.84460538 11.80933971 53.70638331 11.71762728 43.19702148 11.72412109 C41.79368795 11.71700785 40.39035729 11.70930718 38.98703003 11.7010498 C36.05352688 11.68764739 33.12029266 11.68601675 30.18676758 11.69189453 C26.44879328 11.69778462 22.71212055 11.66721034 18.97439766 11.62677765 C16.07792348 11.60078101 13.18175769 11.59803395 10.28518295 11.60166931 C8.9082093 11.59998897 7.5312197 11.59045215 6.15436172 11.57252502 C-4.23326584 11.45214964 -12.47794966 12.83079454 -19.37329102 21.19287109 Z " fill="#FCF5F5" transform="translate(86.435791015625,49.80712890625)"/>
<path d="M0 0 C8.4436527 3.93324581 14.02306532 9.28854724 17.8984375 17.75 C20.98608902 26.44067433 20.2500915 35.57429581 16.4609375 43.9375 C11.64445402 52.20579664 4.51347254 57.71597853 -4.7265625 60.3125 C-14.95769765 61.98973527 -22.97040839 59.74635308 -31.39453125 53.80078125 C-38.47352928 47.6501764 -41.9168147 40.48591734 -42.78515625 31.34765625 C-43.19685721 22.45242031 -40.88237636 15.45393086 -35.2265625 8.5625 C-31.97631032 5.10300411 -28.78940554 3.02257394 -24.5390625 0.9375 C-23.69408203 0.40769531 -23.69408203 0.40769531 -22.83203125 -0.1328125 C-16.1535142 -2.84062691 -6.78611153 -2.0373315 0 0 Z " fill="#FAF3F7" transform="translate(124.5390625,83.0625)"/>
<path d="M0 0 C0.96669868 -0.00021904 0.96669868 -0.00021904 1.95292664 -0.0004425 C4.06850634 0.00025033 6.18399636 0.00801308 8.29956055 0.01586914 C9.77215019 0.01773556 11.24474045 0.0191584 12.71733093 0.02015686 C16.58230318 0.02396443 20.4472375 0.0337796 24.31219482 0.04486084 C28.26045214 0.05511289 32.20871562 0.0596626 36.15698242 0.06469727 C43.89593195 0.07540352 51.6348503 0.0924587 59.3737793 0.11352539 C58.7137793 0.44352539 58.0537793 0.77352539 57.3737793 1.11352539 C57.71822811 3.58619304 57.71822811 3.58619304 58.3737793 6.11352539 C59.3637793 6.60852539 59.3637793 6.60852539 60.3737793 7.11352539 C59.7137793 8.43352539 59.0537793 9.75352539 58.3737793 11.11352539 C57.2607695 11.11899384 57.2607695 11.11899384 56.12527466 11.12457275 C49.0938024 11.16261741 42.06279117 11.21965453 35.03166389 11.29742813 C31.41782072 11.33674821 27.80421556 11.36901151 24.19018555 11.38452148 C20.69502552 11.39979143 17.20052053 11.43441555 13.70565414 11.48183441 C11.73959106 11.50364563 9.77334259 11.5059902 7.80715942 11.50787354 C-2.17740372 11.66918462 -10.66482193 13.44007936 -18.1574707 20.40258789 C-22.88650881 25.91141419 -24.71848407 32.22681626 -24.81567383 39.3659668 C-24.83239136 40.41450836 -24.84910889 41.46304993 -24.86633301 42.54336548 C-24.87990845 43.67253387 -24.89348389 44.80170227 -24.9074707 45.96508789 C-24.92588013 47.13429779 -24.94428955 48.30350769 -24.96325684 49.50814819 C-25.02199848 53.25155612 -25.07476841 56.99501062 -25.1262207 60.73852539 C-25.19426796 65.64746725 -25.2680582 70.55627791 -25.3449707 75.46508789 C-25.35854614 76.5821109 -25.37212158 77.69913391 -25.3861084 78.8500061 C-25.48746025 85.3215658 -25.85596314 91.68619647 -26.6262207 98.11352539 C-27.2862207 98.11352539 -27.9462207 98.11352539 -28.6262207 98.11352539 C-28.9562207 97.12352539 -29.2862207 96.13352539 -29.6262207 95.11352539 C-30.2862207 96.10352539 -30.9462207 97.09352539 -31.6262207 98.11352539 C-32.2862207 98.11352539 -32.9462207 98.11352539 -33.6262207 98.11352539 C-35.73377311 94.65920451 -35.87434349 91.94946713 -35.86914062 87.93969727 C-35.87221725 86.69160278 -35.87529388 85.4435083 -35.87846375 84.15759277 C-35.87156533 82.79915177 -35.86429831 81.4407126 -35.85668945 80.08227539 C-35.85549664 78.68509972 -35.85504471 77.28792323 -35.8553009 75.89074707 C-35.85373846 72.96544357 -35.84546747 70.04026285 -35.83203125 67.11499023 C-35.81504181 63.36907396 -35.8112171 59.62329252 -35.81197643 55.87734222 C-35.81170424 52.99313067 -35.80621504 50.10894848 -35.79897499 47.2247467 C-35.79579746 45.84367596 -35.79382306 44.46260191 -35.79308128 43.08152771 C-35.79090803 41.15012412 -35.78135696 39.2187331 -35.77148438 37.28735352 C-35.76767258 36.18911255 -35.76386078 35.09087158 -35.75993347 33.95935059 C-35.6437007 31.48555434 -35.29696807 29.47848723 -34.6262207 27.11352539 C-34.5437207 26.20602539 -34.4612207 25.29852539 -34.3762207 24.36352539 C-32.42266534 15.8981188 -26.38416573 10.20172774 -19.6262207 5.11352539 C-13.20471672 1.12736818 -7.55775349 -0.01445077 0 0 Z " fill="#FCF9FB" transform="translate(86.626220703125,49.886474609375)"/>
<path d="M0 0 C4.27937584 3.0481865 6.79392083 7.38055281 8.68359375 12.19921875 C9.62687524 19.2738299 7.52831173 24.25833945 3.68359375 30.19921875 C-0.73861826 34.62143076 -4.9493052 36.29075081 -11.12890625 36.57421875 C-17.53091961 36.4311037 -22.06030132 34.39434787 -26.62890625 29.94921875 C-30.07508492 24.33322387 -32.25333749 18.87485386 -31.31640625 12.19921875 C-28.62013826 5.67491597 -25.29031789 1.4700254 -19.12890625 -2.05078125 C-12.3369787 -3.86196193 -6.13681809 -3.51910092 0 0 Z " fill="#FB0E5D" transform="translate(124.31640625,95.80078125)"/>
<path d="M0 0 C0.79015503 0.00088623 1.58031006 0.00177246 2.39440918 0.00268555 C14.45296024 0.01857055 26.46748826 0.27849164 38.5 1.125 C38.995 2.115 38.995 2.115 39.5 3.125 C40.49 2.465 41.48 1.805 42.5 1.125 C44.5 1.125 46.5 1.125 48.5 1.125 C48.809375 2.795625 48.809375 2.795625 49.125 4.5 C50.11628301 8.39099195 50.11628301 8.39099195 53.625 9.5625 C54.57375 9.748125 55.5225 9.93375 56.5 10.125 C56.995 13.59 56.995 13.59 57.5 17.125 C59.81 17.125 62.12 17.125 64.5 17.125 C64.5 18.115 64.5 19.105 64.5 20.125 C63.015 20.62 63.015 20.62 61.5 21.125 C62.49 22.115 62.49 22.115 63.5 23.125 C67.06844895 33.73705407 66.64263932 45.56911833 66.44921875 56.59765625 C66.4303511 57.84252304 66.41148346 59.08738983 66.39204407 60.36997986 C66.35043359 62.97936971 66.30572738 65.58871188 66.25805664 68.19799805 C66.21073226 70.87387249 66.16767149 73.54932289 66.13305664 76.2253418 C66.08173309 80.09967851 66.01733887 83.97358256 65.94921875 87.84765625 C65.93453049 89.0496315 65.91984222 90.25160675 65.90470886 91.49000549 C65.88161148 92.59553268 65.8585141 93.70105988 65.8347168 94.84008789 C65.81837692 95.81506729 65.80203705 96.79004669 65.78520203 97.79457092 C65.5 100.125 65.5 100.125 63.5 102.125 C63.5030162 101.26659515 63.50603241 100.40819031 63.50914001 99.52377319 C63.5315227 91.37506323 63.51991588 83.22722782 63.47153378 75.078619 C63.44782924 70.89070514 63.43659065 66.7035811 63.45532227 62.515625 C63.47296687 58.46262537 63.45593269 54.41103369 63.41632271 50.35820389 C63.40713419 48.82353762 63.40977791 47.28874653 63.42530632 45.75413132 C63.53531698 33.6961796 61.37338287 24.249234 53.47544861 14.66928101 C43.70997775 5.15740059 32.3516396 3.36288124 19.20703125 3.53125 C17.76600749 3.53296661 16.32498061 3.53288985 14.88395691 3.53112793 C11.88595081 3.53276839 8.88870407 3.55123308 5.89086914 3.58300781 C2.0714506 3.62279023 -1.74698269 3.62703248 -5.56656933 3.61954498 C-8.53425431 3.61645941 -11.5017227 3.62865001 -14.46935463 3.64567566 C-15.87698317 3.6526438 -17.2846362 3.65583782 -18.69228172 3.65498352 C-31.72215604 3.66701185 -41.39363193 5.79066698 -51.22265625 14.68359375 C-55.70261934 19.46145719 -57.97836015 25.1589463 -60.5 31.125 C-61.15497718 32.4641143 -61.8172443 33.79983326 -62.5 35.125 C-64.15138672 30.17083985 -64.01244165 25.1747666 -62.75 20.125 C-61.5 18.125 -61.5 18.125 -59.5 17.5625 C-58.84 17.418125 -58.18 17.27375 -57.5 17.125 C-55.47244814 14.18504981 -55.5 12.84795997 -55.5 9.125 C-53.19 9.455 -50.88 9.785 -48.5 10.125 C-48.17 7.485 -47.84 4.845 -47.5 2.125 C-42.71545108 0.99715053 -38.22952036 1.08884322 -33.33984375 1.1875 C-30.22856832 1.13685869 -27.25156746 0.93033895 -24.16015625 0.6328125 C-16.10912834 -0.07527262 -8.07518175 -0.02604491 0 0 Z " fill="#D3367E" transform="translate(111.5,46.875)"/>
<path d="M0 0 C9.17630203 9.49394325 14.9700942 22.59861622 15.1953125 35.78125 C15.21467865 36.50788849 15.2340448 37.23452698 15.2539978 37.98318481 C15.31321092 40.29336115 15.3597111 42.60360013 15.40625 44.9140625 C15.44452997 46.4244992 15.48358708 47.93491642 15.5234375 49.4453125 C15.71455943 57.07100554 15.81795143 64.69615054 15.8359375 72.32421875 C15.83872711 73.01832855 15.84151672 73.71243835 15.84439087 74.42758179 C15.84157874 79.37548394 15.49293572 84.14622318 14.78125 89.0390625 C14.45125 89.0390625 14.12125 89.0390625 13.78125 89.0390625 C13.75433315 86.58065645 13.73445198 84.12254368 13.71875 81.6640625 C13.71037109 80.96539062 13.70199219 80.26671875 13.69335938 79.546875 C13.66796875 74.265625 13.66796875 74.265625 14.78125 72.0390625 C14.12125 72.0390625 13.46125 72.0390625 12.78125 72.0390625 C12.55862394 69.95720799 12.35367074 67.87345824 12.15625 65.7890625 C12.04023438 64.62890625 11.92421875 63.46875 11.8046875 62.2734375 C11.78169405 59.10034159 12.08419846 57.65589006 13.78125 55.0390625 C12.29625 54.5440625 12.29625 54.5440625 10.78125 54.0390625 C10.00805522 50.25899915 9.77362563 47.72448315 10.78125 44.0390625 C11.04088492 42.50223356 11.26970319 40.95990655 11.46875 39.4140625 C11.57574219 38.63804688 11.68273437 37.86203125 11.79296875 37.0625 C12.0169883 34.80613428 12.0169883 34.80613428 9.78125 33.0390625 C9.5859375 30.875 9.5859375 30.875 9.65625 28.4140625 C9.67429687 27.59679687 9.69234375 26.77953125 9.7109375 25.9375 C9.73414063 25.31101563 9.75734375 24.68453125 9.78125 24.0390625 C8.811875 23.7709375 7.8425 23.5028125 6.84375 23.2265625 C5.833125 22.8346875 4.8225 22.4428125 3.78125 22.0390625 C3.45125 21.0490625 3.12125 20.0590625 2.78125 19.0390625 C3.77125 18.7090625 4.76125 18.3790625 5.78125 18.0390625 C4.66270414 14.31292097 4.66270414 14.31292097 1.78125 12.0390625 C2.44125 12.0390625 3.10125 12.0390625 3.78125 12.0390625 C1.72513244 9.04508412 1.72513244 9.04508412 -1.21875 7.0390625 C-2.70375 7.5340625 -2.70375 7.5340625 -4.21875 8.0390625 C-4.87875 7.7090625 -5.53875 7.3790625 -6.21875 7.0390625 C-6.62604228 4.71749653 -6.96313677 2.3821838 -7.21875 0.0390625 C-12.80671473 -1.9477694 -16.40881594 -1.99381467 -22.21875 -0.9609375 C-22.21875 -3.6009375 -22.21875 -6.2409375 -22.21875 -8.9609375 C-23.0025 -8.9609375 -23.78625 -8.9609375 -24.59375 -8.9609375 C-26.13541667 -8.9609375 -27.67708333 -8.9609375 -29.21875 -8.9609375 C-30.22421875 -8.93773437 -31.2296875 -8.91453125 -32.265625 -8.890625 C-33.48765625 -8.87257813 -34.7096875 -8.85453125 -35.96875 -8.8359375 C-37.18046875 -8.81273437 -38.3921875 -8.78953125 -39.640625 -8.765625 C-43.19842708 -8.95982817 -45.91429182 -9.6736179 -49.21875 -10.9609375 C-49.54875 -10.3009375 -49.87875 -9.6409375 -50.21875 -8.9609375 C-50.87875 -8.9609375 -51.53875 -8.9609375 -52.21875 -8.9609375 C-52.87875 -9.6209375 -53.53875 -10.2809375 -54.21875 -10.9609375 C-56.76634247 -11.29279094 -56.76634247 -11.29279094 -59.77001953 -11.27978516 C-60.93107208 -11.29965485 -62.09212463 -11.31952454 -63.2883606 -11.33999634 C-65.17589554 -11.35732315 -65.17589554 -11.35732315 -67.1015625 -11.375 C-68.38610321 -11.39436615 -69.67064392 -11.4137323 -70.99411011 -11.4336853 C-74.41022535 -11.48507691 -77.82638007 -11.52466464 -81.24267578 -11.56182861 C-84.72828999 -11.60182448 -88.21373903 -11.65293688 -91.69921875 -11.703125 C-98.5389419 -11.79996725 -105.37877096 -11.8843453 -112.21875 -11.9609375 C-112.21875 -12.2909375 -112.21875 -12.6209375 -112.21875 -12.9609375 C-104.55480927 -13.10557635 -96.89082465 -13.24769969 -89.22680664 -13.38818359 C-86.62686134 -13.43612516 -84.02692607 -13.48461448 -81.42700195 -13.53369141 C-16.69365651 -14.75390065 -16.69365651 -14.75390065 0 0 Z " fill="#C51D9E" transform="translate(182.21875,40.9609375)"/>
<path d="M0 0 C0.99 0.33 1.98 0.66 3 1 C2.9592334 1.57443848 2.9184668 2.14887695 2.87646484 2.74072266 C2.69699791 5.3681398 2.53586126 7.9963808 2.375 10.625 C2.31054688 11.52863281 2.24609375 12.43226562 2.1796875 13.36328125 C1.88582543 18.39566926 1.94225686 22.27190317 4 27 C3.34 27.33 2.68 27.66 2 28 C1.67 28.99 1.34 29.98 1 31 C1.99 31 2.98 31 4 31 C4 33.97 4 36.94 4 40 C3.01 40 2.02 40 1 40 C1.4056427 42.92062741 1.70382375 44.64686678 3.625 46.9375 C5 49 5 49 4.625 52.1875 C4.41875 53.115625 4.2125 54.04375 4 55 C5.12534105 56.35618499 5.12534105 56.35618499 8.0625 56.0625 C9.031875 56.041875 10.00125 56.02125 11 56 C10.34 58.31 9.68 60.62 9 63 C9.99 63.33 10.98 63.66 12 64 C12.6875 66.0625 12.6875 66.0625 13 68 C12.34 68 11.68 68 11 68 C11.66 69.32 12.32 70.64 13 72 C15.31 72 17.62 72 20 72 C19.34 74.31 18.68 76.62 18 79 C19.485 79.495 19.485 79.495 21 80 C22.6875 81.5625 22.6875 81.5625 24 83 C24 82.34 24 81.68 24 81 C25.485 81.495 25.485 81.495 27 82 C27.28875 82.66 27.5775 83.32 27.875 84 C28.85107088 86.26364462 28.85107088 86.26364462 31.5 86.8125 C33.99790956 87.21473491 33.99790956 87.21473491 36 86 C36 86.99 36 87.98 36 89 C37.99954746 89.04254356 40.00041636 89.04080783 42 89 C42.33 88.67 42.66 88.34 43 88 C45.67058851 87.85884839 48.32432238 87.95752893 51 88 C51.33 88.99 51.66 89.98 52 91 C57.94 90.67 63.88 90.34 70 90 C70 89.34 70 88.68 70 88 C71.10537109 88.32597168 72.21074219 88.65194336 73.34960938 88.98779297 C78.39204172 90.24231584 83.23439157 90.25326889 88.40625 90.1953125 C89.3715564 90.1924826 90.33686279 90.18965271 91.3314209 90.18673706 C94.38774478 90.17562124 97.44376601 90.15053285 100.5 90.125 C102.58332907 90.11495908 104.66666278 90.10583518 106.75 90.09765625 C111.83344837 90.07571011 116.91667303 90.04124017 122 90 C122 89.34 122 88.68 122 88 C126.75 87.875 126.75 87.875 129 89 C131.16760135 88.5315552 131.16760135 88.5315552 133.5 87.6875 C134.2940625 87.42324219 135.088125 87.15898437 135.90625 86.88671875 C138.16611391 86.08413056 138.16611391 86.08413056 140 84 C140.99 84 141.98 84 143 84 C143 84.99 143 85.98 143 87 C141.71531961 87.6392371 140.42161893 88.26033982 139.125 88.875 C138.40570313 89.22304687 137.68640625 89.57109375 136.9453125 89.9296875 C126.79972413 93.61654587 116.36932912 93.31056914 105.7265625 93.30078125 C103.95356141 93.30467661 102.18056125 93.30901299 100.40756226 93.31376648 C96.70429449 93.3211958 93.00112211 93.32096141 89.29785156 93.31567383 C84.58198848 93.30988375 79.86651874 93.32681512 75.1507206 93.3500185 C71.49241909 93.36484075 67.83421047 93.36561606 64.17588425 93.36250877 C62.43857418 93.36301773 60.70125832 93.36817434 58.96397781 93.37832069 C42.000841 93.46525029 26.83274047 91.19374672 13.91015625 79.09375 C-2.38915448 61.22783885 -1.36524458 39.5957734 -0.5625 17 C-0.50907813 15.33856363 -0.45634049 13.67710511 -0.40429688 12.015625 C-0.27737798 8.01011873 -0.14134241 4.00502216 0 0 Z " fill="#ECC03F" transform="translate(28,104)"/>
<path d="M0 0 C3.875 0.9375 3.875 0.9375 5.875 3.9375 C6.3125 7.375 6.3125 7.375 5.875 10.9375 C3.8125 13.4375 3.8125 13.4375 0.875 14.9375 C-2.9375 14.6875 -2.9375 14.6875 -6.125 13.9375 C-5.07229537 15.09561388 -5.07229537 15.09561388 -3.125 15.9375 C-3.125 17.9175 -3.125 19.8975 -3.125 21.9375 C-2.465 21.9375 -1.805 21.9375 -1.125 21.9375 C-1.6509375 22.80375 -1.6509375 22.80375 -2.1875 23.6875 C-3.32388976 26.41483543 -2.8620725 27.15079898 -2.125 29.9375 C-1.88173355 33.41363011 -1.89399832 36.89118371 -1.875 40.375 C-1.854375 41.31666016 -1.83375 42.25832031 -1.8125 43.22851562 C-1.78393244 48.28854389 -1.80469535 51.82206977 -5.125 55.9375 C-6.115 55.4425 -6.115 55.4425 -7.125 54.9375 C-6.9084375 54.34324219 -6.691875 53.74898437 -6.46875 53.13671875 C-3.31256868 43.74123454 -2.67634709 35.38594358 -6.8828125 26.21875 C-11.2397345 18.21735865 -17.36949799 13.65737604 -26.125 10.9375 C-33.73922628 9.77473638 -42.82400343 9.38870355 -49.49609375 13.6875 C-50.30240234 14.30625 -50.30240234 14.30625 -51.125 14.9375 C-51.73472656 15.35 -52.34445313 15.7625 -52.97265625 16.1875 C-58.19270139 20.08868023 -60.59440302 25.03666096 -63.125 30.9375 C-64.08321359 27.55853629 -64.13944422 25.34972148 -63.125 21.9375 C-62.465 21.6075 -61.805 21.2775 -61.125 20.9375 C-60.795 19.9475 -60.465 18.9575 -60.125 17.9375 C-59.465 18.2675 -58.805 18.5975 -58.125 18.9375 C-58.455 17.9475 -58.785 16.9575 -59.125 15.9375 C-59.16454234 13.60450175 -59.16901732 11.27041811 -59.125 8.9375 C-56.125 9.9375 -56.125 9.9375 -55.125 10.9375 C-54.795 10.2775 -54.465 9.6175 -54.125 8.9375 C-50.25 9.8125 -50.25 9.8125 -49.125 10.9375 C-48.795 9.9475 -48.465 8.9575 -48.125 7.9375 C-29.91887887 6.64839556 -29.91887887 6.64839556 -22.31640625 7.6796875 C-18.58466969 8.11871533 -14.87785035 7.99802984 -11.125 7.9375 C-11.125 5.9575 -11.125 3.9775 -11.125 1.9375 C-10.465 1.6075 -9.805 1.2775 -9.125 0.9375 C-8.63 2.4225 -8.63 2.4225 -8.125 3.9375 C-7.63 3.256875 -7.135 2.57625 -6.625 1.875 C-3.83815724 -0.28480314 -3.33862743 -0.32779251 0 0 Z " fill="#E51072" transform="translate(147.125,72.0625)"/>
<path d="M0 0 C7.91099447 -0.11641113 15.8216246 -0.20497411 23.73326683 -0.25906086 C27.40793726 -0.28503438 31.08201705 -0.32020304 34.75634766 -0.37719727 C38.30960425 -0.43196167 41.86229673 -0.46151236 45.41594315 -0.47438622 C47.41553628 -0.48797276 49.41490589 -0.52693404 51.41415405 -0.56648254 C60.16360849 -0.56914614 67.33420019 0.63013138 73.90609741 6.78520203 C78.74206358 12.00293978 81.37640025 17.28086336 81.37231445 24.47680664 C81.38165764 26.37391136 81.38165764 26.37391136 81.39118958 28.30934143 C81.38250159 29.67628375 81.37318361 31.04322219 81.36328125 32.41015625 C81.36276199 33.82449849 81.36328222 35.23884145 81.36479187 36.65318298 C81.36470242 39.60947521 81.35432689 42.56549322 81.33618164 45.52172852 C81.31347445 49.3034439 81.31295698 53.08475986 81.31969929 56.8665247 C81.32304658 59.78425115 81.31639524 62.7018872 81.30657005 65.61959648 C81.30273244 67.01379358 81.30156385 68.40800075 81.3031559 69.80220222 C81.30352834 71.75235388 81.28939233 73.70249186 81.2746582 75.65258789 C81.26774712 77.31421715 81.26774712 77.31421715 81.26069641 79.00941467 C80.99603397 82.04549644 80.28374764 84.25275094 79 87 C78.34 85.68 77.68 84.36 77 83 C77.33 83 77.66 83 78 83 C78.33 64.19 78.66 45.38 79 26 C70.88647728 25.3817482 70.88647728 25.3817482 67.375 27.1875 C64.53019037 28.16072435 63.87328432 27.77758209 61.1875 26.625 C60.135625 26.08875 59.08375 25.5525 58 25 C58.33 24.34 58.66 23.68 59 23 C60.0725 23.226875 61.145 23.45375 62.25 23.6875 C65.8573577 24.27451102 65.8573577 24.27451102 68.4375 23 C70.7659273 20.01961305 70.32807237 17.67441052 70 14 C69.505 12.515 69.505 12.515 69 11 C63.73290253 10.46778703 63.73290253 10.46778703 59.125 12.375 C58.75375 12.91125 58.3825 13.4475 58 14 C57.34 14.66 56.68 15.32 56 16 C56 14.35 56 12.7 56 11 C57.98 10.01 59.96 9.02 62 8 C62 6.02 62 4.04 62 2 C60.90125801 2.00666183 60.90125801 2.00666183 59.78031921 2.01345825 C52.87940322 2.05352172 45.9785046 2.08397767 39.07750225 2.10362434 C35.52956369 2.11406444 31.98172117 2.12822763 28.43383789 2.15087891 C24.35562209 2.17675331 20.27750729 2.1864709 16.19921875 2.1953125 C14.28661507 2.21079636 14.28661507 2.21079636 12.33537292 2.22659302 C10.56387627 2.22681961 10.56387627 2.22681961 8.7565918 2.22705078 C7.71512497 2.231492 6.67365814 2.23593323 5.60063171 2.24050903 C3 2 3 2 0 0 Z " fill="#CB1C79" transform="translate(82,62)"/>
<path d="M0 0 C1.1679007 0.0028299 2.33580139 0.00565979 3.53909302 0.00857544 C7.25793841 0.01974277 10.97654027 0.04484146 14.6953125 0.0703125 C17.22135068 0.08034674 19.74739265 0.08947181 22.2734375 0.09765625 C28.45581183 0.11967085 34.63804476 0.15311435 40.8203125 0.1953125 C40.8203125 0.5253125 40.8203125 0.8553125 40.8203125 1.1953125 C35.32014286 2.49798426 30.34999191 1.90564681 24.8203125 1.1953125 C24.8203125 1.8553125 24.8203125 2.5153125 24.8203125 3.1953125 C24.1603125 3.1953125 23.5003125 3.1953125 22.8203125 3.1953125 C22.8203125 2.5353125 22.8203125 1.8753125 22.8203125 1.1953125 C22.1603125 1.1953125 21.5003125 1.1953125 20.8203125 1.1953125 C20.4903125 1.8553125 20.1603125 2.5153125 19.8203125 3.1953125 C19.8203125 2.5353125 19.8203125 1.8753125 19.8203125 1.1953125 C18.36151141 1.33638997 16.90327699 1.48333665 15.4453125 1.6328125 C14.63320312 1.71402344 13.82109375 1.79523437 12.984375 1.87890625 C10.77758445 2.08621364 10.77758445 2.08621364 8.8203125 3.1953125 C6.796875 3.36328125 6.796875 3.36328125 4.4453125 3.3828125 C3.28902344 3.40408203 3.28902344 3.40408203 2.109375 3.42578125 C-0.39803638 3.17332857 -2.01230652 2.44724717 -4.1796875 1.1953125 C-4.1796875 1.8553125 -4.1796875 2.5153125 -4.1796875 3.1953125 C-5.1284375 3.1746875 -6.0771875 3.1540625 -7.0546875 3.1328125 C-10.08635033 2.96979424 -10.08635033 2.96979424 -12.1796875 4.1953125 C-12.5096875 5.0203125 -12.8396875 5.8453125 -13.1796875 6.6953125 C-15.1796875 9.1953125 -15.1796875 9.1953125 -17.4921875 9.67578125 C-19.26026227 9.81198468 -21.03208266 9.90691296 -22.8046875 9.95703125 C-25.44660422 10.03463039 -25.44660422 10.03463039 -28.1796875 12.1953125 C-28.5096875 13.3503125 -28.8396875 14.5053125 -29.1796875 15.6953125 C-30.1796875 19.1953125 -30.1796875 19.1953125 -33.1796875 21.1953125 C-35.3671875 21.8203125 -35.3671875 21.8203125 -37.1796875 22.1953125 C-37.5096875 24.1753125 -37.8396875 26.1553125 -38.1796875 28.1953125 C-39.1696875 28.5253125 -40.1596875 28.8553125 -41.1796875 29.1953125 C-40.1896875 29.5253125 -39.1996875 29.8553125 -38.1796875 30.1953125 C-38.1796875 30.8553125 -38.1796875 31.5153125 -38.1796875 32.1953125 C-38.8396875 32.1953125 -39.4996875 32.1953125 -40.1796875 32.1953125 C-40.1796875 33.1853125 -40.1796875 34.1753125 -40.1796875 35.1953125 C-41.4996875 35.1953125 -42.8196875 35.1953125 -44.1796875 35.1953125 C-44.31246094 35.82179687 -44.44523437 36.44828125 -44.58203125 37.09375 C-44.75863281 37.91101563 -44.93523438 38.72828125 -45.1171875 39.5703125 C-45.29121094 40.38242188 -45.46523438 41.19453125 -45.64453125 42.03125 C-46.1796875 44.1953125 -46.1796875 44.1953125 -47.1796875 46.1953125 C-46.5196875 46.1953125 -45.8596875 46.1953125 -45.1796875 46.1953125 C-45.8396875 48.5053125 -46.4996875 50.8153125 -47.1796875 53.1953125 C-49.57787683 50.79712317 -49.50083303 50.17332079 -49.5546875 46.8828125 C-49.23436189 33.80599063 -43.22902637 22.40870762 -34.4921875 12.9453125 C-24.27579842 3.26662811 -13.70443535 -0.12537416 0 0 Z " fill="#D31469" transform="translate(77.1796875,28.8046875)"/>
<path d="M0 0 C1.0625 1.875 1.0625 1.875 2 4 C1.67 4.66 1.34 5.32 1 6 C0.89324094 7.99070159 0.85114428 9.98499121 0.83886719 11.97851562 C0.82925964 13.23321655 0.8196521 14.48791748 0.80975342 15.78063965 C0.8049067 17.15584126 0.80062756 18.53104497 0.796875 19.90625 C0.79112453 21.31107588 0.78536678 22.71590172 0.77960205 24.12072754 C0.76909443 27.0663286 0.76324975 30.01190237 0.75976562 32.95751953 C0.7542717 36.73744397 0.73022403 40.51700985 0.70179367 44.29682159 C0.68320158 47.19811063 0.67796361 50.09931254 0.67642975 53.00065613 C0.67339648 54.39456652 0.66534531 55.78847514 0.65224457 57.18232727 C0.63525247 59.12864095 0.63889917 61.07510209 0.64355469 63.02148438 C0.63990906 64.13019897 0.63626343 65.23891357 0.63250732 66.38122559 C0.75377991 67.24542114 0.87505249 68.1096167 1 69 C1.99 69.66 2.98 70.32 4 71 C5.485 70.01 5.485 70.01 7 69 C7 70.32 7 71.64 7 73 C7.66 73 8.32 73 9 73 C9.33 51.88 9.66 30.76 10 9 C10.33 9 10.66 9 11 9 C11.01213028 10.10087952 11.01213028 10.10087952 11.02450562 11.22399902 C11.10270612 18.16766659 11.19007205 25.11116608 11.28752708 32.05458832 C11.3373024 35.62359288 11.38363266 39.1925705 11.421875 42.76171875 C11.45896671 46.21131313 11.50538836 49.66067128 11.55806351 53.11006165 C11.58539565 55.05518823 11.60326418 57.00044043 11.62094116 58.94567871 C11.72601782 65.29501412 12.10982873 70.9249232 14 77 C14.66 77 15.32 77 16 77 C17.2890625 78.53125 17.2890625 78.53125 18.625 80.5 C19.07101563 81.1496875 19.51703125 81.799375 19.9765625 82.46875 C20.48316406 83.22671875 20.48316406 83.22671875 21 84 C18.69 83.34 16.38 82.68 14 82 C13.67 85.3 13.34 88.6 13 92 C5.12383482 85.97705015 1.41617845 79.61007142 -1 70 C-1.24723816 66.63482666 -1.24723816 66.63482666 -1.24291992 63.10253906 C-1.24481827 62.45284653 -1.24671661 61.80315399 -1.24867249 61.1337738 C-1.25234286 59.01093023 -1.24173341 56.88843754 -1.23046875 54.765625 C-1.22927511 53.2806604 -1.22882418 51.79569504 -1.2290802 50.31072998 C-1.22752201 47.21084818 -1.21928058 44.11108296 -1.20581055 41.01123047 C-1.1887622 37.03774027 -1.1849983 33.06437715 -1.18575573 29.09085464 C-1.18548399 26.02997627 -1.18000317 22.96912567 -1.17275429 19.90825653 C-1.1695736 18.44262654 -1.16760161 16.97699342 -1.16686058 15.51136017 C-1.16469405 13.46752285 -1.15515259 11.42369735 -1.14526367 9.37988281 C-1.14145187 8.21741028 -1.13764008 7.05493774 -1.13371277 5.85723877 C-1 3 -1 3 0 0 Z " fill="#F9E5DF" transform="translate(51,75)"/>
<path d="M0 0 C0.33 0 0.66 0 1 0 C1.00364563 0.73978592 1.00729126 1.47957184 1.01104736 2.24177551 C1.04911971 9.25821996 1.10618734 16.27420365 1.18390274 23.29030323 C1.2231936 26.89627046 1.25547094 30.50200023 1.27099609 34.1081543 C1.28628566 37.59683452 1.32094319 41.08486107 1.36830902 44.57324791 C1.39008221 46.53317134 1.39246311 48.4932799 1.39434814 50.45332336 C1.5724808 61.47839719 3.82793691 71.61704637 11.71484375 79.7734375 C19.00338544 86.61456376 26.99152762 90.05869894 36.96191406 90.20532227 C38.16285706 90.22526749 39.36380005 90.24521271 40.60113525 90.26576233 C41.89291687 90.28247482 43.18469849 90.29918732 44.515625 90.31640625 C45.85512921 90.33698963 47.19462713 90.35798646 48.53411865 90.37937927 C52.05215341 90.43445709 55.5702454 90.48392906 59.08837891 90.53222656 C62.68136664 90.58254625 66.27427173 90.63817756 69.8671875 90.69335938 C76.91138655 90.800766 83.9556598 90.90224949 91 91 C91 91.33 91 91.66 91 92 C76.43406837 92.87053593 61.90048011 93.11024722 47.3125 93.125 C46.43753876 93.12749756 45.56257751 93.12999512 44.66110229 93.13256836 C42.14512177 93.13846397 39.62926317 93.13696748 37.11328125 93.1328125 C35.97395645 93.13578842 35.97395645 93.13578842 34.81161499 93.13882446 C31.38266978 93.12373189 28.28966696 92.99005623 25 92 C23.25113019 91.93375493 21.49997252 91.91447405 19.75 91.9375 C18.85796875 91.94652344 17.9659375 91.95554687 17.046875 91.96484375 C16.37140625 91.97644531 15.6959375 91.98804688 15 92 C15 90.02 15 88.04 15 86 C14.38769531 85.9175 13.77539062 85.835 13.14453125 85.75 C10.32148146 84.7627039 9.98341079 83.63894562 8.6875 81 C7.50713935 78.80674035 7.50713935 78.80674035 6 77 C2.33054374 75.86521513 2.33054374 75.86521513 -1 76 C-0.01 75.01 -0.01 75.01 1 74 C1.99 74 2.98 74 4 74 C4 73.34 4 72.68 4 72 C2.02 72.495 2.02 72.495 0 73 C-1.15933806 69.52198582 -1.08100867 66.9024254 -1.02172852 63.23364258 C-1.0073172 62.20886055 -1.0073172 62.20886055 -0.99261475 61.16337585 C-0.95965457 58.9069885 -0.91931105 56.65079656 -0.87890625 54.39453125 C-0.85460221 52.82940864 -0.83075879 51.26427882 -0.80735779 49.69914246 C-0.74454509 45.58089984 -0.67547048 41.46278506 -0.60510254 37.34466553 C-0.53439368 33.14194558 -0.46959199 28.93913505 -0.40429688 24.73632812 C-0.2753208 16.4907851 -0.13973097 8.24536775 0 0 Z " fill="#E9936B" transform="translate(49,84)"/>
<path d="M0 0 C8.77665928 0.32506145 15.43419605 4.2279989 21.625 10.375 C22.40875 11.24125 23.1925 12.1075 24 13 C23.67 13.66 23.34 14.32 23 15 C22.401875 14.67 21.80375 14.34 21.1875 14 C18.94613529 12.79212012 18.94613529 12.79212012 16 13 C15.87530901 18.57830016 15.87530901 18.57830016 17 24 C17.66 24 18.32 24 19 24 C19 25.65 19 27.3 19 29 C17.24635955 26.72026741 15.65167769 24.4426843 14.125 22 C10.522274 16.91379859 6.02627482 13.6588037 0 12 C-4.60058976 11.53140066 -9.18687967 11.51142036 -13.80859375 11.48828125 C-15.14382049 11.47141337 -16.47903155 11.45326032 -17.81422424 11.43388367 C-21.30755717 11.38660568 -24.80082652 11.35665368 -28.29437256 11.33044434 C-31.8676 11.30052582 -35.44060885 11.25403467 -39.01367188 11.20898438 C-46.00898955 11.12320462 -53.00438022 11.05574752 -60 11 C-60 10.67 -60 10.34 -60 10 C-59.24022858 9.99413376 -58.48045715 9.98826752 -57.69766235 9.98222351 C-50.54601564 9.92437808 -43.39472058 9.85234938 -36.24338722 9.76428509 C-32.5665772 9.71951053 -28.8898798 9.68027061 -25.21289062 9.65356445 C-21.66597997 9.62760131 -18.11950106 9.58725009 -14.5728569 9.53681374 C-13.21809626 9.52009735 -11.86326087 9.50861284 -10.50841141 9.50238609 C-8.61437481 9.49279764 -6.72047223 9.46307157 -4.82666016 9.43237305 C-3.20783432 9.41571846 -3.20783432 9.41571846 -1.55630493 9.39872742 C-0.7127243 9.26714737 0.13085632 9.13556732 1 9 C1.66 8.01 2.32 7.02 3 6 C2.01 5.67 1.02 5.34 0 5 C0 3.35 0 1.7 0 0 Z " fill="#F8DFEF" transform="translate(144,51)"/>
<path d="M0 0 C0.33 0 0.66 0 1 0 C0.99887207 0.91813477 0.99774414 1.83626953 0.99658203 2.78222656 C1.00652254 6.19743856 1.04310625 9.6102238 1.09765625 13.02490234 C1.11579627 14.50104685 1.1233883 15.97736094 1.12011719 17.45361328 C1.11725366 19.57977942 1.15261821 21.70244477 1.1953125 23.828125 C1.20578613 25.1059082 1.21625977 26.38369141 1.22705078 27.70019531 C1.69252322 31.27507609 1.69252322 31.27507609 5.02685547 33.27636719 C6.00799316 33.84516602 6.98913086 34.41396484 8 35 C8.375 37.75 8.375 37.75 8 40 C9.32 40 10.64 40 12 40 C12 40.66 12 41.32 12 42 C13.98 42 15.96 42 18 42 C18 43.98 18 45.96 18 48 C18.60432861 47.99476318 19.20865723 47.98952637 19.83129883 47.98413086 C33.41682076 47.88433948 46.99450331 47.98469128 60.57601929 48.31838989 C62.14920597 48.35610278 63.72247537 48.39051118 65.29580688 48.42160034 C67.51918006 48.46672962 69.74186701 48.5245658 71.96484375 48.5859375 C73.2499585 48.6173584 74.53507324 48.6487793 75.85913086 48.68115234 C79 49 79 49 82 51 C73.79366032 51.09297117 65.58754331 51.16390134 57.38080597 51.20724869 C53.56943565 51.22806079 49.75842754 51.25625997 45.94726562 51.30175781 C42.26436336 51.34544579 38.58180792 51.36918499 34.89866638 51.37950897 C33.49851528 51.3868595 32.09838164 51.40121298 30.69837952 51.42292023 C20.85003545 51.569449 14.59970731 51.02474389 7 44.375 C5 42 5 42 5 40 C4.34 40 3.68 40 3 40 C-0.94904106 32.12264775 -0.33719484 24.07873808 -0.1875 15.5 C-0.1724286 13.99480503 -0.15874453 12.48959549 -0.14648438 10.984375 C-0.11366687 7.32261059 -0.06201989 3.66139979 0 0 Z " fill="#E6634F" transform="translate(62,112)"/>
<path d="M0 0 C2.4131489 0.00539306 4.82611429 0.00000529 7.23925781 -0.00634766 C8.79915405 -0.00568728 10.35905017 -0.00440695 11.91894531 -0.00244141 C12.62746643 -0.00446564 13.33598755 -0.00648987 14.065979 -0.00857544 C18.83797562 0.01349951 23.42714378 0.46362134 28.15332031 1.13037109 C28.15332031 1.46037109 28.15332031 1.79037109 28.15332031 2.13037109 C27.1530632 2.13917046 27.1530632 2.13917046 26.13259888 2.14814758 C19.15616135 2.21236568 12.18017306 2.29685746 5.20410156 2.39282227 C2.60487818 2.42595913 0.00558478 2.45402559 -2.59375 2.47680664 C-6.34242427 2.51055907 -10.0904634 2.56288696 -13.83886719 2.61865234 C-14.99031219 2.62504227 -16.1417572 2.63143219 -17.32809448 2.63801575 C-29.32370618 2.85379733 -39.73157324 5.81813658 -48.85449219 13.91162109 C-53.65911956 18.98663875 -56.19656055 24.73832344 -58.84667969 31.13037109 C-59.50073011 32.46993829 -60.16273871 33.80581571 -60.84667969 35.13037109 C-62.4980664 30.17621094 -62.35912134 25.18013769 -61.09667969 20.13037109 C-59.84667969 18.13037109 -59.84667969 18.13037109 -57.84667969 17.56787109 C-57.18667969 17.42349609 -56.52667969 17.27912109 -55.84667969 17.13037109 C-53.81912783 14.1904209 -53.84667969 12.85333107 -53.84667969 9.13037109 C-51.53667969 9.46037109 -49.22667969 9.79037109 -46.84667969 10.13037109 C-46.51667969 7.49037109 -46.18667969 4.85037109 -45.84667969 2.13037109 C-41.06213077 1.00252163 -36.57620005 1.09421431 -31.68652344 1.19287109 C-28.58937224 1.14245968 -25.6304962 0.93645153 -22.55371094 0.63818359 C-15.03587944 -0.02424228 -7.54083727 -0.02006363 0 0 Z " fill="#C71672" transform="translate(109.8466796875,46.86962890625)"/>
<path d="M0 0 C0.66 0.66 1.32 1.32 2 2 C2.65613281 2.27070312 3.31226563 2.54140625 3.98828125 2.8203125 C6.70201024 4.41166426 7.12507203 5.95223897 8.1875 8.875 C8.67283203 10.17050781 8.67283203 10.17050781 9.16796875 11.4921875 C10.72953431 16.19887806 11.19667804 20.49454852 11.31640625 25.44921875 C11.33718735 26.18010208 11.35796844 26.91098541 11.37937927 27.66401672 C11.42258556 29.21646508 11.46363455 30.76897476 11.50268555 32.3215332 C11.56115878 34.63444803 11.62663048 36.94707598 11.69335938 39.25976562 C11.90604142 46.93855267 12.04261382 54.61503419 12.05859375 62.296875 C12.06113663 62.9902446 12.0636795 63.6836142 12.06629944 64.397995 C12.06108979 69.34195351 11.71112464 74.11101808 11 79 C10.67 79 10.34 79 10 79 C9.97308315 76.54159395 9.95320198 74.08348118 9.9375 71.625 C9.92912109 70.92632812 9.92074219 70.22765625 9.91210938 69.5078125 C9.88671875 64.2265625 9.88671875 64.2265625 11 62 C10.34 62 9.68 62 9 62 C8.77737394 59.91814549 8.57242074 57.83439574 8.375 55.75 C8.25898438 54.58984375 8.14296875 53.4296875 8.0234375 52.234375 C8.00044405 49.06127909 8.30294846 47.61682756 10 45 C9.01 44.67 8.02 44.34 7 44 C6.22680522 40.21993665 5.99237563 37.68542065 7 34 C7.25963492 32.46317106 7.48845319 30.92084405 7.6875 29.375 C7.79449219 28.59898438 7.90148437 27.82296875 8.01171875 27.0234375 C8.2357383 24.76707178 8.2357383 24.76707178 6 23 C5.8046875 20.8359375 5.8046875 20.8359375 5.875 18.375 C5.89304688 17.55773437 5.91109375 16.74046875 5.9296875 15.8984375 C5.95289063 15.27195312 5.97609375 14.64546875 6 14 C5.030625 13.731875 4.06125 13.46375 3.0625 13.1875 C2.051875 12.795625 1.04125 12.40375 0 12 C-0.33 11.01 -0.66 10.02 -1 9 C-0.01 8.67 0.98 8.34 2 8 C0.88145414 4.27385847 0.88145414 4.27385847 -2 2 C-1.34 2 -0.68 2 0 2 C0 1.34 0 0.68 0 0 Z " fill="#CA1D98" transform="translate(186,51)"/>
<path d="M0 0 C0.66 0 1.32 0 2 0 C2.20302734 0.92619141 2.20302734 0.92619141 2.41015625 1.87109375 C4.45477203 9.91488159 7.7491659 16.10115038 14.7265625 20.859375 C23.60425864 25.88448602 30.9124894 26.89356001 41 25 C46.50749402 22.72739094 51.29618877 19.628344 56 16 C55.55990957 20.57694047 55.55990957 20.57694047 54 23 C50.46891182 24.83053344 46.79890896 25.8658153 43 27 C42.505 27.495 42.505 27.495 42 28 C38.96660039 28.25228862 35.91763947 28.18523613 32.875 28.1875 C32.03195313 28.19974609 31.18890625 28.21199219 30.3203125 28.22460938 C23.79467192 28.23980885 18.55945323 27.70630216 13 24 C13 24.66 13 25.32 13 26 C11.02 26.33 9.04 26.66 7 27 C7 24.36 7 21.72 7 19 C4.36 18.67 1.72 18.34 -1 18 C-1.3690205 8.58997722 -1.3690205 8.58997722 1 4 C0.34 3.67 -0.32 3.34 -1 3 C-0.67 2.01 -0.34 1.02 0 0 Z M1 11 C0.67 11.66 0.34 12.32 0 13 C0.66 13 1.32 13 2 13 C1.67 12.34 1.34 11.68 1 11 Z " fill="#E15259" transform="translate(81,117)"/>
<path d="M0 0 C0.99 0 1.98 0 3 0 C3.2475 0.763125 3.495 1.52625 3.75 2.3125 C4.75142107 5.10280303 4.75142107 5.10280303 7.04776001 6.28445435 C9 8 9 8 9.49447632 10.75680542 C9.49020126 12.42962082 9.49020126 12.42962082 9.48583984 14.13623047 C9.4919931 15.40119354 9.49814636 16.66615662 9.50448608 17.9694519 C9.49068668 19.35203778 9.47615244 20.73461648 9.4609375 22.1171875 C9.45855242 23.53581576 9.45764789 24.95444722 9.4581604 26.37307739 C9.45503175 29.34738933 9.43846639 32.32121946 9.41162109 35.29541016 C9.37770271 39.10076866 9.36999078 42.90559623 9.37151146 46.71108818 C9.37096641 49.64170363 9.35997672 52.57220389 9.34550858 55.50278091 C9.33915972 56.90534722 9.33520617 58.30792655 9.33372116 59.71050644 C9.32936446 61.67537904 9.31024782 63.640202 9.29052734 65.60498047 C9.28290375 66.72178192 9.27528015 67.83858337 9.26742554 68.98922729 C8.99714933 72.03209388 8.28721211 74.24645514 7 77 C6.34 75.68 5.68 74.36 5 73 C5.33 73 5.66 73 6 73 C6.33 54.19 6.66 35.38 7 16 C4.69 16 2.38 16 0 16 C0.12568359 14.89591797 0.12568359 14.89591797 0.25390625 13.76953125 C0.40666016 12.30580078 0.40666016 12.30580078 0.5625 10.8125 C0.66691406 9.84957031 0.77132812 8.88664062 0.87890625 7.89453125 C0.99758751 5.05766623 0.67765639 2.74576329 0 0 Z " fill="#D81169" transform="translate(154,72)"/>
<path d="M0 0 C0.99 0 1.98 0 3 0 C3 0.99 3 1.98 3 3 C1.71531961 3.6392371 0.42161893 4.26033982 -0.875 4.875 C-1.59429687 5.22304687 -2.31359375 5.57109375 -3.0546875 5.9296875 C-13.38497016 9.6836629 -23.86702503 9.26161571 -34.6953125 9.1953125 C-36.49705853 9.19157617 -38.29880662 9.18873213 -40.10055542 9.18673706 C-44.8121515 9.17914942 -49.52362167 9.15954347 -54.23516846 9.1373291 C-59.05519915 9.11676505 -63.87525046 9.10771289 -68.6953125 9.09765625 C-78.13026325 9.07629239 -87.5651211 9.04221615 -97 9 C-97 8.67 -97 8.34 -97 8 C-95.76435303 7.97494385 -94.52870605 7.9498877 -93.25561523 7.92407227 C-88.65037514 7.82956148 -84.04527061 7.72944911 -79.44018555 7.62768555 C-77.4509601 7.58450129 -75.46170152 7.5428153 -73.47241211 7.50268555 C-70.60520463 7.44458102 -67.7381614 7.38100445 -64.87109375 7.31640625 C-63.54723915 7.29133751 -63.54723915 7.29133751 -62.19664001 7.26576233 C-57.37881708 7.15141312 -52.77475699 6.69608577 -48 6 C-45.58565127 5.92276077 -43.16946793 5.89197653 -40.75390625 5.90234375 C-40.09792953 5.9037587 -39.44195282 5.90517365 -38.76609802 5.90663147 C-36.69818298 5.91216969 -34.63038158 5.92470998 -32.5625 5.9375 C-31.14909012 5.94252301 -29.73567852 5.9470845 -28.32226562 5.95117188 C-24.88147432 5.96211874 -21.44074828 5.97933962 -18 6 C-18 5.34 -18 4.68 -18 4 C-13.25 3.875 -13.25 3.875 -11 5 C-8.83239865 4.5315552 -8.83239865 4.5315552 -6.5 3.6875 C-5.7059375 3.42324219 -4.911875 3.15898437 -4.09375 2.88671875 C-1.83388609 2.08413056 -1.83388609 2.08413056 0 0 Z " fill="#DD904D" transform="translate(168,188)"/>
<path d="M0 0 C3.875 0.9375 3.875 0.9375 5.875 3.9375 C6.3125 7.375 6.3125 7.375 5.875 10.9375 C3.8125 13.4375 3.8125 13.4375 0.875 14.9375 C-2.96250808 14.9375 -5.16039965 14.75138154 -8.125 12.25 C-9.5190902 9.02616642 -9.16505473 7.26567512 -8.125 3.9375 C-5.81130053 0.32812883 -4.12471392 -0.35932172 0 0 Z " fill="#F6F9F9" transform="translate(147.125,72.0625)"/>
<path d="M0 0 C0.99 0.33 1.98 0.66 3 1 C2.9592334 1.57443848 2.9184668 2.14887695 2.87646484 2.74072266 C2.69699791 5.3681398 2.53586126 7.9963808 2.375 10.625 C2.31054688 11.52863281 2.24609375 12.43226562 2.1796875 13.36328125 C1.88582543 18.39566926 1.94225686 22.27190317 4 27 C3.34 27.33 2.68 27.66 2 28 C1.67 28.99 1.34 29.98 1 31 C1.99 31 2.98 31 4 31 C4 33.97 4 36.94 4 40 C3.01 40 2.02 40 1 40 C1.4056427 42.92062741 1.70382375 44.64686678 3.625 46.9375 C5.57714659 49.86571989 4.59068292 51.58716537 4 55 C4.37854566 57.08370586 4.37854566 57.08370586 5 59.1875 C6 63 6 63 5 66 C4.35089846 64.41800369 3.70585306 62.83434276 3.0625 61.25 C2.70285156 60.36828125 2.34320312 59.4865625 1.97265625 58.578125 C-2.83006955 45.84800842 -1.03778487 30.37838892 -0.5625 17 C-0.50907813 15.33856363 -0.45634049 13.67710511 -0.40429688 12.015625 C-0.27737798 8.01011873 -0.14134241 4.00502216 0 0 Z " fill="#F0953E" transform="translate(28,104)"/>
<path d="M0 0 C1.84174805 -0.01063477 1.84174805 -0.01063477 3.72070312 -0.02148438 C9.28341174 0.1650988 14.69406533 1.02981142 20.15625 2.09375 C19.16625 2.42375 18.17625 2.75375 17.15625 3.09375 C17.15625 3.75375 17.15625 4.41375 17.15625 5.09375 C14.94819476 5.1481952 12.73974446 5.18674283 10.53125 5.21875 C9.30148438 5.24195313 8.07171875 5.26515625 6.8046875 5.2890625 C3.21308959 5.0967928 0.48963825 4.39633556 -2.84375 3.09375 C-3.17375 3.75375 -3.50375 4.41375 -3.84375 5.09375 C-4.50375 5.09375 -5.16375 5.09375 -5.84375 5.09375 C-6.50375 4.43375 -7.16375 3.77375 -7.84375 3.09375 C-10.39134247 2.76189656 -10.39134247 2.76189656 -13.39501953 2.77490234 C-14.55607208 2.75503265 -15.71712463 2.73516296 -16.9133606 2.71469116 C-18.80089554 2.69736435 -18.80089554 2.69736435 -20.7265625 2.6796875 C-22.01110321 2.66032135 -23.29564392 2.6409552 -24.61911011 2.6210022 C-28.03522535 2.56961059 -31.45138007 2.53002286 -34.86767578 2.49285889 C-38.35328999 2.45286302 -41.83873903 2.40175062 -45.32421875 2.3515625 C-52.1639419 2.25472025 -59.00377096 2.1703422 -65.84375 2.09375 C-65.84375 1.76375 -65.84375 1.43375 -65.84375 1.09375 C-58.17980927 0.94911115 -50.51582465 0.80698781 -42.85180664 0.66650391 C-40.25186134 0.61856234 -37.65192607 0.57007302 -35.05200195 0.52099609 C-10.13029453 0.05122742 -10.13029453 0.05122742 0 0 Z " fill="#BE2788" transform="translate(135.84375,26.90625)"/>
<path d="M0 0 C-1.7015625 0.14695312 -1.7015625 0.14695312 -3.4375 0.296875 C-14.84321268 1.17903025 -14.84321268 1.17903025 -25 6 C-25.91458984 6.61488281 -25.91458984 6.61488281 -26.84765625 7.2421875 C-32.05962328 11.15946209 -34.46689367 16.09330967 -37 22 C-37.95821359 18.62103629 -38.01444422 16.41222148 -37 13 C-36.34 12.67 -35.68 12.34 -35 12 C-34.67 11.01 -34.34 10.02 -34 9 C-33.34 9.33 -32.68 9.66 -32 10 C-32.33 9.01 -32.66 8.02 -33 7 C-33.03954234 4.66700175 -33.04401732 2.33291811 -33 0 C-30 1 -30 1 -29 2 C-28.67 1.34 -28.34 0.68 -28 0 C-24.125 0.875 -24.125 0.875 -23 2 C-22.67 1.01 -22.34 0.02 -22 -1 C-4.98353805 -2.72318602 -4.98353805 -2.72318602 0 0 Z " fill="#EF0A64" transform="translate(121,81)"/>
<path d="M0 0 C0.66 0 1.32 0 2 0 C2.64910154 1.58199631 3.29414694 3.16565724 3.9375 4.75 C4.29714844 5.63171875 4.65679687 6.5134375 5.02734375 7.421875 C6.80395655 12.13096917 7.19523311 16.43475348 7.31640625 21.44921875 C7.33718735 22.18010208 7.35796844 22.91098541 7.37937927 23.66401672 C7.42258556 25.21646508 7.46363455 26.76897476 7.50268555 28.3215332 C7.56115878 30.63444803 7.62663048 32.94707598 7.69335938 35.25976562 C7.90604142 42.93855267 8.04261382 50.61503419 8.05859375 58.296875 C8.06113663 58.9902446 8.0636795 59.6836142 8.06629944 60.397995 C8.06108979 65.34195351 7.71112464 70.11101808 7 75 C6.67 75 6.34 75 6 75 C5.97308315 72.54159395 5.95320198 70.08348118 5.9375 67.625 C5.92912109 66.92632812 5.92074219 66.22765625 5.91210938 65.5078125 C5.88671875 60.2265625 5.88671875 60.2265625 7 58 C6.34 58 5.68 58 5 58 C4.80606125 55.85473901 4.62001324 53.70876323 4.4375 51.5625 C4.33308594 50.36753906 4.22867188 49.17257813 4.12109375 47.94140625 C4.08113281 46.97074219 4.04117188 46.00007813 4 45 C4.495 44.505 4.495 44.505 5 44 C6.13923448 29.30387525 5.85685686 13.72541672 0 0 Z " fill="#A82070" transform="translate(190,55)"/>
<path d="M0 0 C0.495 0.99 0.495 0.99 1 2 C1.99 1.34 2.98 0.68 4 0 C6 0 8 0 10 0 C10 1.98 10 3.96 10 6 C8.22868439 5.69024532 6.45796222 5.37709575 4.6875 5.0625 C3.70136719 4.88847656 2.71523437 4.71445312 1.69921875 4.53515625 C-1 4 -1 4 -4 3 C-6.03904091 2.88279191 -8.08157182 2.82321157 -10.1237793 2.79467773 C-11.38486008 2.77473251 -12.64594086 2.75478729 -13.94523621 2.73423767 C-15.32156247 2.71725467 -16.69789002 2.70037581 -18.07421875 2.68359375 C-19.48241275 2.66301803 -20.89060065 2.6420214 -22.29878235 2.62062073 C-26.00260481 2.56546378 -29.70648241 2.51602646 -33.41040039 2.46777344 C-37.19096782 2.41751179 -40.97145529 2.36185008 -44.75195312 2.30664062 C-52.16790102 2.19913708 -59.58391545 2.09767486 -67 2 C-67 1.67 -67 1.34 -67 1 C-59.38691046 0.85601175 -51.77378931 0.71379137 -44.16064453 0.57275391 C-41.57502509 0.52465086 -38.98941292 0.47615495 -36.40380859 0.42724609 C-32.67026623 0.35669323 -28.93669928 0.28759065 -25.203125 0.21875 C-24.06200256 0.19687622 -22.92088013 0.17500244 -21.74517822 0.15246582 C-14.49588997 0.020552 -7.25044116 -0.02580447 0 0 Z " fill="#DA4AA1" transform="translate(150,48)"/>
<path d="M0 0 C0.33 0.66 0.66 1.32 1 2 C0.319375 3.2065625 0.319375 3.2065625 -0.375 4.4375 C-2.56131206 9.23056874 -2.73104702 13.78787676 -3 19 C-2.34 19 -1.68 19 -1 19 C-1 19.66 -1 20.32 -1 21 C0.32 21.33 1.64 21.66 3 22 C3 22.66 3 23.32 3 24 C3.66 25.65 4.32 27.3 5 29 C8.63 29 12.26 29 16 29 C15.67 29.66 15.34 30.32 15 31 C16.32 31.33 17.64 31.66 19 32 C19 31.34 19 30.68 19 30 C22.465 29.505 22.465 29.505 26 29 C23.485961 31.75347128 21.59221693 32.82748627 17.80078125 33.23828125 C11.60663348 33.42303605 7.11173157 32.61735065 2 29 C-2.66204277 24.46395839 -4.580391 18.88481186 -5.5 12.5625 C-4.81434055 7.67717639 -2.61696269 4.12171623 0 0 Z " fill="#DB3560" transform="translate(98,99)"/>
<path d="M0 0 C0.33 0 0.66 0 1 0 C1.11649449 8.65873657 1.20501633 17.31719822 1.25906086 25.97655106 C1.28501615 29.99864888 1.32015138 34.02020565 1.37719727 38.04199219 C1.4320266 41.93241343 1.46152595 45.82231845 1.47438622 49.71309662 C1.48353587 51.18811913 1.50139999 52.66311741 1.52865028 54.13791656 C1.69550011 63.55314246 0.88959651 71.70196963 -4 80 C-4.99 80.495 -4.99 80.495 -6 81 C-5.79375 80.0925 -5.5875 79.185 -5.375 78.25 C-4.97330224 74.76861938 -5.38250113 73.9317167 -7 71 C-6.67 70.01 -6.34 69.02 -6 68 C-4.68 68.33 -3.36 68.66 -2 69 C-0.88983656 65.66950968 -0.84147391 63.11054334 -0.79467773 59.60083008 C-0.78477814 58.95665634 -0.77487854 58.3124826 -0.76467896 57.64878845 C-0.73312533 55.5224066 -0.70833095 53.39600242 -0.68359375 51.26953125 C-0.66301891 49.79407678 -0.6420223 48.31862814 -0.62062073 46.84318542 C-0.56545474 42.96180949 -0.51602138 39.08038085 -0.46777344 35.19891357 C-0.41751842 31.23737909 -0.36185324 27.27592106 -0.30664062 23.31445312 C-0.19912601 15.54303351 -0.09766623 7.77155028 0 0 Z " fill="#FEE8F7" transform="translate(174,78)"/>
<path d="M0 0 C0.33 0 0.66 0 1 0 C1.06058594 0.74765625 1.12117187 1.4953125 1.18359375 2.265625 C1.26738281 3.25046875 1.35117188 4.2353125 1.4375 5.25 C1.51871094 6.22453125 1.59992188 7.1990625 1.68359375 8.203125 C1.90990001 10.8706288 1.90990001 10.8706288 2.52514648 12.87426758 C3.06434446 15.28804485 3.03575984 17.33977329 2.9140625 19.80859375 C2.87023437 20.72060547 2.82640625 21.63261719 2.78125 22.57226562 C2.7296875 23.51779297 2.678125 24.46332031 2.625 25.4375 C2.58117187 26.37916016 2.53734375 27.32082031 2.4921875 28.29101562 C2.2714622 32.63501207 1.92906981 36.74136797 1 41 C0.34 41 -0.32 41 -1 41 C-1.33 41.66 -1.66 42.32 -2 43 C-2.625 39.625 -2.625 39.625 -3 36 C-2.34 35.34 -1.68 34.68 -1 34 C-0.53709779 31.33757179 -0.53709779 31.33757179 -0.375 28.375 C-0.30023438 27.37210938 -0.22546875 26.36921875 -0.1484375 25.3359375 C-0.09945312 24.56507813 -0.05046875 23.79421875 0 23 C-0.66 23 -1.32 23 -2 23 C-1.34 19.37 -0.68 15.74 0 12 C-0.66 12 -1.32 12 -2 12 C-2.33 12.66 -2.66 13.32 -3 14 C-2.67 12.35 -2.34 10.7 -2 9 C-1.34 9 -0.68 9 0 9 C-0.33 8.34 -0.66 7.68 -1 7 C-1.99 7.495 -1.99 7.495 -3 8 C-2.67 6.68 -2.34 5.36 -2 4 C-1.34 4.33 -0.68 4.66 0 5 C-0.2784375 4.0409375 -0.2784375 4.0409375 -0.5625 3.0625 C-0.706875 2.381875 -0.85125 1.70125 -1 1 C-0.67 0.67 -0.34 0.34 0 0 Z " fill="#DC135C" transform="translate(195,119)"/>
<path d="M0 0 C0.99 0.33 1.98 0.66 3 1 C2.67 2.65 2.34 4.3 2 6 C1.01 6.33 0.02 6.66 -1 7 C-0.01 7.33 0.98 7.66 2 8 C2 8.66 2 9.32 2 10 C1.34 10 0.68 10 0 10 C0 10.99 0 11.98 0 13 C-1.32 13 -2.64 13 -4 13 C-4.13277344 13.62648438 -4.26554687 14.25296875 -4.40234375 14.8984375 C-4.66724609 16.12433594 -4.66724609 16.12433594 -4.9375 17.375 C-5.11152344 18.18710938 -5.28554688 18.99921875 -5.46484375 19.8359375 C-6 22 -6 22 -7 24 C-6.34 24 -5.68 24 -5 24 C-5.66 26.31 -6.32 28.62 -7 31 C-9.39818933 28.60181067 -9.32114553 27.97800829 -9.375 24.6875 C-9.21865633 16.41331171 -6.68424952 7.84810232 -2 1 C-1.34 0.67 -0.68 0.34 0 0 Z " fill="#E40E5D" transform="translate(37,51)"/>
<path d="M0 0 C0.66 0 1.32 0 2 0 C3.33583899 4.84241633 4.25328119 8.93437617 4 14 C4.66 14 5.32 14 6 14 C7.7265625 15.86328125 7.7265625 15.86328125 9.625 18.3125 C10.25664063 19.11300781 10.88828125 19.91351563 11.5390625 20.73828125 C13 23 13 23 13 26 C11.02 26.33 9.04 26.66 7 27 C7 24.36 7 21.72 7 19 C4.36 18.67 1.72 18.34 -1 18 C-1.3690205 8.58997722 -1.3690205 8.58997722 1 4 C0.34 3.67 -0.32 3.34 -1 3 C-0.67 2.01 -0.34 1.02 0 0 Z M1 11 C0.67 11.66 0.34 12.32 0 13 C0.66 13 1.32 13 2 13 C1.67 12.34 1.34 11.68 1 11 Z " fill="#F14951" transform="translate(81,117)"/>
<path d="M0 0 C5 1.66666667 10 3.33333333 15 5 C15.33 7.31 15.66 9.62 16 12 C18.31 12 20.62 12 23 12 C23 12.99 23 13.98 23 15 C22.01 15.33 21.02 15.66 20 16 C20.66 16.66 21.32 17.32 22 18 C22.625 20.625 22.625 20.625 23 23 C22.01 23 21.02 23 20 23 C19.67128906 22.29875 19.34257812 21.5975 19.00390625 20.875 C14.92885041 12.74697534 10.07209887 7.02471156 2.22265625 2.34375 C1.48917969 1.9003125 0.75570312 1.456875 0 1 C0 0.67 0 0.34 0 0 Z " fill="#BF2285" transform="translate(153,52)"/>
<path d="M0 0 C2.31 0.33 4.62 0.66 7 1 C5.86932569 3.67250291 4.65505994 5.38223088 2.6875 7.5625 C-0.3751323 11.10536755 -2.04960858 15.14143494 -3.88671875 19.4140625 C-4.85184944 21.65587483 -5.8845029 23.83012892 -7 26 C-8.65138672 21.04583985 -8.51244165 16.0497666 -7.25 11 C-6 9 -6 9 -4 8.4375 C-3.34 8.293125 -2.68 8.14875 -2 8 C0.02755186 5.06004981 0 3.72295997 0 0 Z " fill="#DF115F" transform="translate(56,56)"/>
<path d="M0 0 C5.19209404 -0.21192221 9.126739 0.4087311 14 2 C14 2.66 14 3.32 14 4 C14.639375 4.12375 15.27875 4.2475 15.9375 4.375 C16.9584375 4.684375 16.9584375 4.684375 18 5 C18.33 5.66 18.66 6.32 19 7 C21.01669827 8.13350534 21.01669827 8.13350534 23 9 C20.35261084 10.4606285 19.10551666 11 16 11 C13.99690671 11.31421071 11.99628664 11.6451046 10 12 C10 9.36 10 6.72 10 4 C8.35 4 6.7 4 5 4 C4.67 3.34 4.34 2.68 4 2 C1.98330173 0.86649466 1.98330173 0.86649466 0 0 Z " fill="#C31D9B" transform="translate(150,28)"/>
<path d="M0 0 C1.0625 1.875 1.0625 1.875 2 4 C1.67 4.66 1.34 5.32 1 6 C0.89838641 7.96965481 0.86159163 9.94277681 0.85473633 11.91503906 C0.84835648 13.15682922 0.84197662 14.39861938 0.83540344 15.67803955 C0.83387433 17.04056764 0.8327606 18.40309625 0.83203125 19.765625 C0.82881801 21.16086868 0.82545389 22.55611201 0.82194519 23.95135498 C0.81595103 26.88017558 0.81410546 29.80896667 0.81469727 32.73779297 C0.81479863 36.48137263 0.80117482 40.22476151 0.78392506 43.96829605 C0.772774 46.85258849 0.77077905 49.73683537 0.77130699 52.62114716 C0.77013046 54.00057378 0.7657271 55.38000171 0.75797462 56.75940704 C0.74811745 58.6953739 0.75233174 60.63139669 0.75708008 62.56738281 C0.75565506 63.66721497 0.75423004 64.76704712 0.75276184 65.90020752 C0.87647358 69.06303691 0.87647358 69.06303691 2.0776825 72.15203857 C3.01844515 75.05695552 3.07359792 76.20864542 2 79 C-1.39354563 70.89020993 -1.40661127 63.21315111 -1.328125 54.5703125 C-1.32506153 53.08820793 -1.32318989 51.60610047 -1.32244873 50.12399292 C-1.31787219 47.0359983 -1.30354253 43.94826834 -1.28125 40.86035156 C-1.25282042 36.90260655 -1.24202048 32.94506777 -1.2375679 28.9872303 C-1.23341479 25.93492579 -1.22360061 22.88266281 -1.21169281 19.83037949 C-1.20600042 18.37033289 -1.20123833 16.91028236 -1.19742584 15.45022964 C-1.19055701 13.4161769 -1.17602621 11.38215435 -1.16113281 9.34814453 C-1.15430481 8.19170441 -1.14747681 7.03526428 -1.14044189 5.84378052 C-1 3 -1 3 0 0 Z " fill="#FEF2E4" transform="translate(51,75)"/>
<path d="M0 0 C16.17 0 32.34 0 49 0 C49 0.33 49 0.66 49 1 C43.49983036 2.30267176 38.52967941 1.71033431 33 1 C33 1.66 33 2.32 33 3 C32.34 3 31.68 3 31 3 C31 2.34 31 1.68 31 1 C30.34 1 29.68 1 29 1 C28.67 1.66 28.34 2.32 28 3 C28 2.34 28 1.68 28 1 C26.54119891 1.14107747 25.08296449 1.28802415 23.625 1.4375 C22.81289062 1.51871094 22.00078125 1.59992187 21.1640625 1.68359375 C18.95727195 1.89090114 18.95727195 1.89090114 17 3 C14.9765625 3.16796875 14.9765625 3.16796875 12.625 3.1875 C11.85414062 3.20167969 11.08328125 3.21585938 10.2890625 3.23046875 C7.78165112 2.97801607 6.16738098 2.25193467 4 1 C4 1.66 4 2.32 4 3 C2.68 3 1.36 3 0 3 C0 2.01 0 1.02 0 0 Z " fill="#D01581" transform="translate(69,29)"/>
<path d="M0 0 C1.65 0 3.3 0 5 0 C4.34 2.31 3.68 4.62 3 7 C2.401875 6.773125 1.80375 6.54625 1.1875 6.3125 C-1.01209262 5.75269413 -1.01209262 5.75269413 -2.625 7.0625 C-4.20408109 9.04791892 -4.20408109 9.04791892 -4.8125 12.0625 C-6 15 -6 15 -9.125 16.375 C-10.07375 16.58125 -11.0225 16.7875 -12 17 C-11.32902328 12.80639551 -9.1441606 9.59665648 -7 6 C-5.68 6 -4.36 6 -3 6 C-3 4.68 -3 3.36 -3 2 C-2.01 2 -1.02 2 0 2 C0 1.34 0 0.68 0 0 Z " fill="#F40765" transform="translate(76,65)"/>
<path d="M0 0 C7.99742758 -0.04639056 15.99479871 -0.08190327 23.99232769 -0.10362434 C27.7061152 -0.11405065 31.41981048 -0.12818869 35.13354492 -0.15087891 C38.71914893 -0.17264856 42.30466435 -0.1845773 45.89032936 -0.18975449 C47.25663459 -0.19344285 48.6229351 -0.20064534 49.9892025 -0.21146011 C51.90640895 -0.22602896 53.823705 -0.22681738 55.7409668 -0.22705078 C56.83128708 -0.231492 57.92160736 -0.23593323 59.04496765 -0.24050903 C62.07345747 0.00597868 64.26132102 0.71974491 67 2 C65.3125 3.125 65.3125 3.125 63 4 C62.24216217 3.6920752 61.48432434 3.38415039 60.70352173 3.06689453 C57.71812537 1.88876342 55.62705215 1.7697078 52.43115234 1.8046875 C50.7945314 1.81459717 50.7945314 1.81459717 49.12484741 1.82470703 C47.37308701 1.84960205 47.37308701 1.84960205 45.5859375 1.875 C44.37934479 1.88257324 43.17275208 1.89014648 41.92959595 1.89794922 C38.07791863 1.92237168 34.22654133 1.95963954 30.375 2 C25.29948746 2.05304094 20.22412188 2.0930916 15.1484375 2.125 C13.97654877 2.14159668 12.80466003 2.15819336 11.59725952 2.17529297 C10.51248322 2.18189941 9.42770691 2.18850586 8.31005859 2.1953125 C7.35473236 2.20578613 6.39940613 2.21625977 5.41513062 2.22705078 C3 2 3 2 0 0 Z " fill="#C9176C" transform="translate(82,62)"/>
<path d="M0 0 C1.30310976 3.90932927 0.41923843 4.92180986 -1.375 8.5625 C-6.0222109 17.46875569 -12.41298142 24.74264169 -21 30 C-21.66 30 -22.32 30 -23 30 C-23 29.34 -23 28.68 -23 28 C-18.61538462 25 -18.61538462 25 -16 25 C-16 24.34 -16 23.68 -16 23 C-15.34 23 -14.68 23 -14 23 C-13.67 22.01 -13.34 21.02 -13 20 C-11.8553125 18.88625 -11.8553125 18.88625 -10.6875 17.75 C-6.21785188 13.17640657 -3.80163733 8.15559422 -2 2 C-1.34 2 -0.68 2 0 2 C0 1.34 0 0.68 0 0 Z " fill="#CE404F" transform="translate(194,160)"/>
<path d="M0 0 C0.94875 0.04125 1.8975 0.0825 2.875 0.125 C2.875 2.105 2.875 4.085 2.875 6.125 C3.62595947 6.11976318 4.37691895 6.11452637 5.15063477 6.10913086 C8.57958121 6.08824039 12.00851421 6.07530155 15.4375 6.0625 C16.61892578 6.05412109 17.80035156 6.04574219 19.01757812 6.03710938 C24.74363072 6.02107001 30.23894482 6.0739295 35.875 7.125 C35.875 7.455 35.875 7.785 35.875 8.125 C31.26694479 8.24894421 26.65986719 8.33949675 22.05053711 8.3996582 C20.48395886 8.42474547 18.91749701 8.45882415 17.35131836 8.50219727 C15.09459691 8.56311226 12.83942706 8.59126499 10.58203125 8.61328125 C9.88600296 8.63908768 9.18997467 8.6648941 8.47285461 8.69148254 C4.54057895 8.69373156 3.07292549 8.29982121 0.08081055 5.65698242 C-0.64710693 4.82142822 -1.37502441 3.98587402 -2.125 3.125 C-3.115 2.795 -4.105 2.465 -5.125 2.125 C-3.125 0.125 -3.125 0.125 0 0 Z " fill="#F77643" transform="translate(77.125,153.875)"/>
<path d="M0 0 C0.99 0.33 1.98 0.66 3 1 C2.9592334 1.57443848 2.9184668 2.14887695 2.87646484 2.74072266 C2.69699791 5.3681398 2.53586126 7.9963808 2.375 10.625 C2.31054688 11.52863281 2.24609375 12.43226562 2.1796875 13.36328125 C1.88582543 18.39566926 1.94225686 22.27190317 4 27 C3.34 27.33 2.68 27.66 2 28 C1.34227572 31.02934491 1.34227572 31.02934491 1 34 C0.67 34 0.34 34 0 34 C0 22.78 0 11.56 0 0 Z " fill="#EC614D" transform="translate(28,104)"/>
<path d="M0 0 C0.66 0 1.32 0 2 0 C2.33 0.99 2.66 1.98 3 3 C2.01 3 1.02 3 0 3 C-0.07427838 6.34252724 -0.06546953 8.8035914 1 12 C3.31 12 5.62 12 8 12 C8.66 8.7 9.32 5.4 10 2 C10.66 2.33 11.32 2.66 12 3 C12.3125 6.25 12.3125 6.25 12 10 C9.9375 12.5 9.9375 12.5 7 14 C3.16249192 14 0.96460035 13.81388154 -2 11.3125 C-3.36578847 8.15411416 -2.9064047 6.27700161 -2 3 C-1.34 2.01 -0.68 1.02 0 0 Z " fill="#FED8F5" transform="translate(141,73)"/>
<path d="M0 0 C1.8046875 0.1640625 1.8046875 0.1640625 4 1 C5.6328125 3.3984375 5.6328125 3.3984375 7.125 6.375 C8.65557985 9.38064643 10.12656856 12.18985284 12 15 C10.0625 14.625 10.0625 14.625 8 14 C7.67 13.34 7.34 12.68 7 12 C4.67843403 11.59270772 2.3431213 11.25561323 0 11 C0.66 10.34 1.32 9.68 2 9 C2.99 9 3.98 9 5 9 C5 8.34 5 7.68 5 7 C3.68 7.33 2.36 7.66 1 8 C0.02391783 5.07175348 -0.08226668 3.04386724 0 0 Z " fill="#ED9947" transform="translate(48,149)"/>
<path d="M0 0 C9.23015944 -0.24908976 17.91921505 0.31055164 27 2 C26.62875 2.5775 26.2575 3.155 25.875 3.75 C24.70833333 6 24.70833333 6 25.875 8.25 C26.24625 8.8275 26.6175 9.405 27 10 C26.16855469 9.50628906 25.33710938 9.01257813 24.48046875 8.50390625 C23.39378906 7.86324219 22.30710938 7.22257812 21.1875 6.5625 C20.10855469 5.92441406 19.02960938 5.28632812 17.91796875 4.62890625 C13.78624423 2.32244156 10.47800563 1.78866709 5.8125 1.4375 C4.72582031 1.35371094 3.63914062 1.26992187 2.51953125 1.18359375 C1.68808594 1.12300781 0.85664062 1.06242187 0 1 C0 0.67 0 0.34 0 0 Z " fill="#DA2678" transform="translate(109,81)"/>
<path d="M0 0 C2.0625 0.4375 2.0625 0.4375 4 1 C3.39809977 4.04294007 2.4634908 6.07218064 0.625 8.5625 C0.20476562 9.14128906 -0.21546875 9.72007812 -0.6484375 10.31640625 C-2.01804941 12.02248351 -3.33914088 13.57263036 -5 15 C-7.1875 14.6875 -7.1875 14.6875 -9 14 C-9 12.68 -9 11.36 -9 10 C-6.36 9.01 -3.72 8.02 -1 7 C-1.020625 6.030625 -1.04125 5.06125 -1.0625 4.0625 C-1 1 -1 1 0 0 Z " fill="#F7384C" transform="translate(185,168)"/>
<path d="M0 0 C1.98 0 3.96 0 6 0 C5.34 2.31 4.68 4.62 4 7 C4.99 7.33 5.98 7.66 7 8 C7.6875 10.0625 7.6875 10.0625 8 12 C5.69 11.67 3.38 11.34 1 11 C0.63743142 9.5437328 0.28520207 8.08488815 -0.0625 6.625 C-0.35833984 5.40683594 -0.35833984 5.40683594 -0.66015625 4.1640625 C-1 2 -1 2 0 0 Z " fill="#F8B331" transform="translate(33,160)"/>
<path d="M0 0 C0.33 0 0.66 0 1 0 C1.19920413 3.81198112 1.38220438 7.62458149 1.5625 11.4375 C1.61857422 12.50677734 1.67464844 13.57605469 1.73242188 14.67773438 C2.0193303 20.93233799 1.88028523 26.79887958 1 33 C0.67 33 0.34 33 0 33 C-0.02691685 30.54159395 -0.04679802 28.08348118 -0.0625 25.625 C-0.07506836 24.57699219 -0.07506836 24.57699219 -0.08789062 23.5078125 C-0.11328125 18.2265625 -0.11328125 18.2265625 1 16 C0.34 16 -0.32 16 -1 16 C-1.22197585 13.89722877 -1.42713637 11.79267698 -1.625 9.6875 C-1.74101562 8.51574219 -1.85703125 7.34398438 -1.9765625 6.13671875 C-2 3 -2 3 0 0 Z " fill="#C61970" transform="translate(196,97)"/>
<path d="M0 0 C0 3 0 3 -1.9375 5 C-2.618125 5.66 -3.29875 6.32 -4 7 C-4.33 7.99 -4.66 8.98 -5 10 C-5.66 10 -6.32 10 -7 10 C-7.33 10.66 -7.66 11.32 -8 12 C-9.65 12 -11.3 12 -13 12 C-10.25223721 6.50447442 -5.87619724 1.95873241 0 0 Z " fill="#FCE3F2" transform="translate(100,84)"/>
<path d="M0 0 C1.175625 0.309375 2.35125 0.61875 3.5625 0.9375 C7.36432975 1.8930401 11.11209261 2.51401158 15 3 C15 3.33 15 3.66 15 4 C2.13 4 -10.74 4 -24 4 C-24 3.67 -24 3.34 -24 3 C-16.08 2.67 -8.16 2.34 0 2 C0 1.34 0 0.68 0 0 Z " fill="#F6A93C" transform="translate(98,192)"/>
<path d="M0 0 C1.98 0 3.96 0 6 0 C4.19736955 4.86710222 0.21653164 7.54540111 -4 10.3125 C-6.71073224 11.24431421 -9.15820829 11.12917235 -12 11 C-12 10.34 -12 9.68 -12 9 C-7.545 8.505 -7.545 8.505 -3 8 C-3 7.01 -3 6.02 -3 5 C-1.68 4.34 -0.36 3.68 1 3 C0.67 2.01 0.34 1.02 0 0 Z " fill="#E33D53" transform="translate(153,151)"/>
<path d="M0 0 C1.32 0.33 2.64 0.66 4 1 C4 2.65 4 4.3 4 6 C3.01 6 2.02 6 1 6 C0.67 8.97 0.34 11.94 0 15 C-0.99 15 -1.98 15 -3 15 C-3 11.7 -3 8.4 -3 5 C-2.01 4.67 -1.02 4.34 0 4 C0 2.68 0 1.36 0 0 Z " fill="#F70C5B" transform="translate(83,88)"/>
<path d="M0 0 C0 4.68981481 0 4.68981481 -1 7 C-3.46875 8.23046875 -3.46875 8.23046875 -6.5 9.1875 C-10.03092035 10.10126987 -10.03092035 10.10126987 -13 12 C-14.99958364 12.04080783 -17.00045254 12.04254356 -19 12 C-17.63098283 9.26196565 -16.29318019 9.2440383 -13.4375 8.25 C-8.24132375 6.27620068 -4.23975254 3.55286525 0 0 Z " fill="#E23359" transform="translate(136,133)"/>
<path d="M0 0 C3 1 3 1 4.16870117 2.76196289 C5.69242183 6.86415004 5.32725127 11.10947671 5.3125 15.4375 C5.32861328 16.37916016 5.34472656 17.32082031 5.36132812 18.29101562 C5.36489305 23.34251655 5.30524918 26.8924212 2 31 C1.34 30.67 0.68 30.34 0 30 C0.2165625 29.40574219 0.433125 28.81148437 0.65625 28.19921875 C4.00219735 18.2388292 4.04004898 9.73940378 0 0 Z " fill="#D61F67" transform="translate(140,97)"/>
<path d="M0 0 C3.77729969 1.51091988 5.68679972 3.71276362 8.1875 6.875 C9.22970703 8.17050781 9.22970703 8.17050781 10.29296875 9.4921875 C11.85244234 11.78322193 12.5789823 13.29794608 13 16 C11.68 15.67 10.36 15.34 9 15 C9 14.34 9 13.68 9 13 C7.67732273 11.98594743 6.34275169 10.98731742 5 10 C3.20027015 7.30040523 2.74740613 5.98962454 2 3 C1.34 2.01 0.68 1.02 0 0 Z " fill="#B93593" transform="translate(178,39)"/>
<path d="M0 0 C2.67859172 3.23425703 3.57959859 5.39623959 3.42578125 9.703125 C2.59621235 14.17823062 0.49337115 18.22131358 -2 22 C-2.99 22.66 -3.98 23.32 -5 24 C-5 23.01 -5 22.02 -5 21 C-4.34 20.67 -3.68 20.34 -3 20 C-2.63451555 18.67511887 -2.3062434 17.33981486 -2 16 C-1.66226563 15.42378906 -1.32453125 14.84757812 -0.9765625 14.25390625 C0.29887474 11.3101971 0.19444594 8.94451325 0.125 5.75 C0.10695312 4.67234375 0.08890625 3.5946875 0.0703125 2.484375 C0.04710937 1.66453125 0.02390625 0.8446875 0 0 Z " fill="#D92766" transform="translate(130,104)"/>
<path d="M0 0 C1.22203125 0.07863281 2.4440625 0.15726563 3.703125 0.23828125 C6.75 0.6875 6.75 0.6875 8.75 2.6875 C3.125 3.8125 3.125 3.8125 -0.25 2.6875 C-0.58 3.3475 -0.91 4.0075 -1.25 4.6875 C-1.91 4.6875 -2.57 4.6875 -3.25 4.6875 C-3.91 4.0275 -4.57 3.3675 -5.25 2.6875 C-7.46072977 2.44496187 -7.46072977 2.44496187 -9.875 2.5625 C-11.10089844 2.58957031 -11.10089844 2.58957031 -12.3515625 2.6171875 C-13.29128906 2.65199219 -13.29128906 2.65199219 -14.25 2.6875 C-13.92 2.0275 -13.59 1.3675 -13.25 0.6875 C-8.75385846 -0.42307388 -4.59681445 -0.32764529 0 0 Z " fill="#BC1F8D" transform="translate(133.25,27.3125)"/>
<path d="M0 0 C-1.73636719 0.18175781 -1.73636719 0.18175781 -3.5078125 0.3671875 C-5.04691292 0.53611316 -6.58597337 0.70540332 -8.125 0.875 C-9.26582031 0.99294922 -9.26582031 0.99294922 -10.4296875 1.11328125 C-14.85959721 1.60973665 -18.80211971 2.40400079 -23 4 C-22.67 2.35 -22.34 0.7 -22 -1 C-4.98353805 -2.72318602 -4.98353805 -2.72318602 0 0 Z " fill="#DC1268" transform="translate(121,81)"/>
<path d="M0 0 C0 0.99 0 1.98 0 3 C-4.29605732 3.82222554 -8.33966603 4.11770795 -12.7109375 4.09765625 C-13.95488281 4.09443359 -15.19882813 4.09121094 -16.48046875 4.08789062 C-17.76566406 4.07951172 -19.05085937 4.07113281 -20.375 4.0625 C-21.68339844 4.05798828 -22.99179688 4.05347656 -24.33984375 4.04882812 C-27.55994281 4.03707594 -30.7799477 4.02064543 -34 4 C-34 3.67 -34 3.34 -34 3 C-33.0255896 2.970271 -33.0255896 2.970271 -32.03149414 2.93994141 C-29.04147478 2.84372067 -26.05206352 2.73444101 -23.0625 2.625 C-22.04091797 2.5940625 -21.01933594 2.563125 -19.96679688 2.53125 C-13.27779373 2.2748026 -6.52351234 0 0 0 Z " fill="#E76852" transform="translate(151,173)"/>
<path d="M0 0 C0.66 0.33 1.32 0.66 2 1 C2 3.31 2 5.62 2 8 C0.125 9.0625 0.125 9.0625 -2 10 C-4 9 -4 9 -4.8125 7.125 C-5 5 -5 5 -3.6875 3.25 C-2 2 -2 2 0 2 C0 1.34 0 0.68 0 0 Z " fill="#F0155C" transform="translate(142,126)"/>
<path d="M0 0 C0.33 0 0.66 0 1 0 C1 6.93 1 13.86 1 21 C0.01 20.67 -0.98 20.34 -2 20 C-2.77287224 16.2215135 -3.02868852 13.68162207 -2 10 C-1.63711344 8.25178738 -1.28322765 6.50168674 -0.9375 4.75 C-0.67259766 3.41195312 -0.67259766 3.41195312 -0.40234375 2.046875 C-0.26957031 1.37140625 -0.13679687 0.6959375 0 0 Z " fill="#D11787" transform="translate(195,75)"/>
<path d="M0 0 C0.99 0.33 1.98 0.66 3 1 C2.01 1.495 2.01 1.495 1 2 C0.690625 3.134375 0.38125 4.26875 0.0625 5.4375 C-1 9 -1 9 -4 11 C-6.6875 10.625 -6.6875 10.625 -9 10 C-8.06409496 8.8944811 -7.12620142 7.79064547 -6.1875 6.6875 C-5.66542969 6.07261719 -5.14335938 5.45773438 -4.60546875 4.82421875 C-3.12827531 3.14575321 -1.59960869 1.56117966 0 0 Z " fill="#EF0869" transform="translate(48,39)"/>
<path d="M0 0 C0.99 0 1.98 0 3 0 C3.2475 0.763125 3.495 1.52625 3.75 2.3125 C5.10995558 5.2364045 6.31585826 6.30004356 9 8 C8.34 9.32 7.68 10.64 7 12 C6.34 11.67 5.68 11.34 5 11 C4.67 11.66 4.34 12.32 4 13 C4 11.35 4 9.7 4 8 C3.01 7.67 2.02 7.34 1 7 C0.67 4.69 0.34 2.38 0 0 Z " fill="#E50F86" transform="translate(154,72)"/>
<path d="M0 0 C0.33 0 0.66 0 1 0 C2.42857143 8.42857143 2.42857143 8.42857143 0 13 C0.66 13 1.32 13 2 13 C1.34 15.31 0.68 17.62 0 20 C-2 18 -2 18 -2.265625 15.8984375 C-2.23068456 10.25555705 -1.60420403 5.41418859 0 0 Z " fill="#DD1B54" transform="translate(30,62)"/>
<path d="M0 0 C1.98 0.495 1.98 0.495 4 1 C4 1.66 4 2.32 4 3 C4.66 3 5.32 3 6 3 C6 2.34 6 1.68 6 1 C7.32 1.33 8.64 1.66 10 2 C7 4 7 4 5 4 C5 4.99 5 5.98 5 7 C3.02 7 1.04 7 -1 7 C-0.67 4.69 -0.34 2.38 0 0 Z " fill="#FA3252" transform="translate(145,152)"/>
<path d="M0 0 C1.98 0 3.96 0 6 0 C2.09361612 4.55744786 -2.96942836 7.74745236 -9 8.25 C-9.99 8.12625 -9.99 8.12625 -11 8 C-11 7.34 -11 6.68 -11 6 C-10.37351562 5.90203125 -9.74703125 5.8040625 -9.1015625 5.703125 C-7.87566406 5.47882813 -7.87566406 5.47882813 -6.625 5.25 C-5.81289062 5.11078125 -5.00078125 4.9715625 -4.1640625 4.828125 C-1.82290908 4.18250739 -1.82290908 4.18250739 -0.7109375 1.921875 C-0.47632812 1.28765625 -0.24171875 0.6534375 0 0 Z " fill="#FCE0E8" transform="translate(128,135)"/>
<path d="M0 0 C5.19209404 -0.21192221 9.126739 0.4087311 14 2 C13.67 2.66 13.34 3.32 13 4 C13.66 4.33 14.32 4.66 15 5 C15 5.99 15 6.98 15 8 C13.35 7.67 11.7 7.34 10 7 C10 6.01 10 5.02 10 4 C8.35 4 6.7 4 5 4 C4.67 3.34 4.34 2.68 4 2 C1.98330173 0.86649466 1.98330173 0.86649466 0 0 Z " fill="#C3359F" transform="translate(150,28)"/>
<path d="M0 0 C0 0.66 0 1.32 0 2 C-0.99 2 -1.98 2 -3 2 C-3 3.32 -3 4.64 -3 6 C-3.8971875 6.061875 -3.8971875 6.061875 -4.8125 6.125 C-8.10555955 7.44222382 -8.55882669 9.86701455 -10 13 C-11.6875 14.875 -11.6875 14.875 -13 16 C-13 10.01493074 -9.7486697 7.01443886 -5.91015625 2.85546875 C-3.84451663 0.84896809 -2.89118146 0 0 0 Z " fill="#D81D65" transform="translate(76,65)"/>
<path d="M0 0 C0.71542969 0.27714844 1.43085937 0.55429688 2.16796875 0.83984375 C9.828315 3.6245233 16.86752182 4.73766199 25 5 C25 5.33 25 5.66 25 6 C22.10391407 6.05413245 19.20884805 6.09373641 16.3125 6.125 C15.08756836 6.15013672 15.08756836 6.15013672 13.83789062 6.17578125 C9.42907071 6.2114802 6.01268424 6.07580814 2 4 C2 3.34 2 2.68 2 2 C1.34 2 0.68 2 0 2 C0 1.34 0 0.68 0 0 Z " fill="#FEF2E2" transform="translate(72,159)"/>
<path d="M0 0 C0.99 0 1.98 0 3 0 C3 0.99 3 1.98 3 3 C-2.73230171 5.85288164 -7.59859065 7.53444296 -14 8 C-11.69958987 5.34454264 -9.79156697 4.40448801 -6.4375 3.4375 C-2.84760436 2.39821047 -2.84760436 2.39821047 0 0 Z " fill="#E05D48" transform="translate(168,188)"/>
<path d="M0 0 C1.65 0 3.3 0 5 0 C5.37125 1.2065625 5.37125 1.2065625 5.75 2.4375 C6.72238859 5.171081 6.72238859 5.171081 9.125 5.8125 C10.053125 5.9053125 10.053125 5.9053125 11 6 C10.01 6.33 9.02 6.66 8 7 C8 7.99 8 8.98 8 10 C7.34 10 6.68 10 6 10 C4.4921875 8.06640625 4.4921875 8.06640625 2.875 5.5625 C2.33617187 4.73878906 1.79734375 3.91507813 1.2421875 3.06640625 C0 1 0 1 0 0 Z " fill="#ECBD51" transform="translate(34,171)"/>
<path d="M0 0 C2.64 0.33 5.28 0.66 8 1 C7.67 1.99 7.34 2.98 7 4 C6.01 4 5.02 4 4 4 C3.67 5.65 3.34 7.3 3 9 C2.67 8.34 2.34 7.68 2 7 C1.34 6.67 0.68 6.34 0 6 C0 4 0 2 0 0 Z " fill="#FCEAF7" transform="translate(143,72)"/>
<path d="M0 0 C1.98 0 3.96 0 6 0 C6 0.99 6 1.98 6 3 C5.01 3.33 4.02 3.66 3 4 C3.66 4.66 4.32 5.32 5 6 C5.625 8.625 5.625 8.625 6 11 C5.01 11 4.02 11 3 11 C0 4.5 0 4.5 0 0 Z " fill="#CB2286" transform="translate(170,64)"/>
<path d="M0 0 C6.44070471 -0.10655578 12.62641289 0.03794912 19 1 C17 3 17 3 14.9765625 3.265625 C13.81253906 3.25789063 13.81253906 3.25789063 12.625 3.25 C11.85414062 3.25515625 11.08328125 3.2603125 10.2890625 3.265625 C7.8007639 2.97688045 6.15765802 2.24139229 4 1 C4 1.66 4 2.32 4 3 C2.68 3 1.36 3 0 3 C0 2.01 0 1.02 0 0 Z " fill="#DF1384" transform="translate(69,29)"/>
<path d="M0 0 C3.96 0 7.92 0 12 0 C8.23292557 2.82530582 5.40015964 4.53328012 1 6 C0.34 5.67 -0.32 5.34 -1 5 C-0.67 3.35 -0.34 1.7 0 0 Z " fill="#EE0B72" transform="translate(65,48)"/>
<path d="M0 0 C3.89577024 -0.05821935 7.79142802 -0.0936703 11.6875 -0.125 C12.79029297 -0.14175781 13.89308594 -0.15851562 15.02929688 -0.17578125 C16.09599609 -0.18222656 17.16269531 -0.18867187 18.26171875 -0.1953125 C19.73064575 -0.21102295 19.73064575 -0.21102295 21.22924805 -0.22705078 C24.17112772 0.01402315 26.33237726 0.76944458 29 2 C27.3125 3.125 27.3125 3.125 25 4 C24.34 3.7009375 23.68 3.401875 23 3.09375 C18.61889306 1.49647143 14.31799056 1.53207671 9.6875 1.375 C8.75615234 1.33632813 7.82480469 1.29765625 6.86523438 1.2578125 C4.57701593 1.16393687 2.28879705 1.07825491 0 1 C0 0.67 0 0.34 0 0 Z " fill="#BF1774" transform="translate(120,62)"/>
<path d="M0 0 C1 3 1 3 -0.07421875 5.84765625 C-0.60660156 6.90855469 -1.13898438 7.96945313 -1.6875 9.0625 C-2.20699219 10.12597656 -2.72648438 11.18945312 -3.26171875 12.28515625 C-5.02240216 15.03498764 -5.97476685 15.93886157 -9 17 C-8.66226563 16.41992188 -8.32453125 15.83984375 -7.9765625 15.2421875 C-5.50306326 10.90998941 -3.3632363 6.83329234 -2 2 C-1.34 2 -0.68 2 0 2 C0 1.34 0 0.68 0 0 Z " fill="#CF2456" transform="translate(194,160)"/>
<path d="M0 0 C0.33 0 0.66 0 1 0 C1.33 4.29 1.66 8.58 2 13 C0.68 12.67 -0.64 12.34 -2 12 C-2.33 12.66 -2.66 13.32 -3 14 C-2.67 12.35 -2.34 10.7 -2 9 C-1.34 9 -0.68 9 0 9 C-0.33 8.34 -0.66 7.68 -1 7 C-1.99 7.495 -1.99 7.495 -3 8 C-2.67 6.68 -2.34 5.36 -2 4 C-1.34 4.33 -0.68 4.66 0 5 C-0.2784375 4.0409375 -0.2784375 4.0409375 -0.5625 3.0625 C-0.706875 2.381875 -0.85125 1.70125 -1 1 C-0.67 0.67 -0.34 0.34 0 0 Z " fill="#E60B6C" transform="translate(195,119)"/>
<path d="M0 0 C3.99012371 0.55989303 6.5255052 1.75669768 9.8125 4.0625 C10.60269531 4.61035156 11.39289063 5.15820312 12.20703125 5.72265625 C12.79871094 6.14417969 13.39039063 6.56570312 14 7 C12 7.66666667 10 8.33333333 8 9 C8 8.01 8 7.02 8 6 C6.68 5.34 5.36 4.68 4 4 C4 3.34 4 2.68 4 2 C2.68 1.34 1.36 0.68 0 0 Z " fill="#BF49A4" transform="translate(164,31)"/>
<path d="M0 0 C0.556875 0.19335938 1.11375 0.38671875 1.6875 0.5859375 C6.75117127 2.31374425 11.79322065 3.7693067 17 5 C17 5.33 17 5.66 17 6 C15.41705218 6.05437607 13.83355744 6.09296271 12.25 6.125 C11.36828125 6.14820313 10.4865625 6.17140625 9.578125 6.1953125 C6.86592453 5.98984277 5.35139629 5.29837969 3 4 C2.34 4 1.68 4 1 4 C0.67 2.68 0.34 1.36 0 0 Z " fill="#EBA352" transform="translate(67,170)"/>
<path d="M0 0 C1.0625 1.875 1.0625 1.875 2 4 C1.67 4.66 1.34 5.32 1 6 C0.84777027 7.66565749 0.75082785 9.33656496 0.68359375 11.0078125 C0.64169922 11.99394531 0.59980469 12.98007813 0.55664062 13.99609375 C0.51732422 15.02863281 0.47800781 16.06117187 0.4375 17.125 C0.39431641 18.16527344 0.35113281 19.20554687 0.30664062 20.27734375 C0.2003712 22.85142528 0.09833417 25.42560508 0 28 C-0.33 28 -0.66 28 -1 28 C-1.02898097 23.89584811 -1.0467922 19.79172247 -1.0625 15.6875 C-1.07087891 14.52025391 -1.07925781 13.35300781 -1.08789062 12.15039062 C-1.09111328 11.03212891 -1.09433594 9.91386719 -1.09765625 8.76171875 C-1.10289307 7.73006592 -1.10812988 6.69841309 -1.11352539 5.63549805 C-1 3 -1 3 0 0 Z " fill="#FDDCEB" transform="translate(51,75)"/>
<path d="M0 0 C0 3 0 3 -1.3125 4.6875 C-3 6 -3 6 -6 6 C-6 6.66 -6 7.32 -6 8 C-9.63 7.67 -13.26 7.34 -17 7 C-17 6.67 -17 6.34 -17 6 C-16.27554688 5.90203125 -15.55109375 5.8040625 -14.8046875 5.703125 C-8.85607192 4.78307246 -4.6990896 3.81007265 0 0 Z " fill="#FDDBE4" transform="translate(127,126)"/>
<path d="M0 0 C0.99 0 1.98 0 3 0 C3.33 0.66 3.66 1.32 4 2 C4.78375 2.103125 5.5675 2.20625 6.375 2.3125 C9 3 9 3 10.8125 5.5625 C11.204375 6.366875 11.59625 7.17125 12 8 C5.85169289 6.79444959 3.64751781 5.08441876 0 0 Z " fill="#EA8753" transform="translate(68,154)"/>
<path d="M0 0 C0.66 0.33 1.32 0.66 2 1 C2 3.97 2 6.94 2 10 C0.68 10 -0.64 10 -2 10 C-1.85950482 8.52031676 -1.71245174 7.04125484 -1.5625 5.5625 C-1.48128906 4.73878906 -1.40007812 3.91507813 -1.31640625 3.06640625 C-1 1 -1 1 0 0 Z " fill="#F21A59" transform="translate(174,150)"/>
<path d="M0 0 C0.33 0 0.66 0 1 0 C1.99 3.63 2.98 7.26 4 11 C3.01 11.495 3.01 11.495 2 12 C1.34227572 15.02934491 1.34227572 15.02934491 1 18 C0.67 18 0.34 18 0 18 C0 12.06 0 6.12 0 0 Z " fill="#EB7D4B" transform="translate(28,120)"/>
<path d="M0 0 C0.99 0.33 1.98 0.66 3 1 C2.59007813 1.51949219 2.18015625 2.03898437 1.7578125 2.57421875 C-1.07636576 6.2423777 -3.59828033 9.51449706 -5 14 C-6.10348268 10.68955197 -5.99444068 8.34493684 -5 5 C-4.34 4.67 -3.68 4.34 -3 4 C-2.67 3.01 -2.34 2.02 -2 1 C-1.34 1.33 -0.68 1.66 0 2 C0 1.34 0 0.68 0 0 Z " fill="#DE1960" transform="translate(89,89)"/>
<path d="M0 0 C2.475 0.495 2.475 0.495 5 1 C5.33 2.65 5.66 4.3 6 6 C4.02 6.33 2.04 6.66 0 7 C0 4.69 0 2.38 0 0 Z " fill="#F75046" transform="translate(88,137)"/>
<path d="M0 0 C1.65 0 3.3 0 5 0 C5 0.99 5 1.98 5 3 C4 4 4 4 1.71484375 4.09765625 C0.34005859 4.08025391 0.34005859 4.08025391 -1.0625 4.0625 C-1.98160156 4.05347656 -2.90070313 4.04445312 -3.84765625 4.03515625 C-4.55792969 4.02355469 -5.26820313 4.01195312 -6 4 C-6 3.34 -6 2.68 -6 2 C-4.02 2 -2.04 2 0 2 C0 1.34 0 0.68 0 0 Z " fill="#F57141" transform="translate(150,192)"/>
<path d="M0 0 C0.66 0.33 1.32 0.66 2 1 C1.3503125 1.61488281 0.700625 2.22976562 0.03125 2.86328125 C-0.8040625 3.67152344 -1.639375 4.47976562 -2.5 5.3125 C-3.3353125 6.11300781 -4.170625 6.91351563 -5.03125 7.73828125 C-7.32828283 9.87737482 -7.32828283 9.87737482 -7 13 C-8.32 13.33 -9.64 13.66 -11 14 C-9.61085525 9.70281047 -7.61968015 7.29312243 -4.375 4.1875 C-3.55773438 3.39730469 -2.74046875 2.60710938 -1.8984375 1.79296875 C-0.95871094 0.90544922 -0.95871094 0.90544922 0 0 Z " fill="#C21F61" transform="translate(47,38)"/>
<path d="M0 0 C2.64 0 5.28 0 8 0 C8.33 0.99 8.66 1.98 9 3 C5.7 3 2.4 3 -1 3 C-0.67 2.01 -0.34 1.02 0 0 Z " fill="#FBBB28" transform="translate(71,192)"/>
<path d="M0 0 C0.90105469 0.00902344 1.80210938 0.01804687 2.73046875 0.02734375 C3.41753906 0.03894531 4.10460937 0.05054687 4.8125 0.0625 C4.8125 0.3925 4.8125 0.7225 4.8125 1.0625 C3.99265625 1.17207031 3.1728125 1.28164062 2.328125 1.39453125 C0.71164063 1.63236328 0.71164063 1.63236328 -0.9375 1.875 C-2.00484375 2.02582031 -3.0721875 2.17664063 -4.171875 2.33203125 C-7.27934561 3.08474758 -8.69447781 4.1710549 -11.1875 6.0625 C-12.1775 5.7325 -13.1675 5.4025 -14.1875 5.0625 C-9.21630553 1.63789937 -6.0437958 -0.07849085 0 0 Z " fill="#CD2869" transform="translate(113.1875,92.9375)"/>
<path d="M0 0 C0.66 0 1.32 0 2 0 C2.33 0.99 2.66 1.98 3 3 C2.01 3 1.02 3 0 3 C-0.08004482 6.5219721 -0.04005702 9.61981469 1 13 C-1.0625 11.375 -1.0625 11.375 -3 9 C-2.84079772 5.09954411 -2.17917221 3.26875831 0 0 Z " fill="#FACCEB" transform="translate(141,73)"/>
<path d="M0 0 C0 0.66 0 1.32 0 2 C-0.66 2 -1.32 2 -2 2 C-2 2.99 -2 3.98 -2 5 C-3.32 5 -4.64 5 -6 5 C-6.66 5.99 -7.32 6.98 -8 8 C-8.25 5.6875 -8.25 5.6875 -8 3 C-5.18144066 0.08077783 -4.20010777 0 0 0 Z " fill="#F9055D" transform="translate(39,59)"/>
<path d="M0 0 C1.32 0.33 2.64 0.66 4 1 C4 2.98 4 4.96 4 7 C3.01 7.33 2.02 7.66 1 8 C0.02391783 5.07175348 -0.08226668 3.04386724 0 0 Z " fill="#F68E3E" transform="translate(48,149)"/>
<path d="M0 0 C1.65 0 3.3 0 5 0 C5 0.66 5 1.32 5 2 C5.66 2.33 6.32 2.66 7 3 C6.34 3 5.68 3 5 3 C5 3.66 5 4.32 5 5 C3.35 5.33 1.7 5.66 0 6 C0 4.02 0 2.04 0 0 Z " fill="#DD1386" transform="translate(144,65)"/>
<path d="M0 0 C0 0.66 0 1.32 0 2 C-3.90028225 4.60018816 -7.47434569 4.15085514 -12 4 C-8.54145481 0.54145481 -4.78095787 0 0 0 Z " fill="#C72170" transform="translate(69,29)"/>
<path d="M0 0 C0.66 0 1.32 0 2 0 C3.76615118 4.70973649 4.48594831 9.03083364 5 14 C3 13 3 13 2.1484375 11.07421875 C1.89320312 10.28660156 1.63796875 9.49898437 1.375 8.6875 C0.98441406 7.51767578 0.98441406 7.51767578 0.5859375 6.32421875 C0 4 0 4 0 0 Z " fill="#E5AB51" transform="translate(29,156)"/>
<path d="M0 0 C2.80478513 2.80478513 2.96108361 4.88543472 3.09765625 8.796875 C3.08605469 9.77140625 3.07445312 10.7459375 3.0625 11.75 C3.05347656 12.73484375 3.04445312 13.7196875 3.03515625 14.734375 C3.02355469 15.48203125 3.01195312 16.2296875 3 17 C2.67 17 2.34 17 2 17 C1.77213542 14.94921875 1.54427083 12.8984375 1.31640625 10.84765625 C1.18113386 8.98859771 1.18113386 8.98859771 0 8 C-0.14115161 5.32941149 -0.04247107 2.67567762 0 0 Z " fill="#FCD0EA" transform="translate(141,100)"/>
<path d="M0 0 C0.66 0 1.32 0 2 0 C2.33 1.32 2.66 2.64 3 4 C4.32 3.67 5.64 3.34 7 3 C7.33 3.66 7.66 4.32 8 5 C3.545 5.495 3.545 5.495 -1 6 C-0.67 4.02 -0.34 2.04 0 0 Z " fill="#F89F34" transform="translate(65,170)"/>
<path d="M0 0 C2.0625 0.4375 2.0625 0.4375 4 1 C3.38722388 3.96175123 2.74627478 5.38058783 1 8 C0.34 7.67 -0.32 7.34 -1 7 C-1.04254356 5.00045254 -1.04080783 2.99958364 -1 1 C-0.67 0.67 -0.34 0.34 0 0 Z " fill="#F72655" transform="translate(185,168)"/>
<path d="M0 0 C1.5 1.25 1.5 1.25 3 3 C3 4.32 3 5.64 3 7 C3.66 7 4.32 7 5 7 C5.33 8.98 5.66 10.96 6 13 C5.67 12.34 5.34 11.68 5 11 C4.34 11 3.68 11 3 11 C2.49384702 9.73160474 1.99530901 8.46016898 1.5 7.1875 C1.2215625 6.47980469 0.943125 5.77210938 0.65625 5.04296875 C0 3 0 3 0 0 Z " fill="#E78058" transform="translate(62,141)"/>
<path d="M0 0 C3.72114571 2.31537955 6.61229661 4.28579473 9 8 C6.5625 7.625 6.5625 7.625 4 7 C3.67 6.34 3.34 5.68 3 5 C2.01 4.67 1.02 4.34 0 4 C-0.33 3.01 -0.66 2.02 -1 1 C-0.67 0.67 -0.34 0.34 0 0 Z " fill="#FCD5EC" transform="translate(129,86)"/>
<path d="M0 0 C1.21236328 0.02707031 1.21236328 0.02707031 2.44921875 0.0546875 C3.37154297 0.08949219 3.37154297 0.08949219 4.3125 0.125 C4.6425 0.785 4.9725 1.445 5.3125 2.125 C3.4253125 2.0321875 3.4253125 2.0321875 1.5 1.9375 C-1.78019517 1.88707628 -1.78019517 1.88707628 -4.5625 3.5 C-4.93375 4.03625 -5.305 4.5725 -5.6875 5.125 C-6.3475 5.785 -7.0075 6.445 -7.6875 7.125 C-7.875 4.75 -7.875 4.75 -7.6875 2.125 C-4.48369983 -0.01086678 -3.66810033 -0.10632175 0 0 Z " fill="#C42475" transform="translate(145.6875,70.875)"/>
<path d="M0 0 C-3.23521742 2.48862878 -6.59260295 4.75421558 -10 7 C-10 3 -10 3 -8.375 1.25 C-5.42277246 -0.30380397 -3.29014997 -0.22432841 0 0 Z " fill="#FBDDF0" transform="translate(78,63)"/>
<path d="M0 0 C3.96 0.33 7.92 0.66 12 1 C11.01 1.33 10.02 1.66 9 2 C9 2.66 9 3.32 9 4 C4.545 3.01 4.545 3.01 0 2 C0 1.34 0 0.68 0 0 Z " fill="#B9208D" transform="translate(144,28)"/>
<path d="M0 0 C1.32 0.99 2.64 1.98 4 3 C-1.2734375 6.22265625 -1.2734375 6.22265625 -3 7 C-3.66 6.67 -4.32 6.34 -5 6 C-3.35 4.02 -1.7 2.04 0 0 Z " fill="#FBDCEF" transform="translate(60,61)"/>
<path d="M0 0 C-0.33 1.32 -0.66 2.64 -1 4 C-4.01031744 4.93423645 -4.86650268 5.04449911 -8 4 C-4.5 0 -4.5 0 0 0 Z " fill="#EB0F7B" transform="translate(64,33)"/>
<path d="M0 0 C0.33 0.66 0.66 1.32 1 2 C-0.76227632 5.61730402 -2.64326421 7.80075931 -6 10 C-5.35389319 6.51102321 -3.98128683 3.93230451 -2 1 C-1.34 0.67 -0.68 0.34 0 0 Z " fill="#F62D57" transform="translate(170,159)"/>
<path d="M0 0 C0.33 0.66 0.66 1.32 1 2 C1.66 2.33 2.32 2.66 3 3 C1.75803878 4.15454162 0.50607155 5.29832562 -0.75 6.4375 C-1.79414063 7.39462891 -1.79414063 7.39462891 -2.859375 8.37109375 C-4.98792725 9.99081325 -6.39023405 10.58267256 -9 11 C-7.88625 9.948125 -7.88625 9.948125 -6.75 8.875 C-4.02182777 6.02281994 -2.08697046 3.3236937 0 0 Z " fill="#FCD5DE" transform="translate(160,149)"/>
<path d="M0 0 C3.96 0 7.92 0 12 0 C12 0.99 12 1.98 12 3 C10.37419034 2.88601335 8.74932843 2.75844341 7.125 2.625 C6.22007812 2.55539063 5.31515625 2.48578125 4.3828125 2.4140625 C2 2 2 2 0 0 Z " fill="#BE2284" transform="translate(138,48)"/>
<path d="M0 0 C4.0369867 1.79421631 6.64480474 3.20551875 9 7 C8.01 7.495 8.01 7.495 7 8 C7 7.34 7 6.68 7 6 C5.68 5.67 4.36 5.34 3 5 C3 4.34 3 3.68 3 3 C2.01 2.67 1.02 2.34 0 2 C0 1.34 0 0.68 0 0 Z " fill="#D8296E" transform="translate(120,94)"/>
<path d="M0 0 C0.66 0.33 1.32 0.66 2 1 C2 3.64 2 6.28 2 9 C1.01 8.34 0.02 7.68 -1 7 C-1.25 3.9375 -1.25 3.9375 -1 1 C-0.67 0.67 -0.34 0.34 0 0 Z " fill="#D51995" transform="translate(193,67)"/>
<path d="M0 0 C2.125 0.375 2.125 0.375 4 1 C3.34 2.98 2.68 4.96 2 7 C0.68 6.34 -0.64 5.68 -2 5 C-2 2 -2 2 0 0 Z " fill="#F8BD2A" transform="translate(44,176)"/>
<path d="M0 0 C1.98 0 3.96 0 6 0 C4.63016497 3.16115776 4.0109362 3.9927092 1 6 C0.67 4.02 0.34 2.04 0 0 Z " fill="#E02A57" transform="translate(153,151)"/>
<path d="M0 0 C2.97 0 5.94 0 9 0 C7 3 7 3 5.0625 3.875 C3 4 3 4 1.25 2.625 C0 1 0 1 0 0 Z " fill="#F02C56" transform="translate(105,128)"/>
<path d="M0 0 C0.66 0 1.32 0 2 0 C2 1.65 2 3.3 2 5 C2.66 5 3.32 5 4 5 C3.34 6.32 2.68 7.64 2 9 C1.67 7.68 1.34 6.36 1 5 C0.34 5 -0.32 5 -1 5 C-0.67 3.35 -0.34 1.7 0 0 Z " fill="#EF0B76" transform="translate(142,89)"/>
<path d="M0 0 C0.66 0 1.32 0 2 0 C2.33 1.98 2.66 3.96 3 6 C2.34 6 1.68 6 1 6 C0.67 6.99 0.34 7.98 0 9 C-0.66 8.67 -1.32 8.34 -2 8 C-1.505 6.2984375 -1.505 6.2984375 -1 4.5625 C0.04504273 1.45623361 0.04504273 1.45623361 0 0 Z " fill="#F80460" transform="translate(50,64)"/>
<path d="M0 0 C1.41750563 0.11509661 2.83401169 0.24253658 4.25 0.375 C5.03890625 0.44460937 5.8278125 0.51421875 6.640625 0.5859375 C9.085877 1.01507113 10.84836903 1.78600638 13 3 C13 3.66 13 4.32 13 5 C11.58208592 4.54554036 10.16571954 4.08625056 8.75 3.625 C7.96109375 3.36976562 7.1721875 3.11453125 6.359375 2.8515625 C4.13372042 2.04826333 2.09068328 1.10288338 0 0 Z " fill="#FBD0F1" transform="translate(140,61)"/>
<path d="M0 0 C1.32 0.99 2.64 1.98 4 3 C3.34 4.32 2.68 5.64 2 7 C1.34 6.67 0.68 6.34 0 6 C-0.33 6.66 -0.66 7.32 -1 8 C-0.67 5.36 -0.34 2.72 0 0 Z " fill="#DD1D88" transform="translate(159,77)"/>
<path d="M0 0 C0.66 0 1.32 0 2 0 C1.875 1.8125 1.875 1.8125 1 4 C-2.0625 5.75 -2.0625 5.75 -5 7 C-4.67 5.35 -4.34 3.7 -4 2 C-2.68 1.67 -1.36 1.34 0 1 C0 0.67 0 0.34 0 0 Z " fill="#D71868" transform="translate(68,51)"/>
<path d="M0 0 C1.98 0.66 3.96 1.32 6 2 C5.01 2.33 4.02 2.66 3 3 C3 3.99 3 4.98 3 6 C2.34 6 1.68 6 1 6 C0.67 4.02 0.34 2.04 0 0 Z " fill="#F1C142" transform="translate(39,175)"/>
<path d="M0 0 C0.99 1.32 1.98 2.64 3 4 C2.01 5.485 2.01 5.485 1 7 C0.01 6.67 -0.98 6.34 -2 6 C-1.34 4.02 -0.68 2.04 0 0 Z " fill="#F9A734" transform="translate(30,149)"/>
<path d="M0 0 C0.66 0 1.32 0 2 0 C2 1.65 2 3.3 2 5 C2.66 5 3.32 5 4 5 C3.67 6.32 3.34 7.64 3 9 C0.23776722 6.23776722 0.42143709 3.79293383 0 0 Z " fill="#FDE0E3" transform="translate(83,118)"/>
<path d="M0 0 C0.66 1.32 1.32 2.64 2 4 C0.125 5.0625 0.125 5.0625 -2 6 C-2.66 5.67 -3.32 5.34 -4 5 C-2.68 3.35 -1.36 1.7 0 0 Z " fill="#FAD5E8" transform="translate(91,90)"/>
<path d="M0 0 C2.875 0.25 2.875 0.25 6 1 C7.375 3.0625 7.375 3.0625 8 5 C6.88625 4.5359375 6.88625 4.5359375 5.75 4.0625 C3.49307824 3.1905075 1.3549847 2.52332993 -1 2 C-0.67 1.34 -0.34 0.68 0 0 Z " fill="#F7E8F2" transform="translate(160,61)"/>
<path d="M0 0 C1.670625 0.061875 1.670625 0.061875 3.375 0.125 C2.385 0.62 2.385 0.62 1.375 1.125 C1.045 1.785 0.715 2.445 0.375 3.125 C-2.595 2.63 -2.595 2.63 -5.625 2.125 C-3.625 0.125 -3.625 0.125 0 0 Z " fill="#FCDFF2" transform="translate(78.625,50.875)"/>
<path d="M0 0 C-0.33 0.99 -0.66 1.98 -1 3 C-3.97 3 -6.94 3 -10 3 C-9.67 2.34 -9.34 1.68 -9 1 C-5.93090555 0.33280556 -3.14213983 0 0 0 Z " fill="#BA2C8B" transform="translate(129,27)"/>
<path d="M0 0 C1.65 0 3.3 0 5 0 C5.33 1.98 5.66 3.96 6 6 C3.97945196 4.35830472 1.97956942 2.69088222 0 1 C0 0.67 0 0.34 0 0 Z " fill="#FCF3D8" transform="translate(58,161)"/>
<path d="M0 0 C2.475 0.99 2.475 0.99 5 2 C5 3.32 5 4.64 5 6 C4.01 5.67 3.02 5.34 2 5 C2 4.34 2 3.68 2 3 C1.34 3 0.68 3 0 3 C0 2.01 0 1.02 0 0 Z " fill="#FA7746" transform="translate(65,145)"/>
<path d="M0 0 C1.98 0 3.96 0 6 0 C6 0.99 6 1.98 6 3 C4.35 3.33 2.7 3.66 1 4 C0.67 2.68 0.34 1.36 0 0 Z " fill="#D41992" transform="translate(170,64)"/>
<path d="M0 0 C1.32 0.66 2.64 1.32 4 2 C3.67 3.65 3.34 5.3 3 7 C0.2160817 5.60804085 0.02101003 3.84424221 -1 1 C-0.67 0.67 -0.34 0.34 0 0 Z " fill="#BC2095" transform="translate(175,38)"/>
<path d="M0 0 C2.97 0 5.94 0 9 0 C8.01 0.66 7.02 1.32 6 2 C5.34 1.67 4.68 1.34 4 1 C4 1.66 4 2.32 4 3 C2.68 3 1.36 3 0 3 C0 2.01 0 1.02 0 0 Z " fill="#D70E73" transform="translate(69,29)"/>
</svg>
