<?xml version="1.0" encoding="UTF-8"?>
<svg version="1.1" xmlns="http://www.w3.org/2000/svg" width="225" height="225">
<path d="M0 0 C1.22074219 0.32871094 2.44148437 0.65742187 3.69921875 0.99609375 C33.25647864 9.92195384 56.52370308 30.56264812 71.25 57.375 C75.08838555 64.65511611 77.82027327 72.04895138 80 80 C80.3196875 81.14855469 80.639375 82.29710938 80.96875 83.48046875 C87.79576009 112.96935957 82.36734181 143.02476067 67.125 168.8125 C49.65763671 196.02127744 24.10549836 213.6606651 -7.25 220.8125 C-23.92067218 223.95555687 -42.62919132 223.45820258 -59 219 C-60.22074219 218.67128906 -61.44148438 218.34257812 -62.69921875 218.00390625 C-92.14028304 209.11313553 -115.66190949 188.35444459 -130.3125 161.5625 C-143.14355784 137.08727299 -146.26656471 106.68329633 -139 80 C-138.67128906 78.77925781 -138.34257812 77.55851562 -138.00390625 76.30078125 C-129.11313553 46.85971696 -108.35444459 23.33809051 -81.5625 8.6875 C-57.08727299 -4.14355784 -26.68329633 -7.26656471 0 0 Z M-23 12 C-23 26.52 -23 41.04 -23 56 C-18.875 55.855625 -14.75 55.71125 -10.5 55.5625 C-9.21544922 55.51939697 -7.93089844 55.47629395 -6.60742188 55.43188477 C-0.67986635 55.2137972 5.13048924 54.86444527 11 54 C5.49469403 38.27055437 -2.71165237 21.42102075 -18 13 C-19.65 12.67 -21.3 12.34 -23 12 Z M-51 20.4375 C-58.88139616 28.66998754 -69 42.13262256 -69 54 C-64.62527437 54.33699997 -60.25017987 54.66895367 -55.875 55 C-54.01875 55.14308594 -54.01875 55.14308594 -52.125 55.2890625 C-50.92617187 55.37929688 -49.72734375 55.46953125 -48.4921875 55.5625 C-47.39245605 55.64628906 -46.29272461 55.73007812 -45.15966797 55.81640625 C-42.11097428 55.9935518 -39.05383591 56 -36 56 C-36 41.48 -36 26.96 -36 12 C-41.95371555 12 -46.92990129 16.57467483 -51 20.4375 Z M-70 19 C-84.37047453 24.24937995 -95.67483026 35.11615374 -106 46 C-103.17554408 47.88297062 -101.76604728 48.4229435 -98.55078125 49.0703125 C-97.27944336 49.33134766 -97.27944336 49.33134766 -95.98242188 49.59765625 C-94.66081055 49.85869141 -94.66081055 49.85869141 -93.3125 50.125 C-92.41982422 50.30675781 -91.52714844 50.48851563 -90.60742188 50.67578125 C-88.40607343 51.12311409 -86.20367051 51.5642764 -84 52 C-83.764021 51.42145264 -83.52804199 50.84290527 -83.28491211 50.24682617 C-74.56834102 29.01826886 -74.56834102 29.01826886 -68 20 C-68.66 19.67 -69.32 19.34 -70 19 Z M9 19 C9.36351562 19.65484375 9.72703125 20.3096875 10.1015625 20.984375 C15.66614025 31.08622384 20.93518402 41.19237162 25 52 C32.40788271 50.92373883 39.71500286 49.72864339 47 48 C41.6487331 35.17489665 24.71730264 25.50906527 12.92578125 19.77734375 C11.03702371 18.87523082 11.03702371 18.87523082 9 19 Z M-115 59 C-122.32650779 73.52853607 -126.86795767 86.6064749 -128 103 C-123.03377651 103.02465098 -118.06758834 103.04283649 -113.10131836 103.05493164 C-111.41055684 103.0599719 -109.71979971 103.06680405 -108.02905273 103.07543945 C-105.60399293 103.08751857 -103.17899056 103.09323123 -100.75390625 103.09765625 C-99.99348526 103.10281754 -99.23306427 103.10797882 -98.44960022 103.11329651 C-96.6326743 103.11349238 -94.81586873 103.06197277 -93 103 C-91.17726047 101.17726047 -91.52391252 98.30468487 -91.28125 95.83984375 C-91.15363281 94.57076172 -91.02601562 93.30167969 -90.89453125 91.99414062 C-90.76282506 90.64194614 -90.63131618 89.28973242 -90.5 87.9375 C-90.24033224 85.32154014 -89.97993514 82.70565255 -89.71875 80.08984375 C-89.53505859 78.24495361 -89.53505859 78.24495361 -89.34765625 76.36279297 C-88.9551331 72.56601353 -88.50128959 68.78377238 -88 65 C-91.9360551 63.99425299 -95.87406674 62.99638995 -99.8125 62 C-100.93205078 61.71382813 -102.05160156 61.42765625 -103.20507812 61.1328125 C-104.27822266 60.86210938 -105.35136719 60.59140625 -106.45703125 60.3125 C-107.44678955 60.06113281 -108.43654785 59.80976562 -109.45629883 59.55078125 C-112.054901 58.89418829 -112.054901 58.89418829 -115 59 Z M44.75 61.9375 C39.50926842 63.23167717 34.35896075 64.32658562 29 65 C29.46500807 68.79756592 29.94222069 72.59033522 30.4765625 76.37890625 C31.55136226 84.07094336 32.30902634 91.60673878 32.65625 99.3671875 C32.7696875 100.23601562 32.883125 101.10484375 33 102 C36.06594594 103.53297297 39.27111853 103.12131455 42.6328125 103.09765625 C43.38464813 103.0962413 44.13648376 103.09482635 44.91110229 103.09336853 C47.3157751 103.08776465 49.72035527 103.07521157 52.125 103.0625 C53.75390491 103.0574855 55.38281127 103.0529225 57.01171875 103.04882812 C61.00784827 103.03779397 65.00390842 103.02052679 69 103 C69.06231666 97.82810417 68.63656036 93.14864945 67.4375 88.125 C67.26621582 87.40046631 67.09493164 86.67593262 66.91845703 85.92944336 C63.45974637 71.90627028 63.45974637 71.90627028 56 60 C52.08869912 60 48.52251333 61.00565696 44.75 61.9375 Z M-74 67 C-76.67344678 80.36723389 -78 89.57145977 -78 103 C-64.47 102.67 -50.94 102.34 -37 102 C-36.67 91.44 -36.34 80.88 -36 70 C-48.54 69.01 -61.08 68.02 -74 67 Z M-9.0625 69 C-13.661875 69.33 -18.26125 69.66 -23 70 C-22.67 80.56 -22.34 91.12 -22 102 C-1.705 102.495 -1.705 102.495 19 103 C19 94.8170272 18.95544185 87.75321993 17.5625 79.875 C17.42779297 79.05257812 17.29308594 78.23015625 17.15429688 77.3828125 C16.61022088 74.13428069 16.04417226 71.13251678 15 68 C6.94099488 67.85845875 -1.02758596 68.41416323 -9.0625 69 Z M-128 116 C-127.02482178 130.45742773 -124.33690817 145.59624069 -115.78222656 157.72680664 C-113.99300649 159.29306164 -113.99300649 159.29306164 -111.27270508 158.78979492 C-110.19915771 158.52271729 -109.12561035 158.25563965 -108.01953125 157.98046875 C-106.27446289 157.55991211 -106.27446289 157.55991211 -104.49414062 157.13085938 C-102.67172852 156.66389648 -102.67172852 156.66389648 -100.8125 156.1875 C-99.58595703 155.88779297 -98.35941406 155.58808594 -97.09570312 155.27929688 C-94.05959985 154.5350381 -91.02844427 153.774733 -88 153 C-88.62460797 147.93063706 -89.29386829 142.87127172 -90 137.8125 C-90.93170801 130.88726736 -91.55322598 123.97202619 -92 117 C-95.79537631 115.7812625 -99.42791621 115.88661872 -103.390625 115.90234375 C-104.44754547 115.90446617 -104.44754547 115.90446617 -105.52581787 115.90663147 C-107.76725584 115.91221067 -110.00859243 115.92475927 -112.25 115.9375 C-113.77343605 115.94251769 -115.29687368 115.94708013 -116.8203125 115.95117188 C-120.54690772 115.96217326 -124.27344396 115.97942354 -128 116 Z M-78 116 C-78.44584303 127.91391648 -76.69439118 139.42568895 -74 151 C-69.23083326 150.73838889 -64.46198506 150.47173455 -59.69335938 150.20043945 C-58.071692 150.10888849 -56.44994671 150.01870676 -54.828125 149.92993164 C-52.49457222 149.801958 -50.1613456 149.66903393 -47.828125 149.53515625 C-46.74352997 149.47727684 -46.74352997 149.47727684 -45.63702393 149.41822815 C-42.25635227 149.21965209 -39.30484391 148.82621098 -36 148 C-36 137.77 -36 127.54 -36 117 C-50.01583504 116.3872859 -63.97209145 115.82633951 -78 116 Z M-23 117 C-23 127.23 -23 137.46 -23 148 C-19.35290133 149.21569956 -15.85633235 149.33939256 -12.05078125 149.53515625 C-11.27816452 149.57813339 -10.50554779 149.62111053 -9.70951843 149.66539001 C-7.24404028 149.80164 -4.77829591 149.93214004 -2.3125 150.0625 C-0.63995321 150.1539181 1.03257316 150.24571047 2.70507812 150.33789062 C6.80316129 150.56293579 10.90149253 150.78282494 15 151 C15.48749899 148.76341717 15.97274114 146.52634235 16.45703125 144.2890625 C16.72749268 143.04334473 16.9979541 141.79762695 17.27661133 140.51416016 C18.96645056 132.30506603 19.12743843 124.36845709 19 116 C4.95011124 115.87680524 -8.97492694 116.13022803 -23 117 Z M57.609375 116.21875 C56.55245453 116.25204407 56.55245453 116.25204407 55.47418213 116.28601074 C53.23276902 116.35675229 50.99138469 116.42836415 48.75 116.5 C47.22656432 116.54823458 45.70312684 116.5964123 44.1796875 116.64453125 C40.45310391 116.76236216 36.72654562 116.8809734 33 117 C32.9498877 117.61407715 32.89977539 118.2281543 32.84814453 118.86083984 C32.61306189 121.69942277 32.36907466 124.53717666 32.125 127.375 C32.04636719 128.34050781 31.96773437 129.30601562 31.88671875 130.30078125 C31.3969336 135.9144726 30.64000925 141.33197007 29.39794922 146.83056641 C28.87971717 149.28812085 28.87971717 149.28812085 29 153 C37.95504804 155.31460464 46.85902974 157.52814886 56 159 C59.066333 154.70845835 61.24716422 150.46511966 63.0625 145.5 C63.31854004 144.80656494 63.57458008 144.11312988 63.83837891 143.39868164 C67.03883042 134.45025181 69.2170637 125.56286188 69 116 C65.19848305 116 61.40813272 116.09643106 57.609375 116.21875 Z M-70 164 C-64.37480977 179.65594979 -56.95522998 197.37176961 -41 205 C-39.35 205.33 -37.7 205.66 -36 206 C-36 191.81 -36 177.62 -36 163 C-53.03228686 162.79636424 -53.03228686 162.79636424 -70 164 Z M-23 163 C-23 177.19 -23 191.38 -23 206 C-12.87377129 203.97475426 -6.06178363 196.69681475 -0.41821289 188.45361328 C6.92935926 177.43943547 6.92935926 177.43943547 10 165 C1.30203354 160.65101677 -15.42214536 163 -23 163 Z M-98.875 169 C-100.050625 169.28617188 -100.050625 169.28617188 -101.25 169.578125 C-103.16816785 170.04597082 -105.08430184 170.52214211 -107 171 C-95.83904911 184.39314107 -83.85267134 193.7163402 -68 201 C-68 197.08297069 -69.39463347 195.624743 -71.5625 192.375 C-75.86763383 185.72134745 -78.78314531 178.72322592 -81.65234375 171.359375 C-82.66118171 168.20781892 -82.66118171 168.20781892 -84 167 C-89.22521274 166.60932989 -93.85451118 167.74062314 -98.875 169 Z M25 167 C24.731875 167.69222656 24.46375 168.38445312 24.1875 169.09765625 C21.72143171 175.25471491 18.99267394 181.14932823 15.875 187 C15.53855469 187.63429932 15.20210937 188.26859863 14.85546875 188.92211914 C13.45445321 191.5133749 12.03201532 193.95750432 10.2578125 196.3125 C8.80079276 197.9164766 8.80079276 197.9164766 9 200 C22.436132 196.41703147 32.24599776 187.4708672 42 178 C42.93972656 177.10667969 43.87945312 176.21335938 44.84765625 175.29296875 C47.22813183 173.28111018 47.22813183 173.28111018 47 171 C44.08444885 170.32810344 41.16773049 169.66230692 38.25 169 C37.425 168.80921875 36.6 168.6184375 35.75 168.421875 C34.95078125 168.24140625 34.1515625 168.0609375 33.328125 167.875 C32.22839355 167.62363281 32.22839355 167.62363281 31.10644531 167.3671875 C28.69960511 166.88551557 28.69960511 166.88551557 25 167 Z " fill="#000000" transform="translate(142,3)"/>
</svg>
