<?xml version="1.0" encoding="UTF-8"?>
<svg version="1.1" xmlns="http://www.w3.org/2000/svg" width="225" height="225">
<path d="M0 0 C0.69609375 0.26554687 1.3921875 0.53109375 2.109375 0.8046875 C21.9364591 8.98155065 37.54721931 23.52255942 46.71875 42.91015625 C54.68353769 62.11792169 55.4449191 82.28481343 49 102 C48.71125 102.91910156 48.4225 103.83820313 48.125 104.78515625 C45.59867213 111.90173163 41.31782234 117.85972018 37 124 C36.34 124.99 35.68 125.98 35 127 C34.34 127 33.68 127 33 127 C32.731875 127.598125 32.46375 128.19625 32.1875 128.8125 C31.00082594 130.99847854 29.90400887 132.41332594 28 134 C27.34 134 26.68 134 26 134 C26 134.66 26 135.32 26 136 C23.78387155 137.7105363 21.58351247 139.27622176 19.25 140.8125 C18.56768311 141.26246338 17.88536621 141.71242676 17.18237305 142.17602539 C4.17616854 150.55092245 -9.79626964 154.5935372 -25.25 154.4375 C-26.88678711 154.4228772 -26.88678711 154.4228772 -28.55664062 154.40795898 C-48.86625831 153.9650748 -66.71009796 146.66519239 -81 132 C-81.886875 131.175 -82.77375 130.35 -83.6875 129.5 C-93.0849633 119.34058022 -99.86520595 107.55467286 -103 94 C-103.20367187 93.18789062 -103.40734375 92.37578125 -103.6171875 91.5390625 C-108.92850652 67.31071683 -101.60204407 46.60123569 -88.73828125 26.33203125 C-77.28871908 10.9716074 -58.03610586 -0.78723976 -39.15234375 -3.7265625 C-25.96515147 -4.87043296 -12.44576863 -4.83035076 0 0 Z M-66 34 C-61.61042784 40.61634332 -57.16164983 47.19062589 -52.6875 53.75 C-51.70716797 55.19427368 -51.70716797 55.19427368 -50.70703125 56.66772461 C-47.85201957 60.86596004 -44.99166147 65.05069297 -41.98828125 69.14453125 C-41.5600708 69.73459961 -41.13186035 70.32466797 -40.69067383 70.93261719 C-39.5865479 72.44402681 -38.46582485 73.9432737 -37.34375 75.44140625 C-36 78 -36 78 -36.0546875 80.5703125 C-37.1660555 83.42680381 -38.51946976 85.08909258 -40.625 87.3125 C-41.35589844 88.10011719 -42.08679688 88.88773438 -42.83984375 89.69921875 C-43.55269531 90.45847656 -44.26554687 91.21773437 -45 92 C-46.06914009 93.20246212 -47.13188565 94.41064665 -48.1875 95.625 C-48.74050781 96.25921875 -49.29351562 96.8934375 -49.86328125 97.546875 C-50.56839844 98.35640625 -51.27351563 99.1659375 -52 100 C-52.51353027 100.58716797 -53.02706055 101.17433594 -53.55615234 101.77929688 C-55.33121359 103.8093641 -57.10328579 105.84201142 -58.875 107.875 C-59.45918701 108.54225098 -60.04337402 109.20950195 -60.64526367 109.89697266 C-61.46667847 110.8412915 -61.46667847 110.8412915 -62.3046875 111.8046875 C-62.79952637 112.37171387 -63.29436523 112.93874023 -63.80419922 113.52294922 C-65.09284997 115.00635438 -65.09284997 115.00635438 -66 117 C-62.40021023 117.35534405 -60.64020144 117.51506608 -57.76171875 115.19921875 C-57.07722656 114.37035156 -56.39273438 113.54148437 -55.6875 112.6875 C-54.924375 111.78128906 -54.16125 110.87507813 -53.375 109.94140625 C-52.59125 108.97074219 -51.8075 108.00007813 -51 107 C-50.195625 106.01902344 -49.39125 105.03804688 -48.5625 104.02734375 C-47.04633252 102.17452724 -45.53888057 100.31452107 -44.04296875 98.4453125 C-42 96 -42 96 -39.73828125 93.8046875 C-37.76875615 92.17753832 -37.76875615 92.17753832 -38 90 C-37.34 90 -36.68 90 -36 90 C-34.29319053 88.37446717 -32.62339805 86.70884005 -31 85 C-30.58492187 85.63421875 -30.16984375 86.2684375 -29.7421875 86.921875 C-28.39350282 88.96465263 -27.01605908 90.98854219 -25.62109375 93 C-23.59059323 95.9885481 -21.86684483 99.06646835 -20.16015625 102.25 C-14.97779617 112.04644843 -14.97779617 112.04644843 -6.11474609 117.89453125 C0.6493315 118.7291082 7.30108612 118.12543138 14 117 C10.86631275 110.89834934 7.21751467 105.42526782 3.13183594 99.92236328 C-0.54669816 94.87975527 -3.94313848 89.64967992 -7.375 84.4375 C-8.77651447 82.30979246 -10.18005781 80.1834195 -11.5859375 78.05859375 C-12.1948584 77.13361084 -12.8037793 76.20862793 -13.43115234 75.25561523 C-14.94536748 72.93680237 -14.94536748 72.93680237 -17 71 C-16.73134184 66.8323542 -15.27320289 64.77423413 -12.4375 61.8125 C-9.73514621 59.32010155 -9.73514621 59.32010155 -9 56 C-8.34 56 -7.68 56 -7 56 C-3.97482091 52.94441577 -3.97482091 52.94441577 -3 49 C-2.34 49 -1.68 49 -1 49 C2.63633539 45.52001493 2.63633539 45.52001493 4 41 C4.66 41 5.32 41 6 41 C8.39820305 38.36315253 8.39820305 38.36315253 9 35 C9.66 34.67 10.32 34.34 11 34 C8.10346528 33.87931105 6.63201258 33.89753435 4 35 C1.69893432 37.35316528 -0.1986112 39.85004303 -2.1484375 42.5 C-4.20207947 45.27284991 -6.56405835 47.56405835 -9 50 C-9.66 51.010625 -10.32 52.02125 -11 53.0625 C-13.05778822 56.08487645 -15.124225 57.78786539 -18 60 C-19.02541468 61.31388832 -20.02994025 62.64472812 -21 64 C-26.69667711 56.57322095 -32.12715041 49.01283513 -37.3684082 41.2578125 C-39.95325847 37.44334978 -39.95325847 37.44334978 -43 34 C-45.42597951 33.72212332 -45.42597951 33.72212332 -48.2265625 33.8046875 C-49.2578125 33.81113281 -50.2890625 33.81757812 -51.3515625 33.82421875 C-52.97191406 33.84935547 -52.97191406 33.84935547 -54.625 33.875 C-56.25695312 33.88853516 -56.25695312 33.88853516 -57.921875 33.90234375 C-60.61480152 33.92596591 -63.30729255 33.95890444 -66 34 Z " fill="#080808" transform="translate(138,34)"/>
<path d="M0 0 C10.42400052 -1.21444666 10.42400052 -1.21444666 13.9921875 1.53515625 C15.54196666 3.61892668 16.80006228 5.69807867 18 8 C18.61875 9.093125 19.2375 10.18625 19.875 11.3125 C20.18937012 11.88653564 20.50374023 12.46057129 20.82763672 13.05200195 C22.28764926 15.47795782 23.94523032 17.70684449 25.6328125 19.98046875 C30.66080621 26.84524254 35.32331784 33.9326978 40 41.0390625 C43.93359595 46.98555326 47.99387733 52.80330904 52.21484375 58.54931641 C54.39669114 61.54458229 56.46138282 64.59317035 58.5 67.6875 C59.1703125 68.70199219 59.840625 69.71648437 60.53125 70.76171875 C61.25828125 71.86966797 61.25828125 71.86966797 62 73 C58.87477977 75.21369766 55.83811394 75.47753919 52.08251953 74.87841797 C47.62670642 72.99893197 45.43005124 68.50598141 42.9375 64.5625 C42.07801758 63.2640918 42.07801758 63.2640918 41.20117188 61.93945312 C40.04430057 60.19178365 38.89760258 58.43733689 37.76123047 56.67626953 C35.37273344 53.04684003 32.83769442 49.52847416 30.28735352 46.01147461 C29 44 29 44 29 42 C28.34 42 27.68 42 27 42 C26.443125 40.99582031 25.88625 39.99164063 25.3125 38.95703125 C23.07759958 35.04889617 20.58129995 31.37272856 18 27.6875 C13.71791756 21.51407228 9.48901276 15.30788711 5.3125 9.0625 C4.78333984 8.27512451 4.25417969 7.48774902 3.70898438 6.67651367 C3.22365234 5.94924072 2.73832031 5.22196777 2.23828125 4.47265625 C1.80555908 3.82562744 1.37283691 3.17859863 0.92700195 2.51196289 C0 1 0 1 0 0 Z " fill="#1E1E1E" transform="translate(81,72)"/>
<path d="M0 0 C10.45042275 -1.21752498 10.45042275 -1.21752498 14.1328125 1.67578125 C16.5662485 4.89097326 18 6.90286853 18 11 C16.35 11.33 14.7 11.66 13 12 C12.67 13.65 12.34 15.3 12 17 C6.85104502 12.47516078 3.43278366 6.89607799 0 1 C0 0.67 0 0.34 0 0 Z " fill="#141414" transform="translate(81,72)"/>
<path d="M0 0 C0.99 0.66 1.98 1.32 3 2 C3 2.99 3 3.98 3 5 C1.35 5.33 -0.3 5.66 -2 6 C-2.33 7.65 -2.66 9.3 -3 11 C-6.39417765 7.87378374 -8.6062718 5.43458973 -10 1 C-7 2 -7 2 -6 4 C-4.02 3.67 -2.04 3.34 0 3 C0 2.01 0 1.02 0 0 Z " fill="#363636" transform="translate(96,78)"/>
<path d="M0 0 C0.66 0.33 1.32 0.66 2 1 C2.625 3.5625 2.625 3.5625 3 6 C2.01 6.66 1.02 7.32 0 8 C0 7.01 0 6.02 0 5 C-0.66 4.67 -1.32 4.34 -2 4 C-2.33 5.65 -2.66 7.3 -3 9 C-4.32 8.67 -5.64 8.34 -7 8 C-6.67 7.34 -6.34 6.68 -6 6 C-5.34 6 -4.68 6 -4 6 C-3.71125 5.38125 -3.4225 4.7625 -3.125 4.125 C-2 2 -2 2 0 0 Z " fill="#262626" transform="translate(106,118)"/>
<path d="M0 0 C0.33 0 0.66 0 1 0 C2.25210084 6.2605042 2.25210084 6.2605042 1.0625 9.75 C-0.15336279 13.46910972 -0.44477571 17.00017766 -0.625 20.875 C-0.66367187 21.56335938 -0.70234375 22.25171875 -0.7421875 22.9609375 C-0.83548166 24.64023246 -0.91878238 26.32007767 -1 28 C-1.33 28 -1.66 28 -2 28 C-2.20166126 18.44349683 -2.26439611 9.36085176 0 0 Z " fill="#B7B7B7" transform="translate(35,89)"/>
<path d="M0 0 C0.66 0.66 1.32 1.32 2 2 C0.6875 4.9375 0.6875 4.9375 -1 8 C-1.99 8.33 -2.98 8.66 -4 9 C-4.8125 7.3125 -4.8125 7.3125 -5 5 C-2.5625 2.25 -2.5625 2.25 0 0 Z " fill="#070707" transform="translate(127,125)"/>
<path d="M0 0 C0.33 0.66 0.66 1.32 1 2 C0.35561283 3.67540664 -0.31246699 5.34183216 -1 7 C-1 7.99 -1 8.98 -1 10 C-1.99 9.34 -2.98 8.68 -4 8 C-3.50168276 4.31245243 -2.89932357 2.39509338 0 0 Z " fill="#3F3F3F" transform="translate(124,97)"/>
<path d="M0 0 C3.96 0 7.92 0 12 0 C12 0.33 12 0.66 12 1 C10.329375 1.12375 10.329375 1.12375 8.625 1.25 C4.94246056 1.57873787 4.94246056 1.57873787 3.5625 4.0625 C3.376875 4.701875 3.19125 5.34125 3 6 C2.01 4.02 1.02 2.04 0 0 Z " fill="#818181" transform="translate(81,72)"/>
<path d="M0 0 C3.08089673 2.77280706 4.68775452 5.06326356 6 9 C3.0625 8.25 3.0625 8.25 0 7 C-1.406617 4.09299153 -1.04092665 3.12277995 0 0 Z " fill="#4B4B4B" transform="translate(84,86)"/>
<path d="M0 0 C0.66 0 1.32 0 2 0 C2.33 0.99 2.66 1.98 3 3 C0.36 4.98 -2.28 6.96 -5 9 C-3.7580393 5.56072421 -2.44259716 2.74792181 0 0 Z " fill="#4C4C4C" transform="translate(51,58)"/>
<path d="M0 0 C0.66 0.33 1.32 0.66 2 1 C2 1.99 2 2.98 2 4 C0.02 4.99 0.02 4.99 -2 6 C-2.66 5.34 -3.32 4.68 -4 4 C-4 3.34 -4 2.68 -4 2 C-2.125 0.9375 -2.125 0.9375 0 0 Z " fill="#050505" transform="translate(94,77)"/>
<path d="M0 0 C0.33 0.66 0.66 1.32 1 2 C1.66 2 2.32 2 3 2 C2.67 2.99 2.34 3.98 2 5 C-0.31 5 -2.62 5 -5 5 C-4.1875 3.0625 -4.1875 3.0625 -3 1 C-2.01 0.67 -1.02 0.34 0 0 Z " fill="#616161" transform="translate(147,64)"/>
<path d="M0 0 C-0.75 2.4375 -0.75 2.4375 -2 5 C-4 5.9375 -4 5.9375 -6 6 C-6.66 5.34 -7.32 4.68 -8 4 C-2.25 0 -2.25 0 0 0 Z " fill="#3F3F3F" transform="translate(75,40)"/>
<path d="M0 0 C0.66 0.33 1.32 0.66 2 1 C0.35 3.64 -1.3 6.28 -3 9 C-3.66 8.67 -4.32 8.34 -5 8 C-3.62845496 5.04590299 -2.01136276 2.55991624 0 0 Z " fill="#565656" transform="translate(142,75)"/>
<path d="M0 0 C0.33 0.66 0.66 1.32 1 2 C0.0625 4.625 0.0625 4.625 -1 7 C-2.32 6.67 -3.64 6.34 -5 6 C-4.67 5.34 -4.34 4.68 -4 4 C-3.34 4 -2.68 4 -2 4 C-1.34 2.68 -0.68 1.36 0 0 Z " fill="#474747" transform="translate(104,120)"/>
<path d="M0 0 C0.33 0 0.66 0 1 0 C2.0070238 5.03511899 1.97387813 8.23947038 0 13 C-0.33 13 -0.66 13 -1 13 C-1.07654536 8.48382401 -1.10228696 4.40914783 0 0 Z " fill="#6E6E6E" transform="translate(35,89)"/>
</svg>
