<?xml version="1.0" encoding="UTF-8"?>
<svg version="1.1" xmlns="http://www.w3.org/2000/svg" width="144" height="106">
<path d="M0 0 C4.72711506 3.84846914 7.62613033 7.80616174 9.6640625 13.5234375 C10.00050781 14.46703125 10.33695312 15.410625 10.68359375 16.3828125 C14.96946806 30.31591699 16.6640625 45.97112642 16.6640625 60.5234375 C17.80875 60.8946875 17.80875 60.8946875 18.9765625 61.2734375 C22.04160288 62.69903768 23.12516532 63.52663774 24.6640625 66.5234375 C24.9140625 70.2109375 24.9140625 70.2109375 24.6640625 73.5234375 C22.90967087 75.27782913 20.60908794 74.64326713 18.27235413 74.64785767 C17.4998381 74.64426239 16.72732208 74.64066711 15.93139648 74.63696289 C14.71685791 74.63718193 14.71685791 74.63718193 13.4777832 74.6374054 C10.78854742 74.63670604 8.09938001 74.6289126 5.41015625 74.62109375 C3.55070534 74.61922965 1.69125394 74.61780571 -0.16819763 74.61680603 C-5.07222846 74.61298021 -9.97622986 74.60314938 -14.88024902 74.59210205 C-19.88044842 74.58188931 -24.88065256 74.57730871 -29.88085938 74.57226562 C-39.69923171 74.56152717 -49.51758216 74.54444998 -59.3359375 74.5234375 C-59.4003273 73.08652818 -59.4462503 71.64878344 -59.484375 70.2109375 C-59.51192871 69.41042969 -59.53948242 68.60992187 -59.56787109 67.78515625 C-59.3359375 65.5234375 -59.3359375 65.5234375 -56.9609375 62.5234375 C-54.3359375 60.5234375 -54.3359375 60.5234375 -52.3359375 59.5234375 C-51.83540333 56.9884494 -51.83540333 56.9884494 -51.625 53.8984375 C-51.51687988 52.72458496 -51.40875977 51.55073242 -51.29736328 50.34130859 C-51.18634277 49.08141113 -51.07532227 47.82151367 -50.9609375 46.5234375 C-47.48904316 11.19233257 -47.48904316 11.19233257 -37.2109375 1.0859375 C-27.1023575 -6.67129889 -10.62102448 -6.71362417 0 0 Z M-34.0234375 4.7109375 C-46.60781635 20.01626313 -46.3359375 40.75165933 -46.3359375 59.5234375 C-27.1959375 59.5234375 -8.0559375 59.5234375 11.6640625 59.5234375 C11.32959701 30.21907648 11.32959701 30.21907648 -1.7734375 4.0859375 C-9.48209177 -2.47804421 -26.38642194 -1.50523795 -34.0234375 4.7109375 Z M-55.3359375 66.5234375 C-55.3359375 67.8434375 -55.3359375 69.1634375 -55.3359375 70.5234375 C-30.5859375 70.5234375 -5.8359375 70.5234375 19.6640625 70.5234375 C19.2187627 65.89323763 19.2187627 65.89323763 17.6640625 64.5234375 C15.50216119 64.41860709 13.33679435 64.38486908 11.17236328 64.37817383 C10.49428619 64.37481522 9.81620911 64.3714566 9.11758423 64.36799622 C6.86482943 64.35845873 4.61214876 64.3565416 2.359375 64.35546875 C0.79857349 64.3522577 -0.7622277 64.34889375 -2.32302856 64.34538269 C-5.59996234 64.33938413 -8.87686971 64.33754349 -12.15380859 64.33813477 C-16.35619399 64.33823634 -20.55841023 64.32459272 -24.76075554 64.30736256 C-27.98634623 64.29625124 -31.21189594 64.2942153 -34.43750381 64.29474449 C-35.98687446 64.29356273 -37.53624612 64.28913001 -39.08559799 64.28141212 C-41.25233587 64.27163122 -43.41870561 64.27448275 -45.58544922 64.28051758 C-46.81931366 64.27909256 -48.0531781 64.27766754 -49.32443237 64.27619934 C-52.5158221 64.29325632 -52.5158221 64.29325632 -55.3359375 66.5234375 Z " fill="#A91628" transform="translate(92.3359375,19.4765625)"/>
<path d="M0 0 C6.07714335 3.58158638 10.34317636 8.27122022 12.6171875 15.0234375 C13.53997643 22.20187698 12.77921247 28.04649672 8.6171875 34.0234375 C4.4353622 39.13455731 -0.48465299 42.46087512 -7.0625 43.41015625 C-14.30002108 43.70086001 -19.67088121 42.35573946 -25.1015625 37.48046875 C-29.7594873 32.49146596 -32.033897 27.27998221 -32.7578125 20.5234375 C-32.0646699 14.05410659 -29.9692726 8.74093932 -25.3828125 4.0234375 C-17.402102 -1.91964479 -9.53846408 -3.90920659 0 0 Z M-26.3828125 13.0234375 C-28.16922585 18.38267756 -28.03911394 23.89045781 -26.3828125 29.2734375 C-22.89541425 34.06861009 -19.43402812 37.53156395 -13.40234375 38.50390625 C-7.77954119 38.65058806 -3.04732876 38.43649818 1.6171875 35.0234375 C5.24502466 31.31314949 7.59320298 28.14336008 8.6171875 23.0234375 C8.43237375 17.20180446 7.41465825 12.55838808 3.6171875 8.0234375 C-0.33352279 4.41031677 -4.08124508 2.70587209 -9.4453125 2.4609375 C-17.28020804 2.90555581 -21.90345562 6.83138534 -26.3828125 13.0234375 Z " fill="#C01021" transform="translate(84.3828125,28.9765625)"/>
<path d="M0 0 C6.33289598 6.17780465 10.39332331 15.74751575 10.640625 24.61328125 C10.60195312 25.70189453 10.60195312 25.70189453 10.5625 26.8125 C9.0893006 24.06252779 8.33845125 21.91630501 7.5625 18.8125 C7.5625 22.7725 7.5625 26.7325 7.5625 30.8125 C7.2325 30.8125 6.9025 30.8125 6.5625 30.8125 C6.32015625 29.678125 6.0778125 28.54375 5.828125 27.375 C2.77200077 12.0413939 2.77200077 12.0413939 -7.4375 0.8125 C-15.37934339 -1.35470424 -25.84293499 -1.58081628 -33.4375 1.8125 C-42.44089976 8.93146725 -44.26068416 20.14610239 -46.4375 30.8125 C-47.0975 39.7225 -47.7575 48.6325 -48.4375 57.8125 C-29.2975 57.8125 -10.1575 57.8125 9.5625 57.8125 C9.5625 58.1425 9.5625 58.4725 9.5625 58.8125 C-9.9075 58.8125 -29.3775 58.8125 -49.4375 58.8125 C-49.7675 54.8525 -50.0975 50.8925 -50.4375 46.8125 C-51.0975 47.4725 -51.7575 48.1325 -52.4375 48.8125 C-53.32332694 33.91748402 -50.98192774 13.8655175 -41.6875 1.6875 C-31.31066496 -8.93065678 -11.23788793 -9.14906118 0 0 Z " fill="#C6121F" transform="translate(94.4375,21.1875)"/>
<path d="M0 0 C0.66 0.33 1.32 0.66 2 1 C2.59355614 3.64860427 2.74209269 6.29197322 3 9 C3.66 9 4.32 9 5 9 C5.50617935 13.52016366 6.00384437 18.04122599 6.5 22.5625 C6.64308594 23.83931641 6.78617187 25.11613281 6.93359375 26.43164062 C7.06894531 27.67236328 7.20429687 28.91308594 7.34375 30.19140625 C7.53227539 31.89598999 7.53227539 31.89598999 7.72460938 33.63500977 C8.00652339 37.07970912 8 40.54378398 8 44 C-15.1 44 -38.2 44 -62 44 C-61.34 43.34 -60.68 42.68 -60 42 C-59.57403392 39.40423759 -59.57403392 39.40423759 -59.4375 36.5 C-59.09516616 31.19033233 -59.09516616 31.19033233 -58 29 C-57.77377919 27.29636178 -57.59111527 25.58671299 -57.4375 23.875 C-57.35371094 22.96492188 -57.26992188 22.05484375 -57.18359375 21.1171875 C-57.09271484 20.06917969 -57.09271484 20.06917969 -57 19 C-56.67 19 -56.34 19 -56 19 C-56 26.26 -56 33.52 -56 41 C-36.53 41 -17.06 41 3 41 C2.67 40.01 2.34 39.02 2 38 C1.77712209 35.12786007 1.60090529 32.27089308 1.46484375 29.39453125 C1.42186661 28.55532639 1.37888947 27.71612152 1.33460999 26.85148621 C1.19829707 24.17200598 1.06782862 21.49227732 0.9375 18.8125 C0.84608799 16.99542331 0.75429575 15.1783657 0.66210938 13.36132812 C0.43699418 8.90776151 0.21712004 4.45396326 0 0 Z " fill="#DC0F12" transform="translate(101,39)"/>
<path d="M0 0 C0.99 0.66 1.98 1.32 3 2 C3.1875 4.625 3.1875 4.625 3 7 C3.78375 6.95875 4.5675 6.9175 5.375 6.875 C8 7 8 7 10 9 C10.55041891 12.05337649 10.56448729 14.94841524 10 18 C7.5776532 20.10361696 6.21754366 21 3 21 C3.020625 21.804375 3.04125 22.60875 3.0625 23.4375 C3 26 3 26 2 27 C0.31391034 27.07205511 -1.37500659 27.08386068 -3.0625 27.0625 C-3.98160156 27.05347656 -4.90070313 27.04445313 -5.84765625 27.03515625 C-6.55792969 27.02355469 -7.26820312 27.01195313 -8 27 C-8.391875 26.05125 -8.78375 25.1025 -9.1875 24.125 C-11.21938052 20.62175773 -12.22429526 20.09296716 -16 19 C-17 18 -17 18 -17.25 14.125 C-17.21168933 11.45283078 -17.18575122 10.29720196 -15.75 8 C-14 7 -14 7 -10 7 C-9.814375 5.5459375 -9.814375 5.5459375 -9.625 4.0625 C-9.41875 3.051875 -9.2125 2.04125 -9 1 C-5.98131566 -0.50934217 -3.32702771 -0.17510672 0 0 Z M-5 5 C-5.66 6.98 -6.32 8.96 -7 11 C-8.65 11.33 -10.3 11.66 -12 12 C-12 13.32 -12 14.64 -12 16 C-10.02 16 -8.04 16 -6 16 C-5.67 17.98 -5.34 19.96 -5 22 C-3.68 22 -2.36 22 -1 22 C-0.67 20.35 -0.34 18.7 0 17 C1.65 16.67 3.3 16.34 5 16 C5 14.68 5 13.36 5 12 C3.35 11.67 1.7 11.34 0 11 C-0.33 9.02 -0.66 7.04 -1 5 C-2.32 5 -3.64 5 -5 5 Z " fill="#B2192F" transform="translate(78,36)"/>
<path d="M0 0 C0.33 0 0.66 0 1 0 C1 1.98 1 3.96 1 6 C-25.4 6 -51.8 6 -79 6 C-79 5.01 -79 4.02 -79 3 C-52.93 3 -26.86 3 0 3 C0 2.01 0 1.02 0 0 Z " fill="#D10E1E" transform="translate(114,87)"/>
<path d="M0 0 C6.15234375 -0.09765625 6.15234375 -0.09765625 8 0 C9.5788684 1.5788684 9.28319742 3.19292337 9.375 5.375 C9.359375 7.83203125 9.359375 7.83203125 9 10 C6.5776532 12.10361696 5.21754366 13 2 13 C2.020625 13.804375 2.04125 14.60875 2.0625 15.4375 C2 18 2 18 1 19 C-0.68608966 19.07205511 -2.37500659 19.08386068 -4.0625 19.0625 C-4.98160156 19.05347656 -5.90070313 19.04445313 -6.84765625 19.03515625 C-7.55792969 19.02355469 -8.26820312 19.01195313 -9 19 C-9.66 16.69 -10.32 14.38 -11 12 C-12.32 11.67 -13.64 11.34 -15 11 C-15 10.01 -15 9.02 -15 8 C-12.36 8 -9.72 8 -7 8 C-6.67 9.98 -6.34 11.96 -6 14 C-4.68 14 -3.36 14 -2 14 C-2 12.35 -2 10.7 -2 9 C-0.02 8.34 1.96 7.68 4 7 C4.33 5.35 4.66 3.7 5 2 C3.35 2 1.7 2 0 2 C0 1.34 0 0.68 0 0 Z " fill="#C71022" transform="translate(79,44)"/>
<path d="M0 0 C0.33 1.32 0.66 2.64 1 4 C1.66 4 2.32 4 3 4 C2.67 7.3 2.34 10.6 2 14 C1.34 22.91 0.68 31.82 0 41 C19.14 41 38.28 41 58 41 C58 41.33 58 41.66 58 42 C38.53 42 19.06 42 -1 42 C-1.33 38.04 -1.66 34.08 -2 30 C-2.66 30.66 -3.32 31.32 -4 32 C-4.62363378 21.51371352 -3.33232511 9.99697533 0 0 Z " fill="#AC1929" transform="translate(46,38)"/>
<path d="M0 0 C0.99 0 1.98 0 3 0 C2.66194609 8.70488808 2.66194609 8.70488808 0.5625 12.8125 C-5.96547516 18.38516173 -12.086659 20.59388038 -20.65234375 20.2734375 C-24.35623058 19.84203637 -25.72517012 19.32194358 -28.1875 16.4375 C-28.785625 15.633125 -29.38375 14.82875 -30 14 C-27.43503434 12.71751717 -26.7309346 13.29585658 -24 14 C-14.49572798 14.71440008 -14.49572798 14.71440008 -6 11 C-2.71797033 7.62680284 -1.25930442 4.51250751 0 0 Z " fill="#C11224" transform="translate(92,52)"/>
<path d="M0 0 C5.46522492 0.13663062 8.34325433 2.39274978 12.17578125 5.984375 C18.0171909 12.43869487 21.30667125 22.36720419 21 31 C19.5268006 28.25002779 18.77595125 26.10380501 18 23 C18 26.96 18 30.92 18 35 C17.67 35 17.34 35 17 35 C16.75765625 33.865625 16.5153125 32.73125 16.265625 31.5625 C13.20950077 16.2288939 13.20950077 16.2288939 3 5 C-1.67637858 3.61440635 -6.4821492 3.88793839 -11.3125 3.9375 C-12.56643555 3.94426758 -12.56643555 3.94426758 -13.84570312 3.95117188 C-15.89716649 3.96289452 -17.94859273 3.98082797 -20 4 C-16.95318939 1.96879293 -16.39881676 1.75340125 -12.98828125 1.8046875 C-12.23095703 1.81113281 -11.47363281 1.81757813 -10.69335938 1.82421875 C-9.90767578 1.84097656 -9.12199219 1.85773437 -8.3125 1.875 C-7.51521484 1.88402344 -6.71792969 1.89304687 -5.89648438 1.90234375 C-3.930861 1.92588415 -1.96539225 1.96175453 0 2 C0 1.34 0 0.68 0 0 Z " fill="#B41528" transform="translate(84,17)"/>
<path d="M0 0 C0.99 0.495 0.99 0.495 2 1 C2.59355614 3.64860427 2.74209269 6.29197322 3 9 C3.66 9 4.32 9 5 9 C5.42998603 12.91409265 5.85715029 16.82848207 6.28173828 20.74316406 C6.49753938 22.72737551 6.71555385 24.71134582 6.93359375 26.6953125 C7.06894531 27.94570312 7.20429687 29.19609375 7.34375 30.484375 C7.53227539 32.21252441 7.53227539 32.21252441 7.72460938 33.97558594 C8 37 8 37 8 41 C7.34 41 6.68 41 6 41 C6 40.34 6 39.68 6 39 C5.34 39 4.68 39 4 39 C3.67 39.66 3.34 40.32 3 41 C1.71842301 37.15526904 1.65472496 33.40864931 1.46484375 29.39453125 C1.42186661 28.55532639 1.37888947 27.71612152 1.33460999 26.85148621 C1.19829707 24.17200598 1.06782862 21.49227732 0.9375 18.8125 C0.84608799 16.99542331 0.75429575 15.1783657 0.66210938 13.36132812 C0.43699418 8.90776151 0.21712004 4.45396326 0 0 Z " fill="#C20F1C" transform="translate(101,39)"/>
<path d="M0 0 C6.23139414 1.21588178 9.49220382 4.98240494 13 10 C14.77105047 13.606185 15.27249429 16.49601606 15.25 20.5 C15.25515625 21.4178125 15.2603125 22.335625 15.265625 23.28125 C14.98262598 26.1778282 14.20350245 28.36375653 13 31 C12.67 31 12.34 31 12 31 C12.33 28.36 12.66 25.72 13 23 C12.34 23 11.68 23 11 23 C10.74476562 21.89591797 10.74476562 21.89591797 10.484375 20.76953125 C9.13081506 15.31929254 8.0771894 11.0771894 4 7 C3.4225 6.401875 2.845 5.80375 2.25 5.1875 C1.8375 4.795625 1.425 4.40375 1 4 C1.66 4 2.32 4 3 4 C3 3.34 3 2.68 3 2 C2.01 2 1.02 2 0 2 C0 1.34 0 0.68 0 0 Z " fill="#BB1026" transform="translate(82,29)"/>
<path d="M0 0 C0.33 0 0.66 0 1 0 C1.33 7.26 1.66 14.52 2 22 C26.75 22.495 26.75 22.495 52 23 C52 23.33 52 23.66 52 24 C23.785 24.495 23.785 24.495 -5 25 C-4.34 24.34 -3.68 23.68 -3 23 C-2.57403392 20.40423759 -2.57403392 20.40423759 -2.4375 17.5 C-2.09516616 12.19033233 -2.09516616 12.19033233 -1 10 C-0.77377919 8.29636178 -0.59111527 6.58671299 -0.4375 4.875 C-0.35371094 3.96492188 -0.26992188 3.05484375 -0.18359375 2.1171875 C-0.12300781 1.41851562 -0.06242187 0.71984375 0 0 Z " fill="#E7080A" transform="translate(44,58)"/>
<path d="M0 0 C14.85 0.33 29.7 0.66 45 1 C45 1.66 45 2.32 45 3 C30.15 3 15.3 3 0 3 C0 2.01 0 1.02 0 0 Z " fill="#E8070E" transform="translate(35,90)"/>
<path d="M0 0 C0.33 0 0.66 0 1 0 C1.09796875 0.88042969 1.1959375 1.76085938 1.296875 2.66796875 C1.44640625 3.82941406 1.5959375 4.99085937 1.75 6.1875 C1.88921875 7.33605469 2.0284375 8.48460937 2.171875 9.66796875 C3.39851576 14.60346198 6.39065254 17.57111992 10 21 C9.01 21.33 8.02 21.66 7 22 C7.99 22.99 8.98 23.98 10 25 C4.77204763 23.61613025 2.05057385 20.24038711 -1 16 C-3.06734007 12.4040404 -3.06734007 12.4040404 -2.625 9.75 C-2.41875 9.1725 -2.2125 8.595 -2 8 C-1.34 8.33 -0.68 8.66 0 9 C0 6.03 0 3.06 0 0 Z " fill="#BA1629" transform="translate(56,45)"/>
<path d="M0 0 C2.64 0 5.28 0 8 0 C8 2.31 8 4.62 8 7 C10.97 7.495 10.97 7.495 14 8 C14.33 7.34 14.66 6.68 15 6 C15 6.99 15 7.98 15 9 C12.26094655 10.36952673 10.02912668 10.12621361 7 10 C6.34 9.67 5.68 9.34 5 9 C4.375 6.4375 4.375 6.4375 4 4 C2.68 3.67 1.36 3.34 0 3 C0 2.01 0 1.02 0 0 Z " fill="#D90C16" transform="translate(64,52)"/>
<path d="M0 0 C1.67542976 0.28604898 3.34385343 0.61781233 5 1 C5 1.66 5 2.32 5 3 C8.96 3.33 12.92 3.66 17 4 C17 4.99 17 5.98 17 7 C15.22925083 7.02705729 13.45838289 7.04642195 11.6875 7.0625 C10.70136719 7.07410156 9.71523437 7.08570312 8.69921875 7.09765625 C6 7 6 7 3 6 C1.61423077 4.37667033 0.27358732 2.71275535 -1 1 C-0.67 0.67 -0.34 0.34 0 0 Z " fill="#D60B16" transform="translate(63,65)"/>
<path d="M0 0 C0.33 0 0.66 0 1 0 C1.042721 1.66611905 1.04063832 3.33382885 1 5 C0 6 0 6 -2.5625 6.0625 C-3.7690625 6.0315625 -3.7690625 6.0315625 -5 6 C-5 7.32 -5 8.64 -5 10 C-4.01 9.67 -3.02 9.34 -2 9 C-2 10.32 -2 11.64 -2 13 C-2.66 13 -3.32 13 -4 13 C-4 13.99 -4 14.98 -4 16 C-2.35 16.33 -0.7 16.66 1 17 C0.67 18.32 0.34 19.64 0 21 C-0.33 20.01 -0.66 19.02 -1 18 C-3.47130918 16.84478498 -3.47130918 16.84478498 -6 16 C-7 15 -7 15 -7.25 11.125 C-7.21168933 8.45283078 -7.18575122 7.29720196 -5.75 5 C-4 4 -4 4 0 4 C0 2.68 0 1.36 0 0 Z " fill="#B2182D" transform="translate(68,39)"/>
<path d="M0 0 C-0.639375 0.185625 -1.27875 0.37125 -1.9375 0.5625 C-4.42126213 1.94246056 -4.42126213 1.94246056 -4.75 5.625 C-4.8325 6.73875 -4.915 7.8525 -5 9 C-11.75 11 -11.75 11 -14 11 C-14 9.68 -14 8.36 -14 7 C-12.35 6.67 -10.7 6.34 -9 6 C-8.67 4.35 -8.34 2.7 -8 1 C-5.07175348 0.02391783 -3.04386724 -0.08226668 0 0 Z " fill="#D20C1A" transform="translate(77,38)"/>
<path d="M0 0 C0.33 0 0.66 0 1 0 C1 3.3 1 6.6 1 10 C0.01 10.33 -0.98 10.66 -2 11 C-2.80212628 12.87387216 -2.80212628 12.87387216 -3.1875 15.0625 C-3.34605469 15.79597656 -3.50460938 16.52945313 -3.66796875 17.28515625 C-3.77753906 17.85105469 -3.88710938 18.41695312 -4 19 C-4.66 19 -5.32 19 -6 19 C-6.33 19.99 -6.66 20.98 -7 22 C-7.35019345 18.60182656 -7.54241082 15.38335462 -7 12 C-4.0625 9.875 -4.0625 9.875 -1 8 C-0.14783004 5.24518642 -0.09723275 2.91698262 0 0 Z " fill="#CF0E1E" transform="translate(41,71)"/>
<path d="M0 0 C2.0625 0.4375 2.0625 0.4375 4 1 C3.01 1 2.02 1 1 1 C1 2.32 1 3.64 1 5 C1.66 5 2.32 5 3 5 C3.042721 6.66611905 3.04063832 8.33382885 3 10 C2 11 2 11 -0.28515625 11.09765625 C-1.65994141 11.08025391 -1.65994141 11.08025391 -3.0625 11.0625 C-3.98160156 11.05347656 -4.90070313 11.04445313 -5.84765625 11.03515625 C-6.55792969 11.02355469 -7.26820312 11.01195312 -8 11 C-8.33 10.34 -8.66 9.68 -9 9 C-5.7 9 -2.4 9 1 9 C-1.31 8.34 -3.62 7.68 -6 7 C-6 5.35 -6 3.7 -6 2 C-5.67 3.32 -5.34 4.64 -5 6 C-3.68 6 -2.36 6 -1 6 C-1.020625 5.195625 -1.04125 4.39125 -1.0625 3.5625 C-1 1 -1 1 0 0 Z " fill="#AD182E" transform="translate(78,52)"/>
<path d="M0 0 C3.63 0.33 7.26 0.66 11 1 C11 1.99 11 2.98 11 4 C11.99 4 12.98 4 14 4 C14 4.66 14 5.32 14 6 C13.01 6.33 12.02 6.66 11 7 C10.34 6.67 9.68 6.34 9 6 C9 5.34 9 4.68 9 4 C4.71 4 0.42 4 -4 4 C-2.68 3.34 -1.36 2.68 0 2 C0 1.34 0 0.68 0 0 Z " fill="#DE0B12" transform="translate(71,27)"/>
<path d="M0 0 C4.38750292 1.19659171 7.23321262 2.31095016 10 6 C10.75 9.25 10.75 9.25 11 12 C10.01 11.34 9.02 10.68 8 10 C8 9.34 8 8.68 8 8 C7.401875 7.896875 6.80375 7.79375 6.1875 7.6875 C3.71756736 6.91123545 2.67748765 5.92911079 1 4 C1.66 4 2.32 4 3 4 C3 3.34 3 2.68 3 2 C2.01 2 1.02 2 0 2 C0 1.34 0 0.68 0 0 Z " fill="#C11326" transform="translate(82,29)"/>
<path d="M0 0 C0.33 0.99 0.66 1.98 1 3 C-1.95664519 4.4783226 -4.74229737 4.06032783 -8 4 C-8.33 2.68 -8.66 1.36 -9 0 C-5.93109813 -1.53445094 -3.29905734 -0.54984289 0 0 Z " fill="#B81223" transform="translate(121,48)"/>
<path d="M0 0 C1 1 1 1 1.0625 3.5625 C1.041875 4.366875 1.02125 5.17125 1 6 C-1.97 5.505 -1.97 5.505 -5 5 C-5.33 5.66 -5.66 6.32 -6 7 C-5.67 5.68 -5.34 4.36 -5 3 C-6.32 3 -7.64 3 -9 3 C-9 2.34 -9 1.68 -9 1 C-6.01787087 -0.49106457 -3.28390342 -0.11941467 0 0 Z " fill="#BF1022" transform="translate(78,36)"/>
<path d="M0 0 C2.76262553 0.3810518 3.84143894 0.83597132 5.8125 2.875 C6.204375 3.57625 6.59625 4.2775 7 5 C6.67 5.99 6.34 6.98 6 8 C3.50638429 6.79618552 1.31856917 5.54571278 -1 4 C-0.67 2.68 -0.34 1.36 0 0 Z " fill="#AA1F37" transform="translate(42,16)"/>
<path d="M0 0 C0.99 0.33 1.98 0.66 3 1 C2.59316505 3.35964273 2.10185661 4.85934088 0.6875 6.8125 C-1 8 -1 8 -3.1875 7.6875 C-3.785625 7.460625 -4.38375 7.23375 -5 7 C-3.70700306 4.11562221 -2.34058637 2.12780579 0 0 Z " fill="#B02238" transform="translate(105,16)"/>
<path d="M0 0 C1.98 0.495 1.98 0.495 4 1 C4 3.31 4 5.62 4 8 C2.68 8.33 1.36 8.66 0 9 C-1.125 2.25 -1.125 2.25 0 0 Z " fill="#B42136" transform="translate(73,3)"/>
<path d="M0 0 C0 0.99 0 1.98 0 3 C-3.3125 3.6875 -3.3125 3.6875 -7 4 C-8.9375 2.5625 -8.9375 2.5625 -10 1 C-3.71428571 -1.42857143 -3.71428571 -1.42857143 0 0 Z " fill="#B91825" transform="translate(37,48)"/>
<path d="M0 0 C2.50037734 2.17424117 3.43628586 3.73045798 4 7 C3.34 7 2.68 7 2 7 C2 9.97 2 12.94 2 16 C1.67 16 1.34 16 1 16 C0.80664062 15.25234375 0.61328125 14.5046875 0.4140625 13.734375 C0.15367188 12.74953125 -0.10671875 11.7646875 -0.375 10.75 C-0.63023438 9.77546875 -0.88546875 8.8009375 -1.1484375 7.796875 C-1.89598509 5.34162697 -2.77123817 3.24382595 -4 1 C-3.34 1 -2.68 1 -2 1 C-1.34 1.99 -0.68 2.98 0 4 C0 2.68 0 1.36 0 0 Z " fill="#AA1732" transform="translate(92,36)"/>
<path d="M0 0 C1.125 1.625 1.125 1.625 2 4 C1.125 7.25 1.125 7.25 0 10 C-0.99 10 -1.98 10 -3 10 C-3.29296875 3.9453125 -3.29296875 3.9453125 -3 2 C-2.01 1.34 -1.02 0.68 0 0 Z " fill="#CC0D1C" transform="translate(50,32)"/>
<path d="M0 0 C2.5 1.0625 2.5 1.0625 5 3 C5.3125 6.6875 5.3125 6.6875 5 10 C4.34 10 3.68 10 3 10 C2.67 9.01 2.34 8.02 2 7 C1.34 7 0.68 7 0 7 C0 4.69 0 2.38 0 0 Z " fill="#BB0E20" transform="translate(112,83)"/>
<path d="M0 0 C0.33 0 0.66 0 1 0 C1.33 4.62 1.66 9.24 2 14 C1.34 14 0.68 14 0 14 C0 13.34 0 12.68 0 12 C-0.66 12 -1.32 12 -2 12 C-2 10.35 -2 8.7 -2 7 C-1.34 7 -0.68 7 0 7 C0 4.69 0 2.38 0 0 Z " fill="#C0101C" transform="translate(107,66)"/>
<path d="M0 0 C0 3 0 3 -1 6 C-0.34 6.66 0.32 7.32 1 8 C0.67 8.99 0.34 9.98 0 11 C-1.32 11 -2.64 11 -4 11 C-4.33 10.34 -4.66 9.68 -5 9 C-4.2578125 7.08984375 -4.2578125 7.08984375 -3.125 4.9375 C-2.75632813 4.22464844 -2.38765625 3.51179688 -2.0078125 2.77734375 C-1 1 -1 1 0 0 Z " fill="#AD172D" transform="translate(53,23)"/>
<path d="M0 0 C0.33 1.32 0.66 2.64 1 4 C1.99 4.33 2.98 4.66 4 5 C3.67 7.97 3.34 10.94 3 14 C2.34 14 1.68 14 1 14 C0.67 9.38 0.34 4.76 0 0 Z " fill="#E1070C" transform="translate(104,59)"/>
<path d="M0 0 C2.31 0 4.62 0 7 0 C7.33 1.98 7.66 3.96 8 6 C7.01 6.495 7.01 6.495 6 7 C5.67 5.35 5.34 3.7 5 2 C3.35 2 1.7 2 0 2 C0 1.34 0 0.68 0 0 Z " fill="#DE0A18" transform="translate(79,44)"/>
<path d="M0 0 C0.33 0 0.66 0 1 0 C1.08090971 1.62418745 1.13914995 3.24951745 1.1875 4.875 C1.22230469 5.77992187 1.25710937 6.68484375 1.29296875 7.6171875 C1.19628906 8.40351562 1.09960938 9.18984375 1 10 C-2 12 -2 12 -4.1875 11.625 C-4.785625 11.41875 -5.38375 11.2125 -6 11 C-5.195625 10.67 -4.39125 10.34 -3.5625 10 C-0.87589576 8.31078867 -0.87589576 8.31078867 -0.4453125 6.01953125 C-0.2118705 4.02112624 -0.09883105 2.00956467 0 0 Z " fill="#B71C2C" transform="translate(41,71)"/>
<path d="M0 0 C0.33 1.32 0.66 2.64 1 4 C-1.65228812 5.07525194 -4.28368454 6.09456151 -7 7 C-7 5.68 -7 4.36 -7 3 C-3.535 2.505 -3.535 2.505 0 2 C0 1.34 0 0.68 0 0 Z " fill="#EA070A" transform="translate(70,42)"/>
<path d="M0 0 C2.31 0.33 4.62 0.66 7 1 C7 1.99 7 2.98 7 4 C4.69 3.67 2.38 3.34 0 3 C0 2.01 0 1.02 0 0 Z " fill="#EC0809" transform="translate(64,52)"/>
<path d="M0 0 C0.66 0 1.32 0 2 0 C1.51171875 6.0546875 1.51171875 6.0546875 1 8 C0.01 8.66 -0.98 9.32 -2 10 C-1.34 6.7 -0.68 3.4 0 0 Z " fill="#E70813" transform="translate(93,52)"/>
<path d="M0 0 C0.33 0 0.66 0 1 0 C1 2.31 1 4.62 1 7 C-0.32 6.67 -1.64 6.34 -3 6 C-2.01 4.02 -1.02 2.04 0 0 Z " fill="#D10D0E" transform="translate(54,23)"/>
<path d="M0 0 C1.32 0 2.64 0 4 0 C3.67 1.32 3.34 2.64 3 4 C1.68 3.67 0.36 3.34 -1 3 C-0.67 2.01 -0.34 1.02 0 0 Z " fill="#AB1B2A" transform="translate(101,20)"/>
</svg>
