<?xml version="1.0" encoding="UTF-8"?>
<svg version="1.1" xmlns="http://www.w3.org/2000/svg" width="160" height="143">
<path d="M0 0 C2.9375 0.5625 2.9375 0.5625 5.3125 2.0625 C7.28433501 5.09609233 7.58302934 7.08181016 7.3828125 10.65234375 C6.9375 12.5625 6.9375 12.5625 4.875 15.125 C1.01114271 17.01582378 -0.96331728 16.75498952 -5.0625 15.5625 C-7.5 13.5 -7.5 13.5 -9.0625 11.5625 C-12.23228715 13.84252234 -13.79996881 15.23060357 -14.56884766 19.13134766 C-14.77888381 22.21954348 -14.85798283 25.2797667 -14.875 28.375 C-14.90013672 29.44943359 -14.92527344 30.52386719 -14.95117188 31.63085938 C-15.00993295 34.27510771 -15.04629376 36.91770488 -15.0625 39.5625 C-12.0925 39.5625 -9.1225 39.5625 -6.0625 39.5625 C-4.75806699 42.17136601 -4.91578714 44.27332699 -4.8125 47.1875 C-4.35716264 53.1140003 -3.01843008 57.10227289 0.9375 61.5625 C4.75630275 64.76203744 9.01209001 65.68607659 13.9375 65.5625 C20.19641906 64.56531629 23.94053091 62.22532751 27.84375 57.28125 C30.58230982 52.97779886 30.32473671 48.11686763 30.65625 43.1796875 C30.9375 40.5625 30.9375 40.5625 31.9375 39.5625 C33.45678038 39.49070036 34.97917482 39.47857993 36.5 39.5 C37.32628906 39.50902344 38.15257812 39.51804688 39.00390625 39.52734375 C39.64199219 39.53894531 40.28007813 39.55054688 40.9375 39.5625 C40.85656185 35.81162023 40.74372313 32.06235902 40.625 28.3125 C40.59116211 26.71728516 40.59116211 26.71728516 40.55664062 25.08984375 C40.52119141 24.06503906 40.48574219 23.04023438 40.44921875 21.984375 C40.42303467 21.04174805 40.39685059 20.09912109 40.36987305 19.12792969 C39.87488106 16.1909586 38.88904016 14.77076197 36.9375 12.5625 C34.01687259 12.9681427 32.29063322 13.26632375 30 15.1875 C27.9375 16.5625 27.9375 16.5625 24.875 16.4375 C20.65217639 15.17963765 20.65217639 15.17963765 18.9375 12.5625 C18.07246266 9.43505732 17.65298367 7.41604898 18.6875 4.3125 C19.9375 2.5625 19.9375 2.5625 22.9375 0.5625 C25.8125 0.125 25.8125 0.125 28.9375 0.5625 C30.64743434 2.1847454 32.31097684 3.85663425 33.9375 5.5625 C36.25398799 6.60092565 38.58653024 7.6046975 40.9375 8.5625 C44.20203402 10.92647291 44.86523587 13.75040565 45.9375 17.5625 C46.29836421 22.20818567 46.26696129 26.852401 46.25317383 31.51000977 C46.25003318 33.72658387 46.27343718 35.94179545 46.29882812 38.15820312 C46.3545097 50.36540222 45.00440724 60.91973181 36.9375 70.5625 C34.16638268 73.35760968 31.47299918 75.9217678 27.8125 77.44921875 C25.76252 78.41289058 25.76252 78.41289058 25.1015625 80.5859375 C24.74358079 82.14756786 24.3893822 83.7100705 24.0390625 85.2734375 C22.9375 87.5625 22.9375 87.5625 19.87109375 89.09765625 C16.7429465 91.21357772 16.7429465 91.21357772 16.40039062 94.07617188 C16.23687531 97.27817425 16.26775278 100.42075424 16.375 103.625 C16.37693359 104.72650391 16.37886719 105.82800781 16.38085938 106.96289062 C16.17532901 112.50271715 16.17532901 112.50271715 18.32055664 117.34545898 C20.57166294 119.0398218 22.12221421 119.42843877 24.9375 119.5625 C27.72912078 118.85478689 27.72912078 118.85478689 29.9375 116.5625 C30.6616341 113.15978043 30.59088842 109.78061904 30.5625 106.3125 C30.5625 92.03841362 30.5625 92.03841362 36.2890625 86.140625 C41.89619377 83.71527058 47.27941071 84.14255382 53.3125 84.3125 C54.52550781 84.33054687 55.73851563 84.34859375 56.98828125 84.3671875 C59.9721679 84.41417784 62.95442279 84.47986628 65.9375 84.5625 C66.06898437 83.93859375 66.20046875 83.3146875 66.3359375 82.671875 C66.9375 80.5625 66.9375 80.5625 68.5625 78.8125 C71.91713578 77.04690222 74.19572943 77.10298432 77.9375 77.5625 C80.8125 79.125 80.8125 79.125 82.9375 81.5625 C83.92451011 85.18153706 84.14351533 87.65603255 83.3125 91.3125 C81.51246929 94.25800479 80.14825562 95.27819775 76.9375 96.5625 C72.86567717 96.49106451 70.70794979 96.17490881 67.5 93.625 C65.9375 91.5625 65.9375 91.5625 65.9375 89.5625 C61.83277342 89.6721972 57.72897852 89.80286976 53.625 89.9375 C51.87413086 89.98390625 51.87413086 89.98390625 50.08789062 90.03125 C48.96962891 90.06992188 47.85136719 90.10859375 46.69921875 90.1484375 C45.66756592 90.1798584 44.63591309 90.2112793 43.57299805 90.24365234 C40.70906764 90.38924629 40.70906764 90.38924629 37.9375 92.5625 C36.98679004 95.41462987 36.80189796 97.27513647 36.76171875 100.23828125 C36.73787109 101.14900391 36.71402344 102.05972656 36.68945312 102.99804688 C36.64675189 104.90407474 36.61535678 106.81039205 36.59570312 108.71679688 C36.42226635 114.44021032 35.92541377 118.12285795 31.9375 122.5625 C27.93045234 125.3158575 23.62814287 125.09953246 18.9375 124.5625 C14.65900362 122.79529497 13.00270275 120.63488812 10.9375 116.5625 C10.50512695 113.69995117 10.50512695 113.69995117 10.42578125 110.60546875 C10.37260742 108.93774414 10.37260742 108.93774414 10.31835938 107.23632812 C10.29580078 106.08583984 10.27324219 104.93535156 10.25 103.75 C10.21583984 102.58017578 10.18167969 101.41035156 10.14648438 100.20507812 C10.06417684 97.32431446 9.99496822 94.44384862 9.9375 91.5625 C8.98488281 91.10488281 8.03226563 90.64726563 7.05078125 90.17578125 C3.87672441 88.5310065 2.61770709 87.65761832 0.9375 84.5625 C0.875625 83.593125 0.81375 82.62375 0.75 81.625 C0.274768 78.5673183 0.274768 78.5673183 -1.6171875 77.3828125 C-3.00891659 76.5975957 -4.40226075 75.81523724 -5.796875 75.03515625 C-12.14619219 70.90810007 -16.76760661 64.71716761 -19.0625 57.5625 C-20.02112427 52.87927386 -20.23733562 48.2959319 -20.265625 43.53125 C-20.27132507 42.77710815 -20.27702515 42.02296631 -20.28289795 41.24597168 C-20.2922981 39.65927514 -20.29886197 38.07255951 -20.30273438 36.48583984 C-20.31247122 34.06964081 -20.34355317 31.65428232 -20.375 29.23828125 C-20.38152848 27.69010917 -20.38677956 26.14193107 -20.390625 24.59375 C-20.4029718 23.87795776 -20.4153186 23.16216553 -20.42803955 22.42468262 C-20.4073166 17.72293681 -19.5296768 14.55782042 -17.0625 10.5625 C-13.08116081 6.78533205 -13.08116081 6.78533205 -10.0625 6.125 C-7.73731876 5.65880432 -7.73731876 5.65880432 -5.6875 3 C-3.0625 0.5625 -3.0625 0.5625 0 0 Z M-2.0625 5.5625 C-2.3925 7.2125 -2.7225 8.8625 -3.0625 10.5625 C-1.7425 10.8925 -0.4225 11.2225 0.9375 11.5625 C2.04586423 9.67933841 2.04586423 9.67933841 2.9375 7.5625 C2.6075 6.9025 2.2775 6.2425 1.9375 5.5625 C0.6175 5.5625 -0.7025 5.5625 -2.0625 5.5625 Z M23.9375 5.5625 C23.6075 7.2125 23.2775 8.8625 22.9375 10.5625 C25.4125 11.0575 25.4125 11.0575 27.9375 11.5625 C28.2675 9.9125 28.5975 8.2625 28.9375 6.5625 C27.2875 6.2325 25.6375 5.9025 23.9375 5.5625 Z M-12.0625 43.5625 C-13.0525 43.8925 -14.0425 44.2225 -15.0625 44.5625 C-15.58906606 52.72427393 -14.34480465 59.168447 -9.3671875 65.83203125 C-3.94308291 71.75023443 1.95564811 75.0025244 9.9609375 75.90234375 C20.25511248 76.22646765 26.45203461 73.77647881 33.953125 66.75390625 C38.69434419 61.5180323 41.11759604 55.36826245 41 48.3125 C40.979375 47.075 40.95875 45.8375 40.9375 44.5625 C40.2775 44.2325 39.6175 43.9025 38.9375 43.5625 C37.9475 43.8925 36.9575 44.2225 35.9375 44.5625 C35.04756593 47.3875432 35.04756593 47.3875432 34.5 50.75 C32.65069403 59.50785312 29.71361435 63.77814922 22.125 68.75 C15.84141679 71.08390233 10.10896947 70.96650264 3.9375 68.5625 C-0.95867619 66.26630058 -4.81239308 63.71457553 -7.328125 58.73828125 C-8.61168934 54.93538052 -9.0872211 51.01224279 -9.5703125 47.0390625 C-9.81394531 45.81316406 -9.81394531 45.81316406 -10.0625 44.5625 C-10.7225 44.2325 -11.3825 43.9025 -12.0625 43.5625 Z M18.9375 79.5625 C14.3175 79.8925 9.6975 80.2225 4.9375 80.5625 C7.26001426 85.44745525 7.26001426 85.44745525 9.9375 86.5625 C12.8532691 86.97952122 12.8532691 86.97952122 15.9375 86.5625 C18.31469693 84.68748069 18.31469693 84.68748069 19.9375 82.5625 C19.6075 81.5725 19.2775 80.5825 18.9375 79.5625 Z M69.9375 84.5625 C70.25948966 87.66176819 70.25948966 87.66176819 70.9375 90.5625 C73.28283951 91.33206136 73.28283951 91.33206136 75.9375 91.5625 C77.9375 90.5625 77.9375 90.5625 78.9375 88.5625 C78.69544651 85.24431015 78.69544651 85.24431015 76.9375 82.5625 C72.976332 82.17159667 72.976332 82.17159667 69.9375 84.5625 Z " fill="#B1CF46" transform="translate(42.0625,8.4375)"/>
<path d="M0 0 C2.69182516 1.1103908 2.69182516 1.1103908 4.95703125 -0.11328125 C8.47451824 -1.46616086 11.42495377 -1.5246093 15.1875 -1.5625 C16.46496094 -1.59085937 17.74242187 -1.61921875 19.05859375 -1.6484375 C24.04955611 -1.02522738 27.04117152 0.92507662 30.39453125 4.62890625 C30.77996094 5.20511719 31.16539062 5.78132813 31.5625 6.375 C31.96082031 6.95378906 32.35914063 7.53257813 32.76953125 8.12890625 C36.0205281 13.71129527 35.43492594 20.60747783 34.75 26.8125 C30.01847122 39.28653043 14.47071668 48.66535554 3.75 55.8125 C-2.2901016 55.39020476 -7.64502808 49.45760005 -12.25 45.8125 C-12.81509277 45.36535645 -13.38018555 44.91821289 -13.96240234 44.45751953 C-24.04905202 36.41534394 -24.04905202 36.41534394 -25.25 32.8125 C-23.93 32.1525 -22.61 31.4925 -21.25 30.8125 C-20.75113281 31.27398437 -20.25226563 31.73546875 -19.73828125 32.2109375 C-15.09965292 36.42484402 -10.3382254 40.47078548 -5.4375 44.375 C-4.88682861 44.82858887 -4.33615723 45.28217773 -3.76879883 45.74951172 C-0.83167045 48.10652634 -0.83167045 48.10652634 2.75 48.875 C5.71568553 47.29947956 8.31704398 45.33088274 10.9375 43.25 C11.50903809 42.79963379 12.08057617 42.34926758 12.66943359 41.88525391 C13.8248887 40.96834437 14.97695323 40.04714501 16.12548828 39.12158203 C17.5738083 37.95448075 19.0341583 36.80234418 20.49609375 35.65234375 C25.3104895 31.67592164 28.81017185 28.16870614 29.75 21.8125 C29.8861307 15.80006064 28.15901307 10.49947612 24.125 6 C19.72468995 3.79984498 15.12009973 3.17483946 10.33984375 4.4609375 C8.80249581 5.02043975 7.26847632 5.5891903 5.73828125 6.16796875 C3.02990168 7.04593069 1.43331155 6.70693718 -1.25 5.8125 C-7.15318509 4.07057653 -11.20893805 3.32699296 -17.25 4.8125 C-22.07572136 8.69405848 -24.0925817 12.0463377 -24.875 18.0625 C-24.99875 19.3 -25.1225 20.5375 -25.25 21.8125 C-26.9 22.1425 -28.55 22.4725 -30.25 22.8125 C-30.85653244 15.29149774 -29.59218687 10.06393988 -25.25 3.8125 C-18.24417652 -3.30737177 -8.97858472 -3.28063672 0 0 Z " fill="#B2D14B" transform="translate(114.25,68.1875)"/>
<path d="M0 0 C1.70993434 1.6222454 3.37347684 3.29413425 5 5 C7.31648799 6.03842565 9.64903024 7.0421975 12 8 C14.75890009 9.93123006 14.95829195 10.80662633 15.6875 14.1875 C15.790625 15.115625 15.89375 16.04375 16 17 C15.34 17 14.68 17 14 17 C13.67 24.26 13.34 31.52 13 39 C12.67 39 12.34 39 12 39 C11.98541748 38.32420898 11.97083496 37.64841797 11.95581055 36.95214844 C11.88124589 33.88419478 11.78461345 30.81731924 11.6875 27.75 C11.66494141 26.68652344 11.64238281 25.62304688 11.61914062 24.52734375 C11.5659668 22.99013672 11.5659668 22.99013672 11.51171875 21.421875 C11.48553467 20.47924805 11.45935059 19.53662109 11.43237305 18.56542969 C10.93738106 15.6284586 9.95154016 14.20826197 8 12 C5.07937259 12.4056427 3.35313322 12.70382375 1.0625 14.625 C-1 16 -1 16 -4.0625 15.875 C-8.28532361 14.61713765 -8.28532361 14.61713765 -10 12 C-10.86503734 8.87255732 -11.28451633 6.85354898 -10.25 3.75 C-7.43596919 -0.18964314 -4.54479989 -0.63627198 0 0 Z M-5 5 C-5.33 6.65 -5.66 8.3 -6 10 C-3.525 10.495 -3.525 10.495 -1 11 C-0.67 9.35 -0.34 7.7 0 6 C-1.65 5.67 -3.3 5.34 -5 5 Z " fill="#ABCE4A" transform="translate(71,9)"/>
<path d="M0 0 C0.33 0 0.66 0 1 0 C1 7.26 1 14.52 1 22 C3.97 22 6.94 22 10 22 C11.30443301 24.60886601 11.14671286 26.71082699 11.25 29.625 C11.7041033 35.53543824 13.03081991 39.56254585 17 44 C20.21435185 46.49112269 22.99349018 47.42764145 27 48 C27 48.33 27 48.66 27 49 C25.35 49 23.7 49 22 49 C22 49.99 22 50.98 22 52 C15.93457091 50.30732211 11.99289752 47.94760123 8.75 42.5 C5.9915218 36.98304359 5.89830401 33.1017595 6 27 C6.33 27 6.66 27 7 27 C7 28.98 7 30.96 7 33 C7.66 33 8.32 33 9 33 C9 29.7 9 26.4 9 23 C6.03 23 3.06 23 0 23 C0 15.41 0 7.82 0 0 Z " fill="#ACCA55" transform="translate(26,26)"/>
<path d="M0 0 C1.32 0.33 2.64 0.66 4 1 C4 11.89 4 22.78 4 34 C2.68 34.66 1.36 35.32 0 36 C0 33.03 0 30.06 0 27 C-0.66 26.67 -1.32 26.34 -2 26 C-1.505 24.515 -1.505 24.515 -1 23 C-0.85164052 21.22833025 -0.75229982 19.45232388 -0.68359375 17.67578125 C-0.64169922 16.64775391 -0.59980469 15.61972656 -0.55664062 14.56054688 C-0.51732422 13.48869141 -0.47800781 12.41683594 -0.4375 11.3125 C-0.39431641 10.22904297 -0.35113281 9.14558594 -0.30664062 8.02929688 C-0.20053162 5.35299209 -0.09847639 2.67659474 0 0 Z " fill="#C0DE2E" transform="translate(84,25)"/>
<path d="M0 0 C-0.10967098 4.27137254 -0.2403499 8.54184766 -0.375 12.8125 C-0.4059375 14.02744141 -0.436875 15.24238281 -0.46875 16.49414062 C-0.50742188 17.65751953 -0.54609375 18.82089844 -0.5859375 20.01953125 C-0.6173584 21.09307861 -0.6487793 22.16662598 -0.68115234 23.27270508 C-1 26 -1 26 -3 29 C-3.66 29 -4.32 29 -5 29 C-5.02905924 25.2500163 -5.04681874 21.50006163 -5.0625 17.75 C-5.07087891 16.68652344 -5.07925781 15.62304688 -5.08789062 14.52734375 C-5.09111328 13.50253906 -5.09433594 12.47773437 -5.09765625 11.421875 C-5.10289307 10.47924805 -5.10812988 9.53662109 -5.11352539 8.56542969 C-5.00719828 6.16266567 -4.85660877 4.24541373 -4 2 C-1 0 -1 0 0 0 Z " fill="#B5D137" transform="translate(78,98)"/>
<path d="M0 0 C0.66 0 1.32 0 2 0 C2 2.31 2 4.62 2 7 C-12.85 6.505 -12.85 6.505 -28 6 C-28.33 5.01 -28.66 4.02 -29 3 C-19.43 3 -9.86 3 0 3 C0 2.01 0 1.02 0 0 Z " fill="#B4D22E" transform="translate(109,91)"/>
<path d="M0 0 C3.45669582 -0.31424507 5.39901677 -0.37956836 8.375 1.5 C10.34683501 4.53359233 10.64552934 6.51931016 10.4453125 10.08984375 C10 12 10 12 7.9375 14.5625 C4.18969194 16.39653373 1.99582254 15.94019354 -2 15 C-2 14.67 -2 14.34 -2 14 C0.64 14 3.28 14 6 14 C6 13.34 6 12.68 6 12 C3.69 12 1.38 12 -1 12 C-1 9.69 -1 7.38 -1 5 C0.65 4.67 2.3 4.34 4 4 C4 3.34 4 2.68 4 2 C2.35 2 0.7 2 -1 2 C-0.67 1.34 -0.34 0.68 0 0 Z M1 5 C0.67 6.65 0.34 8.3 0 10 C1.32 10.33 2.64 10.66 4 11 C5.10836423 9.11683841 5.10836423 9.11683841 6 7 C5.67 6.34 5.34 5.68 5 5 C3.68 5 2.36 5 1 5 Z " fill="#A8CB56" transform="translate(39,9)"/>
<path d="M0 0 C0.99 0 1.98 0 3 0 C3.02505615 0.79696289 3.0501123 1.59392578 3.07592773 2.41503906 C3.19198789 6.02685222 3.31466931 9.63841102 3.4375 13.25 C3.47681641 14.50425781 3.51613281 15.75851563 3.55664062 17.05078125 C3.59853516 18.25605469 3.64042969 19.46132812 3.68359375 20.703125 C3.72025146 21.81333008 3.75690918 22.92353516 3.79467773 24.06738281 C3.96710904 26.53021849 4.29595439 28.64482965 5 31 C4.01 31 3.02 31 2 31 C0.18640687 27.11865969 -0.2373701 24.09306483 -0.1953125 19.82421875 C-0.18886719 18.66728516 -0.18242188 17.51035156 -0.17578125 16.31835938 C-0.15902344 15.12017578 -0.14226563 13.92199219 -0.125 12.6875 C-0.11597656 11.46998047 -0.10695312 10.25246094 -0.09765625 8.99804688 C-0.07413037 5.99849726 -0.04125653 2.99934956 0 0 Z " fill="#B9D723" transform="translate(54,98)"/>
<path d="M0 0 C-0.33 1.65 -0.66 3.3 -1 5 C-2.32 5 -3.64 5 -5 5 C-5.33 7.31 -5.66 9.62 -6 12 C-6.66 12 -7.32 12 -8 12 C-8.33 10.35 -8.66 8.7 -9 7 C-14.61 6.67 -20.22 6.34 -26 6 C-26 5.34 -26 4.68 -26 4 C-25.44014404 3.98541748 -24.88028809 3.97083496 -24.3034668 3.95581055 C-21.76411863 3.88128648 -19.22607922 3.78464419 -16.6875 3.6875 C-15.80642578 3.66494141 -14.92535156 3.64238281 -14.01757812 3.61914062 C-13.17001953 3.58369141 -12.32246094 3.54824219 -11.44921875 3.51171875 C-10.66893311 3.48553467 -9.88864746 3.45935059 -9.0847168 3.43237305 C-6.89747733 3.17799791 -6.89747733 3.17799791 -5.47192383 1.46801758 C-4 0 -4 0 0 0 Z " fill="#B7D71D" transform="translate(71,81)"/>
<path d="M0 0 C3.39145689 0.30831426 5.53408183 0.66000566 8.3125 2.6875 C10.33999434 5.46591817 10.69168574 7.60854311 11 11 C10.34 11 9.68 11 9 11 C8.67 18.26 8.34 25.52 8 33 C7.67 33 7.34 33 7 33 C6.98541748 32.32420898 6.97083496 31.64841797 6.95581055 30.95214844 C6.88124589 27.88419478 6.78461345 24.81731924 6.6875 21.75 C6.66494141 20.68652344 6.64238281 19.62304688 6.61914062 18.52734375 C6.58369141 17.50253906 6.54824219 16.47773438 6.51171875 15.421875 C6.48553467 14.47924805 6.45935059 13.53662109 6.43237305 12.56542969 C5.92940632 9.58114153 5.10331461 8.15573269 3 6 C0.37374861 5.66574265 0.37374861 5.66574265 -2 6 C-2 5.34 -2 4.68 -2 4 C-0.35 3.67 1.3 3.34 3 3 C2.01 2.01 1.02 1.02 0 0 Z " fill="#B3D04E" transform="translate(76,15)"/>
<path d="M0 0 C0.85883109 2.39512522 1.17516838 3.5616433 0.21484375 5.96484375 C-2.73244262 10.51646337 -5.6437735 13.75815702 -10 17 C-10.66 16.67 -11.32 16.34 -12 16 C-11.67 15.34 -11.34 14.68 -11 14 C-11.66 13.34 -12.32 12.68 -13 12 C-12.51789062 11.62488281 -12.03578125 11.24976562 -11.5390625 10.86328125 C-7.87149654 7.89180434 -5.25381167 5.73662186 -4 1 C-3.67 2.32 -3.34 3.64 -3 5 C-2.34 5 -1.68 5 -1 5 C-0.67 3.35 -0.34 1.7 0 0 Z " fill="#B2CC47" transform="translate(76,60)"/>
<path d="M0 0 C0.639375 0.33 1.27875 0.66 1.9375 1 C6.01236841 2.33056928 9.75190425 2.16659199 14 2 C14 3.32 14 4.64 14 6 C8.85605871 7.7146471 3.84514859 7.90374625 -1.0625 5.5 C-1.701875 5.005 -2.34125 4.51 -3 4 C-2.01 3.67 -1.02 3.34 0 3 C0 2.01 0 1.02 0 0 Z " fill="#ACD043" transform="translate(59,126)"/>
<path d="M0 0 C0.99 0 1.98 0 3 0 C3 0.66 3 1.32 3 2 C3.66 2 4.32 2 5 2 C4.125 8.75 4.125 8.75 3 11 C-0.56454416 12.37097852 -4.23355995 12.07243154 -8 12 C-8.66 10.68 -9.32 9.36 -10 8 C-6.37 8 -2.74 8 1 8 C0.67 5.36 0.34 2.72 0 0 Z " fill="#B5D63A" transform="translate(121,91)"/>
<path d="M0 0 C2.37625177 -0.10883596 4.74743976 -0.18766696 7.125 -0.25 C7.79015625 -0.28351563 8.4553125 -0.31703125 9.140625 -0.3515625 C14.26914595 -0.45212173 17.0675566 0.77276681 21 4 C21.33 4.66 21.66 5.32 22 6 C21.01 6.495 21.01 6.495 20 7 C19.67 7.99 19.34 8.98 19 10 C18.34 9.38125 17.68 8.7625 17 8.125 C13.29588966 5.50125518 10.42075485 4.89913658 6 4 C6 3.67 6 3.34 6 3 C9.3 3.33 12.6 3.66 16 4 C16 3.34 16 2.68 16 2 C10.72 1.67 5.44 1.34 0 1 C0 0.67 0 0.34 0 0 Z " fill="#AFCE58" transform="translate(122,67)"/>
<path d="M0 0 C0 0.66 0 1.32 0 2 C-0.66 2 -1.32 2 -2 2 C-2.0825 2.598125 -2.165 3.19625 -2.25 3.8125 C-3.23275289 6.6788626 -4.35827876 7.56592275 -7 9 C-9.0625 9.0625 -9.0625 9.0625 -11 8 C-12.75 4.9375 -12.75 4.9375 -14 2 C-11.69 2.66 -9.38 3.32 -7 4 C-6.67 3.01 -6.34 2.02 -6 1 C-3.90006779 0.25486277 -2.22568901 0 0 0 Z " fill="#AFCF3F" transform="translate(125,115)"/>
<path d="M0 0 C1.32 0.33 2.64 0.66 4 1 C4 1.66 4 2.32 4 3 C5.65 3.33 7.3 3.66 9 4 C7 6 7 6 4.375 6.125 C3.59125 6.08375 2.8075 6.0425 2 6 C1.67 7.32 1.34 8.64 1 10 C-1.64 10 -4.28 10 -7 10 C-7 9.34 -7 8.68 -7 8 C-3.535 7.505 -3.535 7.505 0 7 C0 4.69 0 2.38 0 0 Z " fill="#B1D230" transform="translate(72,13)"/>
<path d="M0 0 C2.76757806 1.1275318 4.25608767 2.26282682 6.375 4.4375 C9.08948016 7.08734968 11.55193133 8.47643477 15 10 C14.67 10.66 14.34 11.32 14 12 C9.71717217 11.74806895 7.47799018 11.37629014 4.0625 8.6875 C2 6 2 6 2 2 C1.34 2 0.68 2 0 2 C0 1.34 0 0.68 0 0 Z " fill="#B2D233" transform="translate(29,73)"/>
<path d="M0 0 C3.375 -0.125 3.375 -0.125 7 0 C7.66 0.66 8.32 1.32 9 2 C6.69 2 4.38 2 2 2 C2 6.62 2 11.24 2 16 C1.34 16 0.68 16 0 16 C-0.66 14.02 -1.32 12.04 -2 10 C-1.34 10 -0.68 10 0 10 C0 6.7 0 3.4 0 0 Z " fill="#B2D23B" transform="translate(25,51)"/>
<path d="M0 0 C0.33 0 0.66 0 1 0 C1 11.22 1 22.44 1 34 C1.66 34.33 2.32 34.66 3 35 C1.515 35.495 1.515 35.495 0 36 C0 33.03 0 30.06 0 27 C-0.66 26.67 -1.32 26.34 -2 26 C-1.505 24.515 -1.505 24.515 -1 23 C-0.85164052 21.22833025 -0.75229982 19.45232388 -0.68359375 17.67578125 C-0.64169922 16.64775391 -0.59980469 15.61972656 -0.55664062 14.56054688 C-0.51732422 13.48869141 -0.47800781 12.41683594 -0.4375 11.3125 C-0.39431641 10.22904297 -0.35113281 9.14558594 -0.30664062 8.02929688 C-0.20053162 5.35299209 -0.09847639 2.67659474 0 0 Z " fill="#B9DE2E" transform="translate(84,25)"/>
<path d="M0 0 C0.33 0.99 0.66 1.98 1 3 C0.01 4.485 0.01 4.485 -1 6 C-0.34 6 0.32 6 1 6 C1.33 7.65 1.66 9.3 2 11 C0.68 10.01 -0.64 9.02 -2 8 C-3.98 8.99 -3.98 8.99 -6 10 C-6 9.01 -6 8.02 -6 7 C-6.99 6.67 -7.98 6.34 -9 6 C-6.32687076 3.80421527 -4.32881882 2.80350799 -1 2 C-0.67 1.34 -0.34 0.68 0 0 Z " fill="#AED04A" transform="translate(35,12)"/>
<path d="M0 0 C0.61359375 0.19078125 1.2271875 0.3815625 1.859375 0.578125 C0.07264295 2.0839995 -1.72016008 3.5826735 -3.515625 5.078125 C-5.01222656 6.33109375 -5.01222656 6.33109375 -6.5390625 7.609375 C-9.140625 9.578125 -9.140625 9.578125 -11.140625 9.578125 C-11.140625 8.918125 -11.140625 8.258125 -11.140625 7.578125 C-10.480625 7.578125 -9.820625 7.578125 -9.140625 7.578125 C-9.140625 6.918125 -9.140625 6.258125 -9.140625 5.578125 C-10.460625 5.908125 -11.780625 6.238125 -13.140625 6.578125 C-11.490625 4.928125 -9.840625 3.278125 -8.140625 1.578125 C-7.480625 2.898125 -6.820625 4.218125 -6.140625 5.578125 C-6.140625 4.588125 -6.140625 3.598125 -6.140625 2.578125 C-2.97599085 -0.58650915 -2.97599085 -0.58650915 0 0 Z " fill="#B3D350" transform="translate(134.140625,109.421875)"/>
<path d="M0 0 C0.66 0 1.32 0 2 0 C3.29758261 2.59516521 3.13269102 4.54183027 3.125 7.4375 C3.12757813 8.40558594 3.13015625 9.37367187 3.1328125 10.37109375 C3 13 3 13 2 16 C1.34 16 0.68 16 0 16 C-0.19672365 14.27185839 -0.38196799 12.54240803 -0.5625 10.8125 C-0.71912109 9.36810547 -0.71912109 9.36810547 -0.87890625 7.89453125 C-0.99758751 5.05766623 -0.67765639 2.74576329 0 0 Z " fill="#B2D52C" transform="translate(145,80)"/>
<path d="M0 0 C0.99 0 1.98 0 3 0 C2.125 5.875 2.125 5.875 1 7 C0.84285346 8.63256758 0.74914586 10.27135338 0.68359375 11.91015625 C0.64169922 12.89951172 0.59980469 13.88886719 0.55664062 14.90820312 C0.51732422 15.94912109 0.47800781 16.99003906 0.4375 18.0625 C0.39431641 19.10728516 0.35113281 20.15207031 0.30664062 21.22851562 C0.20018775 23.81886884 0.0981724 26.40932186 0 29 C-0.33 29 -0.66 29 -1 29 C-1.02891546 24.54168018 -1.04676981 20.08338431 -1.0625 15.625 C-1.07087891 14.35398437 -1.07925781 13.08296875 -1.08789062 11.7734375 C-1.09111328 10.56171875 -1.09433594 9.35 -1.09765625 8.1015625 C-1.10289307 6.98088379 -1.10812988 5.86020508 -1.11352539 4.70556641 C-1 2 -1 2 0 0 Z " fill="#B8D630" transform="translate(26,19)"/>
<path d="M0 0 C2.10409639 -0.02701408 4.20829178 -0.04640223 6.3125 -0.0625 C7.48425781 -0.07410156 8.65601563 -0.08570312 9.86328125 -0.09765625 C13 0 13 0 16 1 C16 1.66 16 2.32 16 3 C10.39 3 4.78 3 -1 3 C-0.67 2.01 -0.34 1.02 0 0 Z " fill="#B8D825" transform="translate(122,68)"/>
<path d="M0 0 C3.58620225 1.65517027 6.81530529 3.66455721 10 6 C10.33 6.99 10.66 7.98 11 9 C7.61510691 9.38684492 6.2009146 9.12328851 3.25 7.3125 C0.78965038 4.78380733 0.28819649 3.45835793 0 0 Z " fill="#B0D32F" transform="translate(96,105)"/>
<path d="M0 0 C0.66 0.33 1.32 0.66 2 1 C1.67 1.66 1.34 2.32 1 3 C2.98 3 4.96 3 7 3 C5.67661368 3.68620031 4.34050052 4.34786461 3 5 C2.195625 5.391875 1.39125 5.78375 0.5625 6.1875 C-2.45351536 7.14379755 -4.0068796 6.94519592 -7 6 C-7.99 5.34 -8.98 4.68 -10 4 C-7.03 4 -4.06 4 -1 4 C-3.475 3.01 -3.475 3.01 -6 2 C-4 1.33333333 -2 0.66666667 0 0 Z " fill="#ABCD5A" transform="translate(120,68)"/>
<path d="M0 0 C0.99 0.33 1.98 0.66 3 1 C3.48280024 8.36270368 3.48280024 8.36270368 1.4375 11.0625 C-1.96015441 12.36929016 -4.49547526 11.74134177 -8 11 C-8 10.67 -8 10.34 -8 10 C-5.36 10 -2.72 10 0 10 C-0.33 9.01 -0.66 8.02 -1 7 C-0.70630173 5.65737935 -0.3721042 4.32303717 0 3 C0 2.01 0 1.02 0 0 Z " fill="#B5D362" transform="translate(45,13)"/>
<path d="M0 0 C1.45606519 4.52092968 0.27032841 7.51648796 -1 12 C-0.34 12 0.32 12 1 12 C1 9.69 1 7.38 1 5 C1.66 5 2.32 5 3 5 C3 7.64 3 10.28 3 13 C1.35 13.33 -0.3 13.66 -2 14 C-2.3690205 4.58997722 -2.3690205 4.58997722 0 0 Z " fill="#ADC95D" transform="translate(86,77)"/>
<path d="M0 0 C1.32 0 2.64 0 4 0 C6 3 6 3 6 7 C5.34 7 4.68 7 4 7 C4 8.65 4 10.3 4 12 C2.09681116 9.14521674 1.5380901 7.58058692 0.875 4.3125 C0.70742187 3.50425781 0.53984375 2.69601563 0.3671875 1.86328125 C0.24601563 1.24839844 0.12484375 0.63351563 0 0 Z " fill="#ABCF44" transform="translate(141,73)"/>
<path d="M0 0 C13.81776765 0.59453303 13.81776765 0.59453303 19 4 C19 4.33 19 4.66 19 5 C17.35369672 4.85957123 15.70795821 4.71250671 14.0625 4.5625 C12.68771484 4.44068359 12.68771484 4.44068359 11.28515625 4.31640625 C9 4 9 4 8 3 C6.65252916 2.76924918 5.29622435 2.58846937 3.9375 2.4375 C2.638125 2.293125 1.33875 2.14875 0 2 C0 1.34 0 0.68 0 0 Z " fill="#B5D624" transform="translate(101,68)"/>
<path d="M0 0 C0.33 0 0.66 0 1 0 C1.3690205 10.55808656 1.3690205 10.55808656 -1 15 C-1.66 15 -2.32 15 -3 15 C-2.5547115 9.72684667 -1.91626837 4.98229776 0 0 Z " fill="#BAD720" transform="translate(76,50)"/>
<path d="M0 0 C2.31 0 4.62 0 7 0 C7.33 1.32 7.66 2.64 8 4 C5.03 4 2.06 4 -1 4 C-0.67 2.68 -0.34 1.36 0 0 Z " fill="#B0D235" transform="translate(113,86)"/>
<path d="M0 0 C1.32 0.99 2.64 1.98 4 3 C3.67 3.99 3.34 4.98 3 6 C3 5.34 3 4.68 3 4 C2.01 4.495 2.01 4.495 1 5 C1 7.31 1 9.62 1 12 C0.34 12 -0.32 12 -1 12 C-1 10.02 -1 8.04 -1 6 C-2.98 5.34 -4.96 4.68 -7 4 C-7 3.67 -7 3.34 -7 3 C-4.69 3 -2.38 3 0 3 C0 2.01 0 1.02 0 0 Z " fill="#A9C658" transform="translate(121,87)"/>
<path d="M0 0 C0.66 0.33 1.32 0.66 2 1 C2 4.96 2 8.92 2 13 C1.34 13 0.68 13 0 13 C-0.33 13.66 -0.66 14.32 -1 15 C-1.33 13.35 -1.66 11.7 -2 10 C-1.34 10 -0.68 10 0 10 C0 6.7 0 3.4 0 0 Z " fill="#B3D252" transform="translate(35,49)"/>
<path d="M0 0 C0 0.99 0 1.98 0 3 C-4.455 4.485 -4.455 4.485 -9 6 C-9 6.99 -9 7.98 -9 9 C-9.66 8.67 -10.32 8.34 -11 8 C-10.4375 5.6875 -10.4375 5.6875 -9 3 C-3.20689655 0 -3.20689655 0 0 0 Z " fill="#B4D632" transform="translate(137,106)"/>
<path d="M0 0 C0.66 0 1.32 0 2 0 C2 2.31 2 4.62 2 7 C-0.97 6.67 -3.94 6.34 -7 6 C-7 5.34 -7 4.68 -7 4 C-5.02 3.67 -3.04 3.34 -1 3 C-0.67 2.01 -0.34 1.02 0 0 Z " fill="#B7D61D" transform="translate(109,91)"/>
<path d="M0 0 C0.99 0 1.98 0 3 0 C5.09350689 3.4019487 5.17942163 6.05272412 5 10 C1.32769295 6.92000054 0.43197635 4.7517398 0 0 Z " fill="#B2D630" transform="translate(35,62)"/>
<path d="M0 0 C0 3.51716303 -0.82445585 4.37121748 -3 7 C-2.34 7 -1.68 7 -1 7 C-1 7.66 -1 8.32 -1 9 C-2.65 9.66 -4.3 10.32 -6 11 C-5.67 9.68 -5.34 8.36 -5 7 C-5.66 6.67 -6.32 6.34 -7 6 C-4.69 4.02 -2.38 2.04 0 0 Z " fill="#ADCC53" transform="translate(76,74)"/>
<path d="M0 0 C1 4 1 4 0 7 C0.66 7 1.32 7 2 7 C1.34 8.65 0.68 10.3 0 12 C-0.66 11.01 -1.32 10.02 -2 9 C-2.66 8.67 -3.32 8.34 -4 8 C-2.68 5.36 -1.36 2.72 0 0 Z " fill="#ADCD54" transform="translate(81,65)"/>
<path d="M0 0 C2.875 0.3125 2.875 0.3125 6 1 C6.66 1.99 7.32 2.98 8 4 C7.01 4 6.02 4 5 4 C4.67 4.99 4.34 5.98 4 7 C1.5625 6.625 1.5625 6.625 -1 6 C-1.33 5.34 -1.66 4.68 -2 4 C-0.35 3.67 1.3 3.34 3 3 C2.01 2.01 1.02 1.02 0 0 Z " fill="#AECC59" transform="translate(76,15)"/>
<path d="M0 0 C3.465 1.98 3.465 1.98 7 4 C7 4.33 7 4.66 7 5 C4.03 5 1.06 5 -2 5 C-2.33 4.34 -2.66 3.68 -3 3 C-2.01 2.67 -1.02 2.34 0 2 C0 1.34 0 0.68 0 0 Z " fill="#B0D252" transform="translate(106,111)"/>
<path d="M0 0 C-0.33 1.65 -0.66 3.3 -1 5 C-2.32 5 -3.64 5 -5 5 C-5.33 3.68 -5.66 2.36 -6 1 C-4 0 -4 0 0 0 Z " fill="#B4D134" transform="translate(71,81)"/>
<path d="M0 0 C2.97 0 5.94 0 9 0 C8.67 1.32 8.34 2.64 8 4 C6.68 4.33 5.36 4.66 4 5 C4 4.01 4 3.02 4 2 C2.68 1.34 1.36 0.68 0 0 Z " fill="#ADD141" transform="translate(74,48)"/>
<path d="M0 0 C0.53625 0.37125 1.0725 0.7425 1.625 1.125 C-1.46388522 3.18425681 -2.08435927 3.3640374 -5.5625 3.25 C-7.4496875 3.188125 -7.4496875 3.188125 -9.375 3.125 C-8.375 1.125 -8.375 1.125 -5.5625 -0.125 C-2.375 -0.875 -2.375 -0.875 0 0 Z " fill="#B8D726" transform="translate(65.375,73.875)"/>
<path d="M0 0 C0.66 0 1.32 0 2 0 C2 3.63 2 7.26 2 11 C2.66 11.33 3.32 11.66 4 12 C3.01 12.33 2.02 12.66 1 13 C1 10.03 1 7.06 1 4 C0.34 3.67 -0.32 3.34 -1 3 C-0.67 2.01 -0.34 1.02 0 0 Z " fill="#AFD727" transform="translate(83,48)"/>
<path d="M0 0 C4.455 0.99 4.455 0.99 9 2 C9 2.66 9 3.32 9 4 C7.02 4.33 5.04 4.66 3 5 C2.01 3.35 1.02 1.7 0 0 Z " fill="#B5D421" transform="translate(111,117)"/>
<path d="M0 0 C0.99 0 1.98 0 3 0 C3 0.66 3 1.32 3 2 C4.65 2 6.3 2 8 2 C8.33 2.66 8.66 3.32 9 4 C6.69 4 4.38 4 2 4 C1.34 2.68 0.68 1.36 0 0 Z " fill="#B6D71C" transform="translate(111,99)"/>
<path d="M0 0 C0.66 0 1.32 0 2 0 C2 0.66 2 1.32 2 2 C3.98 2 5.96 2 8 2 C6 4 6 4 2.875 4.125 C1.451875 4.063125 1.451875 4.063125 0 4 C0 2.68 0 1.36 0 0 Z " fill="#B4D51D" transform="translate(73,15)"/>
<path d="M0 0 C0.99 0.33 1.98 0.66 3 1 C3 3.31 3 5.62 3 8 C2.34 8 1.68 8 1 8 C0.67 5.36 0.34 2.72 0 0 Z " fill="#B6D628" transform="translate(45,13)"/>
</svg>
