<?xml version="1.0" encoding="UTF-8"?>
<svg version="1.1" xmlns="http://www.w3.org/2000/svg" width="163" height="128">
<path d="M0 0 C4.18778874 1.75817907 7.65561301 3.58332436 10.48828125 7.2421875 C12.3185035 12.73285424 11.7192268 17.03664789 9.48828125 22.2421875 C9.15755363 23.7591613 8.84666106 25.2805335 8.55078125 26.8046875 C7.82165785 30.24936497 7.10755472 32.73205042 4.48828125 35.2421875 C3.82828125 35.2421875 3.16828125 35.2421875 2.48828125 35.2421875 C2.48828125 35.9021875 2.48828125 36.5621875 2.48828125 37.2421875 C3.23078125 37.4690625 3.97328125 37.6959375 4.73828125 37.9296875 C8.18774374 39.57602187 9.37353778 41.04694886 11.48828125 44.2421875 C12.48488483 47.13118987 13.08945866 50.05875223 13.67578125 53.0546875 C13.84013672 53.82361328 14.00449219 54.59253906 14.17382812 55.38476562 C16.96412312 68.77140355 16.96412312 68.77140355 15.80078125 72.3671875 C15.22734639 74.54002224 15.22734639 74.54002224 17.30078125 77.1796875 C18.02265625 78.1903125 18.74453125 79.2009375 19.48828125 80.2421875 C19.78863281 81.03238281 20.08898437 81.82257813 20.3984375 82.63671875 C21.60612622 85.52391724 23.17129668 87.54672545 25.11328125 89.9921875 C28.12072869 94.19884675 29.43771823 97.14682211 28.98046875 102.33203125 C28.21712564 105.29452952 26.99778411 106.54657746 24.48828125 108.2421875 C21.80078125 109.4296875 21.80078125 109.4296875 19.48828125 110.2421875 C17.52005239 112.21041636 17.82579744 115.59027459 17.48828125 118.2421875 C15.01328125 118.7371875 15.01328125 118.7371875 12.48828125 119.2421875 C11.48828125 116.2421875 11.48828125 116.2421875 12.48828125 113.2421875 C11.12703125 113.0565625 11.12703125 113.0565625 9.73828125 112.8671875 C6.48828125 112.2421875 6.48828125 112.2421875 4.8125 111.19921875 C1.29202453 109.7496112 -2.21381974 110.16737668 -5.94921875 110.3046875 C-12.94829524 110.4581171 -19.04556195 109.79105715 -25.8125 107.80078125 C-28.7419651 107.19453883 -30.65089871 107.45533171 -33.51171875 108.2421875 C-33.84171875 107.2521875 -34.17171875 106.2621875 -34.51171875 105.2421875 C-34.01671875 104.2521875 -34.01671875 104.2521875 -33.51171875 103.2421875 C-33.23201028 101.43679647 -33.01006716 99.62214011 -32.82421875 97.8046875 C-32.71722656 96.83660156 -32.61023437 95.86851563 -32.5 94.87109375 C-32.27135256 92.00583558 -32.27135256 92.00583558 -34.51171875 89.2421875 C-38.37898123 74.80769187 -36.53840037 51.4615921 -30.58203125 37.828125 C-29.23398707 34.57117155 -28.39083721 31.27982845 -27.51171875 27.8671875 C-21.28969945 4.1169893 -21.28969945 4.1169893 -14.6484375 0.12109375 C-9.97683814 -1.80049648 -4.77484443 -1.4406218 0 0 Z M-16.51171875 8.2421875 C-17.82766388 10.89032237 -17.82766388 10.89032237 -18.57421875 13.9296875 C-18.89003906 15.06148437 -19.20585938 16.19328125 -19.53125 17.359375 C-21.3106764 24.29206379 -22.93966619 31.25993278 -24.51171875 38.2421875 C-19.68729691 36.97272236 -19.68729691 36.97272236 -16.51171875 33.2421875 C-16.3695081 30.63973252 -16.32368943 28.15101066 -16.38671875 25.5546875 C-16.39574219 24.85279297 -16.40476562 24.15089844 -16.4140625 23.42773438 C-16.43758171 21.69907225 -16.47345162 19.97058605 -16.51171875 18.2421875 C-15.23296875 18.1596875 -13.95421875 18.0771875 -12.63671875 17.9921875 C-10.44581022 17.77562591 -10.44581022 17.77562591 -8.51171875 17.2421875 C-7.26997079 15.3420698 -7.26997079 15.3420698 -6.51171875 13.2421875 C-2.70264818 11.17440633 1.22101678 10.74421861 5.48828125 10.2421875 C2.53974854 6.80223267 -0.9949157 4.65671977 -5.50390625 3.9140625 C-10.60855461 3.64438296 -12.93326715 4.7458643 -16.51171875 8.2421875 Z M-3.51171875 18.6796875 C-6.45434838 21.61638441 -8.35559722 22.7298878 -12.51171875 23.2421875 C-11.67779626 26.36939685 -10.96736281 28.71904062 -8.82421875 31.1796875 C-5.37564299 32.76416825 -3.11573261 32.22510037 0.48828125 31.2421875 C2.56684205 29.66523118 2.56684205 29.66523118 3.48828125 27.2421875 C3.52908908 25.24260386 3.53082481 23.24173496 3.48828125 21.2421875 C4.14828125 20.2521875 4.80828125 19.2621875 5.48828125 18.2421875 C5.48828125 17.2521875 5.48828125 16.2621875 5.48828125 15.2421875 C1.12404536 14.82546359 -0.44708338 15.60887343 -3.51171875 18.6796875 Z M-11.51171875 35.2421875 C-11.84171875 35.9021875 -12.17171875 36.5621875 -12.51171875 37.2421875 C-10.03671875 37.7371875 -10.03671875 37.7371875 -7.51171875 38.2421875 C-8.4902207 37.22114199 -9.49152302 36.2215754 -10.51171875 35.2421875 C-10.84171875 35.2421875 -11.17171875 35.2421875 -11.51171875 35.2421875 Z M-17.51171875 41.2421875 C-17.18171875 42.8921875 -16.85171875 44.5421875 -16.51171875 46.2421875 C-17.83171875 46.5721875 -19.15171875 46.9021875 -20.51171875 47.2421875 C-21.17171875 46.2521875 -21.83171875 45.2621875 -22.51171875 44.2421875 C-25.67287651 45.61202253 -26.50442795 46.2312513 -28.51171875 49.2421875 C-28.9691643 51.55652765 -28.9691643 51.55652765 -29.14453125 54.14453125 C-29.22864258 55.11213379 -29.31275391 56.07973633 -29.39941406 57.07666016 C-29.47772461 58.10065918 -29.55603516 59.1246582 -29.63671875 60.1796875 C-29.72018555 61.21915527 -29.80365234 62.25862305 -29.88964844 63.32958984 C-31.36069016 76.55695873 -31.36069016 76.55695873 -28.51171875 89.2421875 C-21.95134891 88.66251948 -16.20991321 86.49105191 -10.07421875 84.1796875 C-8.54764648 83.61411133 -8.54764648 83.61411133 -6.99023438 83.03710938 C-4.49501694 82.11165314 -2.00235756 81.17988099 0.48828125 80.2421875 C-0.17171875 78.5921875 -0.83171875 76.9421875 -1.51171875 75.2421875 C-2.21296875 75.43554688 -2.91421875 75.62890625 -3.63671875 75.828125 C-8.06285739 77.04290762 -12.48212005 78.24913488 -16.94921875 79.3046875 C-19.81848825 80.05975842 -21.93259792 80.87610372 -24.51171875 82.2421875 C-24.29515625 81.53835937 -24.07859375 80.83453125 -23.85546875 80.109375 C-21.575067 72.02239472 -21.17728116 64.61551389 -21.51171875 56.2421875 C-20.19171875 55.9121875 -18.87171875 55.5821875 -17.51171875 55.2421875 C-17.51171875 61.1821875 -17.51171875 67.1221875 -17.51171875 73.2421875 C-14.5640478 74.71602298 -12.71460659 73.6970112 -9.57421875 72.8671875 C-7.98287109 72.45339844 -7.98287109 72.45339844 -6.359375 72.03125 C-4.39498892 71.48693451 -2.44551885 70.88678753 -0.51171875 70.2421875 C1.93359375 70.6171875 1.93359375 70.6171875 4.61328125 71.2421875 C6.2292406 71.61690271 7.85346337 71.96092851 9.48828125 72.2421875 C10.83996343 71.08762654 10.83996343 71.08762654 10.98828125 67.9921875 C10.98828125 62.30393817 7.85643844 57.94600628 5.01953125 53.1953125 C3.48828125 50.2421875 3.48828125 50.2421875 3.48828125 46.2421875 C4.14828125 45.5821875 4.80828125 44.9221875 5.48828125 44.2421875 C3.04505088 41.79895713 1.89941625 41.55229068 -1.51171875 41.2421875 C-2.39859375 41.5928125 -3.28546875 41.9434375 -4.19921875 42.3046875 C-8.9433237 43.64735871 -12.81774873 42.44814818 -17.51171875 41.2421875 Z M4.48828125 75.2421875 C5.14828125 76.8921875 5.80828125 78.5421875 6.48828125 80.2421875 C8.79828125 80.5721875 11.10828125 80.9021875 13.48828125 81.2421875 C9.71234166 76.96147752 9.71234166 76.96147752 4.48828125 75.2421875 Z M-17.02880859 91.17211914 C-20.15948488 92.38290993 -23.22078069 93.55201635 -26.51171875 94.2421875 C-26.84171875 96.5521875 -27.17171875 98.8621875 -27.51171875 101.2421875 C-19.79167572 106.38888285 -8.45927689 105.97085092 0.48828125 105.2421875 C4.43739337 104.16200376 7.82260919 102.65575626 11.36328125 100.6171875 C13.40515625 99.4415625 13.40515625 99.4415625 15.48828125 98.2421875 C15.48828125 94.6121875 15.48828125 90.9821875 15.48828125 87.2421875 C3.45992026 82.4308431 -5.51950811 86.71729832 -17.02880859 91.17211914 Z M20.48828125 93.2421875 C20.81788341 98.25753802 20.81788341 98.25753802 23.48828125 102.2421875 C23.15867909 97.22683698 23.15867909 97.22683698 20.48828125 93.2421875 Z M13.92578125 104.7421875 C12.71921875 105.9796875 12.71921875 105.9796875 11.48828125 107.2421875 C13.13828125 106.9121875 14.78828125 106.5821875 16.48828125 106.2421875 C16.81828125 104.9221875 17.14828125 103.6021875 17.48828125 102.2421875 C16.01091143 102.12580019 16.01091143 102.12580019 13.92578125 104.7421875 Z " fill="#D8EAF5" transform="translate(74.51171875,3.7578125)"/>
<path d="M0 0 C4.83815086 -0.26878616 8.51293246 0.02514415 13.125 1.5625 C17.16738616 2.88309548 19.82072349 3.194079 24 2 C31.33571983 -0.05279403 38.22879242 0.47093842 45 4 C50.77736513 7.73829508 53.83117317 12.46571405 56 19 C56.77721859 24.34521086 56.66233747 28.57342698 54.375 33.5 C52.16854863 39.11642168 53.97499136 44.25307163 55.52514648 49.91967773 C58.06864405 61.06268171 56.113628 73.53577111 52 84 C51.34 84.99 50.68 85.98 50 87 C48.68 86.67 47.36 86.34 46 86 C46.48799585 82.74669436 47.09502836 79.66740075 48 76.5 C50.66364817 65.9059448 50.13447543 55.61945628 48 45 C45.68905024 44.86462051 45.68905024 44.86462051 42.625 46.5 C36.26065226 48.8866304 29.65086988 49.35369333 23.21875 46.96875 C16.65882285 43.41216299 11.65901512 38.22131752 9.36328125 30.99609375 C7.705984 21.88986905 10.28711452 15.85480914 15 8 C10.05 7.01 5.1 6.02 0 5 C0 3.35 0 1.7 0 0 Z M18.0625 12.9375 C14.52842283 18.18506913 13.54974883 21.48397524 14.47265625 27.7265625 C15.72017354 33.10474813 18.09944713 36.67252075 22.5625 39.9375 C27.55096477 42.76274266 32.41814646 42.76311055 38 42 C43.36046408 40.28060586 47.19972351 36.85502483 50 32 C51.66219533 26.33006704 51.41509229 21.14399672 49.01171875 15.75 C46.18125898 10.85406958 42.21444358 7.98148856 37 6 C29.86964048 5.0582544 22.84605798 7.47662407 18.0625 12.9375 Z " fill="#D4E7F4" transform="translate(83,3)"/>
<path d="M0 0 C1.50046875 0.00386719 1.50046875 0.00386719 3.03125 0.0078125 C4.0315625 0.00523438 5.031875 0.00265625 6.0625 0 C8.53125 0.1328125 8.53125 0.1328125 9.53125 1.1328125 C9.57217937 3.46578683 9.57366723 5.79986475 9.53125 8.1328125 C10.665625 8.1121875 11.8 8.0915625 12.96875 8.0703125 C16.53125 8.1328125 16.53125 8.1328125 17.53125 9.1328125 C17.60369053 11.15245449 17.61502188 13.17448374 17.59375 15.1953125 C17.58472656 16.30003906 17.57570312 17.40476562 17.56640625 18.54296875 C17.55480469 19.39761719 17.54320312 20.25226562 17.53125 21.1328125 C14.89125 21.1328125 12.25125 21.1328125 9.53125 21.1328125 C9.551875 22.2671875 9.5725 23.4015625 9.59375 24.5703125 C9.53125 28.1328125 9.53125 28.1328125 8.53125 29.1328125 C4.36660074 29.29299132 0.58398808 29.11529446 -3.46875 28.1328125 C-3.46875 25.8228125 -3.46875 23.5128125 -3.46875 21.1328125 C-5.1703125 21.16375 -5.1703125 21.16375 -6.90625 21.1953125 C-10.46875 21.1328125 -10.46875 21.1328125 -11.46875 20.1328125 C-11.56726171 18.30165367 -11.59847629 16.46661317 -11.59375 14.6328125 C-11.59632812 13.6325 -11.59890625 12.6321875 -11.6015625 11.6015625 C-11.46875 9.1328125 -11.46875 9.1328125 -10.46875 8.1328125 C-8.13577567 8.09188313 -5.80169775 8.09039527 -3.46875 8.1328125 C-3.489375 6.9984375 -3.51 5.8640625 -3.53125 4.6953125 C-3.45213427 0.18571608 -3.45213427 0.18571608 0 0 Z M2.53125 6.1328125 C2.20125 8.4428125 1.87125 10.7528125 1.53125 13.1328125 C-0.77875 13.1328125 -3.08875 13.1328125 -5.46875 13.1328125 C-5.46875 13.7928125 -5.46875 14.4528125 -5.46875 15.1328125 C-3.15875 15.4628125 -0.84875 15.7928125 1.53125 16.1328125 C1.53125 18.4428125 1.53125 20.7528125 1.53125 23.1328125 C2.52125 23.1328125 3.51125 23.1328125 4.53125 23.1328125 C4.53125 20.4928125 4.53125 17.8528125 4.53125 15.1328125 C6.84125 15.4628125 9.15125 15.7928125 11.53125 16.1328125 C11.53125 15.1428125 11.53125 14.1528125 11.53125 13.1328125 C9.22125 13.1328125 6.91125 13.1328125 4.53125 13.1328125 C4.53125 10.8228125 4.53125 8.5128125 4.53125 6.1328125 C3.87125 6.1328125 3.21125 6.1328125 2.53125 6.1328125 Z " fill="#D4E6F0" transform="translate(112.46875,12.8671875)"/>
<path d="M0 0 C1.65 0.33 3.3 0.66 5 1 C4.81824219 1.53367188 4.63648438 2.06734375 4.44921875 2.6171875 C4.19785156 3.36226562 3.94648438 4.10734375 3.6875 4.875 C3.44386719 5.59429687 3.20023438 6.31359375 2.94921875 7.0546875 C2.63597656 8.02664062 2.32273437 8.99859375 2 10 C1.7522583 10.7130127 1.5045166 11.42602539 1.24926758 12.16064453 C-0.85106905 18.53682437 -1.52307213 24.43513457 -1.6875 31.125 C-1.72166016 32.08148438 -1.75582031 33.03796875 -1.79101562 34.0234375 C-1.87240474 36.34884073 -1.94189612 38.67391876 -2 41 C-3.9375 41.5625 -3.9375 41.5625 -6 42 C-8.73081181 39.26918819 -7.3101686 31.39284475 -7.32348633 27.72070312 C-7.20464032 17.30271232 -4.76456758 9.28339816 0 0 Z " fill="#DCEFFB" transform="translate(24,33)"/>
<path d="M0 0 C1.32 0.66 2.64 1.32 4 2 C3.70987498 5.12061303 2.9806088 6.01785779 0.62890625 8.18359375 C-12.54972565 17.8703079 -12.54972565 17.8703079 -19 20 C-19.99 19.67 -20.98 19.34 -22 19 C-22.6875 16.9375 -22.6875 16.9375 -23 15 C-21.26363281 14.12988281 -21.26363281 14.12988281 -19.4921875 13.2421875 C-17.95281562 12.45372873 -16.41377032 11.66463214 -14.875 10.875 C-14.11445312 10.49601562 -13.35390625 10.11703125 -12.5703125 9.7265625 C-7.47269919 7.08986596 -3.85956193 4.25414974 0 0 Z " fill="#D3E8F4" transform="translate(118,102)"/>
<path d="M0 0 C1.65 0.33 3.3 0.66 5 1 C5 1.99 5 2.98 5 4 C5.99 4 6.98 4 8 4 C8.33 5.65 8.66 7.3 9 9 C7.68 9.33 6.36 9.66 5 10 C5 10.99 5 11.98 5 13 C1.25 14.125 1.25 14.125 -1 13 C-1 12.01 -1 11.02 -1 10 C-2.32 9.34 -3.64 8.68 -5 8 C-4.67 6.68 -4.34 5.36 -4 4 C-3.01 4 -2.02 4 -1 4 C-0.67 2.68 -0.34 1.36 0 0 Z " fill="#D6E9EF" transform="translate(123,89)"/>
<path d="M0 0 C0.7425 0.2475 1.485 0.495 2.25 0.75 C2.25 1.74 2.25 2.73 2.25 3.75 C3.57 4.08 4.89 4.41 6.25 4.75 C5.92 6.07 5.59 7.39 5.25 8.75 C4.26 8.75 3.27 8.75 2.25 8.75 C1.92 10.07 1.59 11.39 1.25 12.75 C-0.4 12.42 -2.05 12.09 -3.75 11.75 C-3.75 10.76 -3.75 9.77 -3.75 8.75 C-5.07 8.42 -6.39 8.09 -7.75 7.75 C-7.36094382 5.02660672 -6.68262433 3.66096786 -5 1.4375 C-2.75 -0.25 -2.75 -0.25 0 0 Z " fill="#D8E8F2" transform="translate(110.75,63.25)"/>
<path d="M0 0 C3.15473719 0.35052635 4.8233534 0.86519076 7.375 2.8125 C9 5 9 5 8.75 7.25 C8.5025 7.8275 8.255 8.405 8 9 C7.01 9 6.02 9 5 9 C4.67 10.32 4.34 11.64 4 13 C2.35 12.67 0.7 12.34 -1 12 C-1 11.01 -1 10.02 -1 9 C-2.32 8.67 -3.64 8.34 -5 8 C-4.67 6.68 -4.34 5.36 -4 4 C-3.01 4 -2.02 4 -1 4 C-0.67 2.68 -0.34 1.36 0 0 Z " fill="#D4E7F4" transform="translate(34,23)"/>
<path d="M0 0 C1.51400391 0.01740234 1.51400391 0.01740234 3.05859375 0.03515625 C4.07050781 0.04417969 5.08242187 0.05320312 6.125 0.0625 C7.29869141 0.07990234 7.29869141 0.07990234 8.49609375 0.09765625 C8.82609375 0.75765625 9.15609375 1.41765625 9.49609375 2.09765625 C6.85609375 2.42765625 4.21609375 2.75765625 1.49609375 3.09765625 C1.82609375 6.39765625 2.15609375 9.69765625 2.49609375 13.09765625 C1.50609375 13.59265625 1.50609375 13.59265625 0.49609375 14.09765625 C-1.62890625 13.16015625 -1.62890625 13.16015625 -3.50390625 12.09765625 C-2.18390625 12.09765625 -0.86390625 12.09765625 0.49609375 12.09765625 C-0.16390625 11.10765625 -0.82390625 10.11765625 -1.50390625 9.09765625 C-2.16390625 9.75765625 -2.82390625 10.41765625 -3.50390625 11.09765625 C-5.48390625 10.43765625 -7.46390625 9.77765625 -9.50390625 9.09765625 C-9.50390625 12.72765625 -9.50390625 16.35765625 -9.50390625 20.09765625 C-8.18390625 20.42765625 -6.86390625 20.75765625 -5.50390625 21.09765625 C-7.1700253 21.14037725 -8.8377351 21.13829457 -10.50390625 21.09765625 C-11.50390625 20.09765625 -11.50390625 20.09765625 -11.63671875 17.62890625 C-11.63414063 16.62859375 -11.6315625 15.62828125 -11.62890625 14.59765625 C-11.63148437 13.59734375 -11.6340625 12.59703125 -11.63671875 11.56640625 C-11.50390625 9.09765625 -11.50390625 9.09765625 -10.50390625 8.09765625 C-8.17093192 8.05672688 -5.836854 8.05523902 -3.50390625 8.09765625 C-3.52453125 6.96328125 -3.54515625 5.82890625 -3.56640625 4.66015625 C-3.48703508 0.13599981 -3.48703508 0.13599981 0 0 Z " fill="#BFDCF3" transform="translate(112.50390625,12.90234375)"/>
<path d="M0 0 C3 1 3 1 4.75 3.75 C7.4486567 7.64805968 10.05867095 9.42297716 14 12 C13.67 13.65 13.34 15.3 13 17 C6.71338212 15.23188872 1.5546234 10.3319351 -2 5 C-1.48275862 1.48275862 -1.48275862 1.48275862 0 0 Z " fill="#DAECF9" transform="translate(62,54)"/>
<path d="M0 0 C1.65 0.33 3.3 0.66 5 1 C5 1.99 5 2.98 5 4 C5.99 4 6.98 4 8 4 C8.33 5.32 8.66 6.64 9 8 C7.68 8.33 6.36 8.66 5 9 C5 10.32 5 11.64 5 13 C3.35 13 1.7 13 0 13 C0 11.68 0 10.36 0 9 C-1.32 9 -2.64 9 -4 9 C-4 7.35 -4 5.7 -4 4 C-2.68 4 -1.36 4 0 4 C0 2.68 0 1.36 0 0 Z " fill="#D4E9F4" transform="translate(26,74)"/>
<path d="M0 0 C2.95012764 0.331402 3.87526641 0.85553008 5.8515625 3.14453125 C6.72941406 4.46517578 6.72941406 4.46517578 7.625 5.8125 C8.21539062 6.68519531 8.80578125 7.55789062 9.4140625 8.45703125 C10.7499951 10.59913008 11.92575667 12.71856244 13 15 C11.02 15.99 11.02 15.99 9 17 C0.70950389 7.84638374 0.70950389 7.84638374 -1 4 C-0.6875 1.6875 -0.6875 1.6875 0 0 Z " fill="#DDEFF6" transform="translate(25,90)"/>
<path d="M0 0 C0.33 0 0.66 0 1 0 C1.65058529 2.83231547 2.29556713 5.66572201 2.9375 8.5 C3.11990234 9.29148437 3.30230469 10.08296875 3.49023438 10.8984375 C4.62304583 15.92400105 5.44199204 20.87807429 6 26 C5.34 25.67 4.68 25.34 4 25 C4 23.35 4 21.7 4 20 C3.67 20.66 3.34 21.32 3 22 C2.34 22 1.68 22 1 22 C1 23.98 1 25.96 1 28 C0.34 27.67 -0.32 27.34 -1 27 C-0.95875 25.7625 -0.9175 24.525 -0.875 23.25 C-0.86341709 19.98362038 -1.1431298 17.7853053 -3 15 C-1.68 14.67 -0.36 14.34 1 14 C0.67 13.01 0.34 12.02 0 11 C-0.24490848 9.29652549 -0.45029599 7.58709931 -0.625 5.875 C-0.72039062 4.98554687 -0.81578125 4.09609375 -0.9140625 3.1796875 C-0.94242187 2.46039063 -0.97078125 1.74109375 -1 1 C-0.67 0.67 -0.34 0.34 0 0 Z " fill="#DDF2FB" transform="translate(85,48)"/>
<path d="M0 0 C0.625 2.3125 0.625 2.3125 1 5 C0.01 6.485 0.01 6.485 -1 8 C-2.24546405 5.50907189 -1.7767578 4.58919267 -1 2 C-3.31 2 -5.62 2 -8 2 C-4.77208445 -0.1519437 -3.71599191 -0.20086443 0 0 Z M-4 7 C-3.34 7.33 -2.68 7.66 -2 8 C-1.67 8.99 -1.34 9.98 -1 11 C1.31 11.33 3.62 11.66 6 12 C6.33 11.01 6.66 10.02 7 9 C7.5625 10.9375 7.5625 10.9375 8 13 C7 14 7 14 3.75 14.125 C0.66396211 14.02213207 -2.01424114 13.72382033 -5 13 C-5.042721 11.33388095 -5.04063832 9.66617115 -5 8 C-4.67 7.67 -4.34 7.34 -4 7 Z " fill="#C8E1EE" transform="translate(114,28)"/>
<path d="M0 0 C0.99 0 1.98 0 3 0 C3.05402274 2.10388569 3.09280256 4.20816714 3.125 6.3125 C3.14820313 7.48425781 3.17140625 8.65601562 3.1953125 9.86328125 C3 13 3 13 1 16 C0.01 16 -0.98 16 -2 16 C-1.85975781 13.52039864 -1.7130815 11.04147598 -1.5625 8.5625 C-1.52318359 7.85544922 -1.48386719 7.14839844 -1.44335938 6.41992188 C-1.11328125 1.11328125 -1.11328125 1.11328125 0 0 Z " fill="#E5F4F7" transform="translate(55,61)"/>
<path d="M0 0 C0.99 0.33 1.98 0.66 3 1 C3.33 1.99 3.66 2.98 4 4 C1.69 5.65 -0.62 7.3 -3 9 C-4.32 8.34 -5.64 7.68 -7 7 C-5.65117186 2.95351557 -3.65173931 2.04497401 0 0 Z " fill="#D7ECFB" transform="translate(44,12)"/>
<path d="M0 0 C2.97 0 5.94 0 9 0 C9.368 5.52 9.368 5.52 7.5625 7.875 C6 9 6 9 5 9 C5 7.02 5 5.04 5 3 C4.01 3 3.02 3 2 3 C2 4.65 2 6.3 2 8 C1.67 8 1.34 8 1 8 C0.67 5.36 0.34 2.72 0 0 Z " fill="#D4E6F3" transform="translate(113,15)"/>
<path d="M0 0 C1.65 0.33 3.3 0.66 5 1 C5 1.99 5 2.98 5 4 C6.32 4.33 7.64 4.66 9 5 C8.67 6.32 8.34 7.64 8 9 C7.01 9 6.02 9 5 9 C4.67 10.32 4.34 11.64 4 13 C2.35 12.67 0.7 12.34 -1 12 C-0.67 11.01 -0.34 10.02 0 9 C0 9.66 0 10.32 0 11 C1.32 11 2.64 11 4 11 C4.93065133 8.39417629 5.14917407 7.35801776 4.0625 4.75 C3.711875 4.1725 3.36125 3.595 3 3 C1.68 3 0.36 3 -1 3 C-0.67 2.01 -0.34 1.02 0 0 Z " fill="#D6EFFC" transform="translate(108,63)"/>
<path d="M0 0 C0.66 0 1.32 0 2 0 C2.08082094 1.95766281 2.13910778 3.91626728 2.1875 5.875 C2.22230469 6.96554688 2.25710937 8.05609375 2.29296875 9.1796875 C2.19628906 10.11039063 2.09960938 11.04109375 2 12 C1.01 12.66 0.02 13.32 -1 14 C-1.66 14.99 -2.32 15.98 -3 17 C-4 16 -4 16 -4.1875 13.875 C-3.86362425 8.90890524 -2.42949995 4.33839278 0 0 Z " fill="#DFF3FB" transform="translate(44,54)"/>
<path d="M0 0 C2.475 0.495 2.475 0.495 5 1 C5 1.99 5 2.98 5 4 C5.99 4 6.98 4 8 4 C8.33 5.32 8.66 6.64 9 8 C7.68 8.33 6.36 8.66 5 9 C4.67 10.32 4.34 11.64 4 13 C3.34 11.68 2.68 10.36 2 9 C2.99 8.01 3.98 7.02 5 6 C4.360625 5.7525 3.72125 5.505 3.0625 5.25 C1 4 1 4 0.25 1.875 C0.1675 1.25625 0.085 0.6375 0 0 Z " fill="#DEF3FB" transform="translate(26,74)"/>
<path d="M0 0 C0.66 0 1.32 0 2 0 C1.67 6.27 1.34 12.54 1 19 C0.67 19 0.34 19 0 19 C-0.33 17.35 -0.66 15.7 -1 14 C-1.33 14 -1.66 14 -2 14 C-2.042721 12.33388095 -2.04063832 10.66617115 -2 9 C-1.67 8.67 -1.34 8.34 -1 8 C-1 7.030625 -1 6.06125 -1 5.0625 C-1 2 -1 2 0 0 Z " fill="#E1EEEE" transform="translate(20,46)"/>
<path d="M0 0 C1.98 0.495 1.98 0.495 4 1 C4.33 4.3 4.66 7.6 5 11 C4.01 11.495 4.01 11.495 3 12 C0.875 11.0625 0.875 11.0625 -1 10 C0.32 10 1.64 10 3 10 C2.34 9.01 1.68 8.02 1 7 C0.67 7 0.34 7 0 7 C0 4.69 0 2.38 0 0 Z " fill="#C8DBEC" transform="translate(110,15)"/>
<path d="M0 0 C1.32 0.66 2.64 1.32 4 2 C2.35 4.31 0.7 6.62 -1 9 C-1.99 8.01 -2.98 7.02 -4 6 C-2.68 4.02 -1.36 2.04 0 0 Z " fill="#DAE8F6" transform="translate(101,10)"/>
<path d="M0 0 C0.66 0 1.32 0 2 0 C2.85851513 4.39989005 3.41465296 8.52174803 3 13 C1 15.4375 1 15.4375 -1 17 C-0.9278125 16.35933594 -0.855625 15.71867187 -0.78125 15.05859375 C-0.23892456 10.00442191 0.11048267 5.08220279 0 0 Z " fill="#CDE4F8" transform="translate(57,24)"/>
<path d="M0 0 C1.65 0.33 3.3 0.66 5 1 C0.375 5 0.375 5 -3 5 C-2.34 6.65 -1.68 8.3 -1 10 C-2.32 9.34 -3.64 8.68 -5 8 C-4.67 6.68 -4.34 5.36 -4 4 C-3.01 4 -2.02 4 -1 4 C-0.67 2.68 -0.34 1.36 0 0 Z " fill="#CEE7F8" transform="translate(123,89)"/>
<path d="M0 0 C0.33 0.99 0.66 1.98 1 3 C3.01508358 3.73323796 3.01508358 3.73323796 5 4 C4.67 4.99 4.34 5.98 4 7 C2.0625 7.8125 2.0625 7.8125 0 8 C-0.66 7.34 -1.32 6.68 -2 6 C-1.34 4.02 -0.68 2.04 0 0 Z " fill="#DFEDF6" transform="translate(124,95)"/>
<path d="M0 0 C1.32 0.66 2.64 1.32 4 2 C3.67 3.32 3.34 4.64 3 6 C2.34 5.01 1.68 4.02 1 3 C0.01 3.99 -0.98 4.98 -2 6 C-2.99 5.67 -3.98 5.34 -5 5 C-3.35 3.35 -1.7 1.7 0 0 Z " fill="#CFE4F6" transform="translate(118,102)"/>
<path d="M0 0 C2.475 0.495 2.475 0.495 5 1 C4.67 2.65 4.34 4.3 4 6 C2.68 5.67 1.36 5.34 0 5 C0 3.35 0 1.7 0 0 Z " fill="#CADAE9" transform="translate(117,28)"/>
<path d="M0 0 C0 0.99 0 1.98 0 3 C-2.31 3.33 -4.62 3.66 -7 4 C-7 2.68 -7 1.36 -7 0 C-3.98968256 -0.93423645 -3.13349732 -1.04449911 0 0 Z " fill="#D9E9EC" transform="translate(66,23)"/>
<path d="M0 0 C1.32 0 2.64 0 4 0 C4 0.66 4 1.32 4 2 C4.99 1.67 5.98 1.34 7 1 C7.33 1.66 7.66 2.32 8 3 C7.01 4.485 7.01 4.485 6 6 C5.67 5.34 5.34 4.68 5 4 C4.01 3.67 3.02 3.34 2 3 C2 4.65 2 6.3 2 8 C1.67 8 1.34 8 1 8 C0.67 5.36 0.34 2.72 0 0 Z " fill="#E0ECF8" transform="translate(113,15)"/>
<path d="M0 0 C-0.54269531 0.25394531 -1.08539063 0.50789063 -1.64453125 0.76953125 C-2.35996094 1.11371094 -3.07539062 1.45789063 -3.8125 1.8125 C-4.52019531 2.14894531 -5.22789063 2.48539062 -5.95703125 2.83203125 C-8.01129035 4.00645471 -9.41616278 5.25628016 -11 7 C-10.4376049 3.73810844 -9.5859495 2.08865152 -7 0 C-3.86650268 -1.04449911 -3.01031744 -0.93423645 0 0 Z " fill="#C8DFF5" transform="translate(102,110)"/>
<path d="M0 0 C3.9252025 3.70090521 6.94580156 7.54959656 10 12 C6.60812721 10.58426179 4.90302459 8.95769034 2.75 6 C2.22921875 5.29875 1.7084375 4.5975 1.171875 3.875 C0 2 0 2 0 0 Z " fill="#DEF4FE" transform="translate(26,95)"/>
<path d="M0 0 C0 1.65 0 3.3 0 5 C-1.65 5.33 -3.3 5.66 -5 6 C-5 5.01 -5 4.02 -5 3 C-1.55555556 0 -1.55555556 0 0 0 Z " fill="#D6F0F5" transform="translate(92,117)"/>
<path d="M0 0 C2.97 0.495 2.97 0.495 6 1 C6 1.99 6 2.98 6 4 C4.125 4.625 4.125 4.625 2 5 C1.34 4.34 0.68 3.68 0 3 C0 2.01 0 1.02 0 0 Z " fill="#DAEAF3" transform="translate(122,22)"/>
<path d="M0 0 C-1.11375 0.45375 -2.2275 0.9075 -3.375 1.375 C-6.96199008 2.72465986 -6.96199008 2.72465986 -9 5 C-9 3.68 -9 2.36 -9 1 C-5.57367167 -0.61798838 -3.61944899 -1.34053666 0 0 Z " fill="#C5DCF0" transform="translate(105,115)"/>
<path d="M0 0 C1.65 0.33 3.3 0.66 5 1 C5 1.66 5 2.32 5 3 C3.02 3.66 1.04 4.32 -1 5 C-1.33 4.34 -1.66 3.68 -2 3 C-1.34 2.01 -0.68 1.02 0 0 Z " fill="#D9EDF9" transform="translate(98,117)"/>
<path d="M0 0 C0.66 0 1.32 0 2 0 C1.67 2.97 1.34 5.94 1 9 C0.34 8.67 -0.32 8.34 -1 8 C-1.125 2.25 -1.125 2.25 0 0 Z " fill="#DEEBEF" transform="translate(94,22)"/>
<path d="M0 0 C2.0625 0.4375 2.0625 0.4375 4 1 C4 1.66 4 2.32 4 3 C2 4.625 2 4.625 0 6 C-0.38218767 4.34385343 -0.71395102 2.67542976 -1 1 C-0.67 0.67 -0.34 0.34 0 0 Z " fill="#D2E9FC" transform="translate(25,90)"/>
<path d="M0 0 C0.66 0.33 1.32 0.66 2 1 C2 2.65 2 4.3 2 6 C0.68 5.67 -0.64 5.34 -2 5 C-1.34 3.35 -0.68 1.7 0 0 Z " fill="#DEEFEF" transform="translate(23,36)"/>
<path d="M0 0 C1.65 0.33 3.3 0.66 5 1 C4.34 2.32 3.68 3.64 3 5 C3 4.34 3 3.68 3 3 C2.01 3.33 1.02 3.66 0 4 C-0.33 3.34 -0.66 2.68 -1 2 C-0.67 1.34 -0.34 0.68 0 0 Z " fill="#D0E5FA" transform="translate(24,33)"/>
<path d="M0 0 C1.98 0.99 1.98 0.99 4 2 C4 3.98 4 5.96 4 8 C1.84622436 5.37801226 0.59927826 3.35595828 0 0 Z " fill="#D8EEFB" transform="translate(78,54)"/>
<path d="M0 0 C2.31 0.33 4.62 0.66 7 1 C6.67 1.99 6.34 2.98 6 4 C4.68 4 3.36 4 2 4 C1.34 2.68 0.68 1.36 0 0 Z " fill="#D7EAF3" transform="translate(127,11)"/>
</svg>
