<?xml version="1.0" encoding="UTF-8"?>
<svg version="1.1" xmlns="http://www.w3.org/2000/svg" width="222" height="143">
<path d="M0 0 C1.35752495 -0.00463614 2.71504861 -0.00966185 4.0725708 -0.01504517 C7.73740328 -0.02808094 11.40221753 -0.03459489 15.06706953 -0.03905582 C17.35732356 -0.04199645 19.6475727 -0.04610273 21.93782425 -0.05056 C29.10642514 -0.06420183 36.27501475 -0.07388879 43.44362772 -0.07776189 C51.71605317 -0.08225677 59.98831455 -0.09988429 68.26069009 -0.12876248 C74.66253162 -0.15033641 81.06432678 -0.1604636 87.46620429 -0.16180301 C91.28806427 -0.16285267 95.10976932 -0.16879632 98.93159103 -0.18662262 C102.51857656 -0.20303277 106.10528933 -0.20529363 109.69229889 -0.19648361 C111.64086378 -0.19533987 113.58941936 -0.20910534 115.53793335 -0.22323608 C116.69027466 -0.21766693 117.84261597 -0.21209778 119.02987671 -0.20635986 C120.03530203 -0.20782642 121.04072735 -0.20929298 122.0766201 -0.21080399 C122.86167238 -0.08806484 123.64672466 0.0346743 124.45556641 0.16113281 C126.88007715 3.79789893 126.62685717 5.27560696 126.43212891 9.57910156 C126.38056641 10.83271484 126.32900391 12.08632812 126.27587891 13.37792969 C126.21142578 14.68826172 126.14697266 15.99859375 126.08056641 17.34863281 C126.02230825 18.68387745 125.96500535 20.01916414 125.90869141 21.35449219 C125.76705605 24.62390831 125.61562545 27.89257523 125.45556641 31.16113281 C126.7261792 31.12185669 126.7261792 31.12185669 128.02246094 31.08178711 C131.18694703 30.99620776 134.35084047 30.93371185 137.51611328 30.88647461 C138.88187144 30.86144002 140.24749708 30.82740064 141.61279297 30.78393555 C154.42577621 30.38645249 154.42577621 30.38645249 158.38525391 33.55566406 C160.45556641 36.16113281 160.45556641 36.16113281 160.45556641 38.16113281 C161.77556641 38.82113281 163.09556641 39.48113281 164.45556641 40.16113281 C164.45556641 40.82113281 164.45556641 41.48113281 164.45556641 42.16113281 C165.44556641 42.49113281 166.43556641 42.82113281 167.45556641 43.16113281 C168.9680481 44.75061035 168.9680481 44.75061035 170.58886719 46.76464844 C173.13628183 49.78399265 175.71326781 52.2896494 178.81835938 54.72949219 C185.57552723 60.24379869 191.46104929 65.33222956 192.84716797 74.29785156 C193.36283493 81.1108906 192.9957734 87.85269259 192.58056641 94.66113281 C192.5036897 97.03198455 192.4346228 99.40310297 192.37353516 101.77441406 C191.85413507 118.76256415 191.85413507 118.76256415 190.45556641 120.16113281 C188.74992862 120.31853887 187.03829396 120.41206673 185.32666016 120.47753906 C184.2921875 120.51943359 183.25771484 120.56132813 182.19189453 120.60449219 C181.10328125 120.64380859 180.01466797 120.683125 178.89306641 120.72363281 C177.2543457 120.7884082 177.2543457 120.7884082 175.58251953 120.85449219 C172.87367077 120.96095349 170.16472648 121.06296798 167.45556641 121.16113281 C167.21104736 121.69947754 166.96652832 122.23782227 166.71459961 122.79248047 C163.32240723 129.96306077 159.38054386 133.51977861 152.01806641 136.59863281 C144.47330276 137.78991128 137.79160915 136.53272562 131.45556641 132.16113281 C127.92750649 128.9017069 126.26152008 125.67601699 124.45556641 121.16113281 C95.74556641 120.83113281 67.03556641 120.50113281 37.45556641 120.16113281 C36.79556641 122.14113281 36.13556641 124.12113281 35.45556641 126.16113281 C32.12482617 132.03344835 27.51565573 134.58418589 21.18994141 136.56738281 C17.24773762 137.42340421 14.30042027 137.32832059 10.45556641 136.16113281 C9.70275391 135.93296875 8.94994141 135.70480469 8.17431641 135.46972656 C2.0740429 133.20245824 -1.318963 129.77114774 -4.54443359 124.16113281 C-4.87443359 123.17113281 -5.20443359 122.18113281 -5.54443359 121.16113281 C-6.61564453 121.10054688 -7.68685547 121.03996094 -8.79052734 120.97753906 C-10.18767751 120.89314744 -11.58481216 120.80849876 -12.98193359 120.72363281 C-13.68898438 120.68431641 -14.39603516 120.645 -15.12451172 120.60449219 C-20.43115234 120.27441406 -20.43115234 120.27441406 -21.54443359 119.16113281 C-21.64025181 117.63027442 -21.66631468 116.09499525 -21.66468811 114.56114197 C-21.66606277 113.56689713 -21.66743744 112.57265228 -21.66885376 111.54827881 C-21.66525848 110.44848694 -21.66166321 109.34869507 -21.65795898 108.21557617 C-21.65810501 107.06450882 -21.65825104 105.91344147 -21.65840149 104.72749329 C-21.65770177 100.9019689 -21.64990662 97.0764925 -21.64208984 93.25097656 C-21.64022587 90.60681688 -21.63880187 87.96265685 -21.63780212 85.3184967 C-21.63468909 79.05697864 -21.62647607 72.79547795 -21.61645263 66.53396755 C-21.60529064 59.40711744 -21.59978083 52.28026651 -21.5947572 45.15340984 C-21.58429344 30.48930852 -21.56669453 15.82522091 -21.54443359 1.16113281 C-14.35324997 0.04389764 -7.26802938 0.00645582 0 0 Z M-11.54443359 10.16113281 C-11.54443359 21.38113281 -11.54443359 32.60113281 -11.54443359 44.16113281 C0.33556641 43.83113281 12.21556641 43.50113281 24.45556641 43.16113281 C24.78556641 41.18113281 25.11556641 39.20113281 25.45556641 37.16113281 C26.37080078 37.17273438 27.28603516 37.18433594 28.22900391 37.19628906 C29.41751953 37.2053125 30.60603516 37.21433594 31.83056641 37.22363281 C33.01392578 37.23523438 34.19728516 37.24683594 35.41650391 37.25878906 C38.37478162 37.37579874 38.37478162 37.37579874 40.45556641 36.16113281 C40.92557673 32.88557674 40.92557673 32.88557674 41.08056641 29.09863281 C41.20431641 26.80925781 41.32806641 24.51988281 41.45556641 22.16113281 C48.71556641 22.16113281 55.97556641 22.16113281 63.45556641 22.16113281 C63.95056641 29.58613281 63.95056641 29.58613281 64.45556641 37.16113281 C69.40556641 37.16113281 74.35556641 37.16113281 79.45556641 37.16113281 C79.45556641 39.14113281 79.45556641 41.12113281 79.45556641 43.16113281 C91.33556641 43.16113281 103.21556641 43.16113281 115.45556641 43.16113281 C115.45556641 32.27113281 115.45556641 21.38113281 115.45556641 10.16113281 C73.54556641 10.16113281 31.63556641 10.16113281 -11.54443359 10.16113281 Z M50.45556641 32.16113281 C50.45556641 37.11113281 50.45556641 42.06113281 50.45556641 47.16113281 C45.50556641 47.16113281 40.55556641 47.16113281 35.45556641 47.16113281 C35.45556641 48.15113281 35.45556641 49.14113281 35.45556641 50.16113281 C40.40556641 50.16113281 45.35556641 50.16113281 50.45556641 50.16113281 C50.45556641 55.11113281 50.45556641 60.06113281 50.45556641 65.16113281 C51.44556641 65.16113281 52.43556641 65.16113281 53.45556641 65.16113281 C53.78556641 60.21113281 54.11556641 55.26113281 54.45556641 50.16113281 C59.07556641 50.16113281 63.69556641 50.16113281 68.45556641 50.16113281 C68.45556641 49.17113281 68.45556641 48.18113281 68.45556641 47.16113281 C61.52556641 46.66613281 61.52556641 46.66613281 54.45556641 46.16113281 C54.12556641 41.54113281 53.79556641 36.92113281 53.45556641 32.16113281 C52.46556641 32.16113281 51.47556641 32.16113281 50.45556641 32.16113281 Z M125.45556641 42.16113281 C125.40927472 49.81920496 125.37371338 57.47726265 125.35194206 65.13544273 C125.34149417 68.6912568 125.32731682 72.24697531 125.3046875 75.80273438 C125.27884808 79.88835581 125.26910197 83.9738765 125.26025391 88.05957031 C125.24993134 89.33980072 125.23960876 90.62003113 125.22897339 91.9390564 C125.22882233 93.1201297 125.22867126 94.301203 125.22851562 95.51806641 C125.2240744 96.56175385 125.21963318 97.60544128 125.21505737 98.68075562 C125.20737639 101.33665049 125.20737639 101.33665049 127.45556641 103.16113281 C128.50744141 102.04738281 128.50744141 102.04738281 129.58056641 100.91113281 C134.75476588 95.96189853 138.70896038 93.50472055 145.86572266 93.06347656 C152.94966129 93.3305934 158.56010859 96.03797929 163.45556641 101.16113281 C165.01582401 103.776144 166.22291546 106.36396337 167.45556641 109.16113281 C172.07556641 109.16113281 176.69556641 109.16113281 181.45556641 109.16113281 C181.45556641 98.93113281 181.45556641 88.70113281 181.45556641 78.16113281 C177.11068093 77.07491144 173.11294465 77.01736168 168.67431641 77.02832031 C167.82381714 77.02736359 166.97331787 77.02640686 166.0970459 77.02542114 C164.30167568 77.02474167 162.50630298 77.02657972 160.7109375 77.03076172 C157.96560133 77.03611325 155.22042875 77.03080885 152.47509766 77.02441406 C150.72900355 77.02507489 148.98290954 77.02635613 147.23681641 77.02832031 C146.41693237 77.02629608 145.59704834 77.02427185 144.75231934 77.02218628 C141.08641132 77.03724045 138.0356528 77.26611121 134.45556641 78.16113281 C134.12556641 66.28113281 133.79556641 54.40113281 133.45556641 42.16113281 C130.81556641 42.16113281 128.17556641 42.16113281 125.45556641 42.16113281 Z M144.45556641 42.16113281 C144.45556641 50.41113281 144.45556641 58.66113281 144.45556641 67.16113281 C154.68556641 67.16113281 164.91556641 67.16113281 175.45556641 67.16113281 C170.60305433 61.49986872 165.70413854 56.06464154 160.51806641 50.72363281 C159.74527344 49.89669922 158.97248047 49.06976563 158.17626953 48.21777344 C157.41378906 47.43724609 156.65130859 46.65671875 155.86572266 45.85253906 C155.18646729 45.14299072 154.50721191 44.43344238 153.80737305 43.70239258 C150.9484161 41.52164665 150.9484161 41.52164665 144.45556641 42.16113281 Z M-11.54443359 53.16113281 C-11.54443359 71.64113281 -11.54443359 90.12113281 -11.54443359 109.16113281 C-9.56443359 109.16113281 -7.58443359 109.16113281 -5.54443359 109.16113281 C-3.54323015 106.89600359 -3.54323015 106.89600359 -2.10693359 103.91113281 C0.96347589 98.68404621 2.77283201 96.31665276 8.45556641 94.16113281 C15.25119968 92.51219239 22.32796438 92.67805861 28.43603516 96.35253906 C33.37239408 100.21531886 34.33645245 102.9229049 37.45556641 109.16113281 C63.19556641 109.16113281 88.93556641 109.16113281 115.45556641 109.16113281 C115.45556641 91.01113281 115.45556641 72.86113281 115.45556641 54.16113281 C103.57556641 54.16113281 91.69556641 54.16113281 79.45556641 54.16113281 C79.45556641 56.14113281 79.45556641 58.12113281 79.45556641 60.16113281 C74.50556641 60.16113281 69.55556641 60.16113281 64.45556641 60.16113281 C63.2670046 67.30255417 63.2670046 67.30255417 63.45556641 75.16113281 C56.19556641 75.16113281 48.93556641 75.16113281 41.45556641 75.16113281 C41.22770182 71.54785156 40.99983724 67.93457031 40.77197266 64.32128906 C40.80637453 61.30089325 40.80637453 61.30089325 39.45556641 60.16113281 C37.10569379 59.92585508 34.75000602 59.74726864 32.39306641 59.59863281 C30.45753906 59.47294922 30.45753906 59.47294922 28.48291016 59.34472656 C26.984375 59.25384766 26.984375 59.25384766 25.45556641 59.16113281 C24.96056641 56.68613281 24.96056641 56.68613281 24.45556641 54.16113281 C12.57556641 53.83113281 0.69556641 53.50113281 -11.54443359 53.16113281 Z M6.45556641 107.16113281 C3.93075487 110.64777732 4.02082618 113.95864399 4.45556641 118.16113281 C6.48222879 121.86503303 7.93601157 123.81476292 11.45556641 126.16113281 C15.23245544 126.84456988 18.9274353 127.01220376 22.34228516 125.11035156 C25.15902472 122.79830625 27.2147988 120.88090146 27.72900391 117.20800781 C27.91885683 112.91441083 27.8898332 110.06530317 25.08056641 106.66113281 C21.22198793 102.98629616 18.8712773 102.81792947 13.71337891 102.87597656 C10.34179784 103.30179908 8.71535898 104.69590455 6.45556641 107.16113281 Z M135.45556641 108.16113281 C133.72431519 111.62363524 133.97741417 115.3752151 134.45556641 119.16113281 C136.52201861 122.62982044 138.5574855 124.97005254 142.45556641 126.16113281 C148.21860961 126.72723321 148.21860961 126.72723321 153.33056641 124.41113281 C156.45772399 121.10002479 157.32378683 119.34714904 157.83056641 114.78613281 C157.38617286 110.49032849 156.15965347 108.48329692 153.45556641 105.16113281 C146.70394236 100.66005011 140.72134554 102.63206472 135.45556641 108.16113281 Z " fill="#000005" transform="translate(23.54443359375,2.8388671875)"/>
<path d="M0 0 C0.66 0 1.32 0 2 0 C2.41917468 1.89080952 2.80944146 3.78804224 3.1875 5.6875 C3.40792969 6.74324219 3.62835938 7.79898438 3.85546875 8.88671875 C4.02921924 12.62939822 3.31839829 14.10200214 1 17 C-2.1875 18.3125 -2.1875 18.3125 -5 19 C-3.09570312 16.75390625 -3.09570312 16.75390625 -1.19140625 14.5078125 C1.49917521 11.10268318 1.14647246 8.24770128 1 4 C0.57145005 1.68963085 0.57145005 1.68963085 0 0 Z " fill="#000212" transform="translate(179,110)"/>
<path d="M0 0 C3 3 3 3 3.2487793 5.91088867 C3.19117432 7.0682251 3.13356934 8.22556152 3.07421875 9.41796875 C3.01943359 10.67158203 2.96464844 11.92519531 2.90820312 13.21679688 C2.83537109 14.52712891 2.76253906 15.83746094 2.6875 17.1875 C2.62422635 18.52271971 2.56236076 19.85800694 2.50195312 21.19335938 C2.34849635 24.46316913 2.18061151 27.7315959 2 31 C1.67 31 1.34 31 1 31 C0.67 20.77 0.34 10.54 0 0 Z " fill="#00011B" transform="translate(147,3)"/>
<path d="M0 0 C0.33 0 0.66 0 1 0 C1.8125 2.6875 1.8125 2.6875 2 6 C-0.1875 8.9375 -0.1875 8.9375 -3 11 C-5.3125 10.8125 -5.3125 10.8125 -7 10 C-6.21625 9.46375 -5.4325 8.9275 -4.625 8.375 C-1.66573701 5.69757158 -0.95391744 3.81566975 0 0 Z " fill="#000212" transform="translate(51,118)"/>
<path d="M0 0 C5.44208234 0.34013015 8.93668198 3.70296528 13 7 C12.01 7.495 12.01 7.495 11 8 C10.34 7.67 9.68 7.34 9 7 C9 6.34 9 5.68 9 5 C8.21625 4.855625 7.4325 4.71125 6.625 4.5625 C4 4 4 4 2 3 C2 2.34 2 1.68 2 1 C1.34 0.67 0.68 0.34 0 0 Z " fill="#000215" transform="translate(174,96)"/>
<path d="M0 0 C-7.28571429 4.57142857 -7.28571429 4.57142857 -12 4 C-11.67 3.34 -11.34 2.68 -11 2 C-10.01 2 -9.02 2 -8 2 C-7.67 1.34 -7.34 0.68 -7 0 C-4.0262656 -1.09036928 -3.11592499 -1.03864166 0 0 Z " fill="#000214" transform="translate(184,135)"/>
<path d="M0 0 C1.9375 0.3125 1.9375 0.3125 4 1 C4.33 1.99 4.66 2.98 5 4 C5.66 4 6.32 4 7 4 C7.33 5.32 7.66 6.64 8 8 C6.85073734 7.04578192 5.70569459 6.08647955 4.5625 5.125 C3.92441406 4.59132813 3.28632813 4.05765625 2.62890625 3.5078125 C1 2 1 2 0 0 Z " fill="#010213" transform="translate(188,58)"/>
<path d="M0 0 C1.98 0.99 1.98 0.99 4 2 C4 2.66 4 3.32 4 4 C4.66 4 5.32 4 6 4 C6 4.66 6 5.32 6 6 C6.66 6.33 7.32 6.66 8 7 C4.78448712 6.65548076 3.97940123 5.97711248 1.75 3.5 C0 1 0 1 0 0 Z " fill="#000213" transform="translate(21,129)"/>
</svg>
