<?xml version="1.0" encoding="UTF-8"?>
<svg version="1.1" xmlns="http://www.w3.org/2000/svg" width="145" height="140">
<path d="M0 0 C0.64443558 -0.01022186 1.28887115 -0.02044373 1.95283508 -0.03097534 C4.07782408 -0.05871766 6.20151187 -0.05685837 8.32666016 -0.05224609 C9.80873087 -0.06002387 11.29079714 -0.06869402 12.77285767 -0.07821655 C15.87817842 -0.09313072 18.98304442 -0.0925674 22.08837891 -0.08203125 C26.05899105 -0.07045186 30.02773414 -0.10427665 33.99803734 -0.1507206 C37.05914101 -0.18025666 40.1197979 -0.18193066 43.18101883 -0.17570114 C44.64420901 -0.17672488 46.10742508 -0.18715048 47.57047653 -0.20732498 C60.41674878 -0.36270867 60.41674878 -0.36270867 64.3046875 3.05029297 C67.10106485 6.74952002 67.88179109 10.7550773 68.56884766 15.26025391 C68.72049377 16.12161957 68.87213989 16.98298523 69.02838135 17.87045288 C69.35828288 19.75499512 69.67790928 21.64135804 69.98852539 23.5291748 C70.51029527 26.66702327 71.07072169 29.79593339 71.64111328 32.92529297 C72.66017662 38.52600804 73.6543215 44.13070983 74.63769531 49.73779297 C75.25098675 53.23280927 75.86868551 56.72702809 76.48681641 60.22119141 C76.87899924 62.44770887 77.27093599 64.6742697 77.66259766 66.90087891 C77.84691345 67.94337799 78.03122925 68.98587708 78.22113037 70.05996704 C78.38840637 71.0163205 78.55568237 71.97267395 78.72802734 72.95800781 C78.87584656 73.79925201 79.02366577 74.64049622 79.17596436 75.50723267 C79.49072266 77.54931641 79.49072266 77.54931641 79.49072266 79.54931641 C80.29509766 79.96181641 81.09947266 80.37431641 81.92822266 80.79931641 C84.49072266 82.54931641 84.49072266 82.54931641 85.42822266 85.48681641 C85.49157361 88.59101317 85.16454776 89.9893486 83.49072266 92.54931641 C84.25384766 92.98244141 85.01697266 93.41556641 85.80322266 93.86181641 C89.67155421 97.73014796 90.71919762 102.1958774 91.49072266 107.54931641 C91.16072266 108.86931641 90.83072266 110.18931641 90.49072266 111.54931641 C48.58072266 111.54931641 6.67072266 111.54931641 -36.50927734 111.54931641 C-38.20689686 106.45645785 -36.27458855 101.49218778 -34.50927734 96.54931641 C-32.98298994 94.34820163 -31.66533238 93.18092563 -29.50927734 91.54931641 C-30.16927734 90.55931641 -30.82927734 89.56931641 -31.50927734 88.54931641 C-31.0648329 83.10487196 -31.0648329 83.10487196 -28.50927734 80.54931641 C-27.18927734 80.54931641 -25.86927734 80.54931641 -24.50927734 80.54931641 C-24.46237762 79.77076294 -24.41547791 78.99220947 -24.36715698 78.19006348 C-23.81010909 69.94823957 -22.73052857 61.90543831 -21.32958984 53.76806641 C-21.11615936 52.51094849 -20.90272888 51.25383057 -20.68283081 49.95861816 C-20.23369588 47.3261549 -19.78200836 44.69428345 -19.32617188 42.06298828 C-18.74454803 38.70158379 -18.17809474 35.33781135 -17.61537361 31.97319794 C-17.07124451 28.73652761 -16.51203541 25.50246554 -15.95458984 22.26806641 C-15.75447296 21.06597534 -15.55435608 19.86388428 -15.34817505 18.62536621 C-15.15142181 17.50650024 -14.95466858 16.38763428 -14.75195312 15.23486328 C-14.58398224 14.25481323 -14.41601135 13.27476318 -14.24295044 12.26501465 C-12.14716062 4.50742783 -8.10784753 0.064226 0 0 Z M56.49072266 12.54931641 C55.19438645 13.61576756 55.19438645 13.61576756 55.42822266 16.11181641 C55.44884766 16.91619141 55.46947266 17.72056641 55.49072266 18.54931641 C57.88791698 19.22890243 57.88791698 19.22890243 60.49072266 19.54931641 C61.15072266 18.88931641 61.81072266 18.22931641 62.49072266 17.54931641 C62.17220495 15.44110844 62.17220495 15.44110844 61.49072266 13.54931641 C59.83457608 13.16712874 58.16615241 12.83536539 56.49072266 12.54931641 Z M60.49072266 25.54931641 C60.16072266 25.87931641 59.83072266 26.20931641 59.49072266 26.54931641 C59.65881441 34.27122482 61.3457678 41.99181495 62.80322266 49.54931641 C63.00367187 50.67982422 63.20412109 51.81033203 63.41064453 52.97509766 C63.61882812 54.05146484 63.82701172 55.12783203 64.04150391 56.23681641 C64.22366455 57.21005859 64.4058252 58.18330078 64.59350586 59.18603516 C65.2820454 61.70917051 65.2820454 61.70917051 67.58129883 62.88134766 C68.52646362 63.21199219 68.52646362 63.21199219 69.49072266 63.54931641 C70.79628509 62.46065682 70.79628509 62.46065682 70.70166016 59.81103516 C70.61424158 53.90726712 69.2540585 48.13343491 68.11572266 42.36181641 C67.89400391 41.18683594 67.67228516 40.01185547 67.44384766 38.80126953 C66.19548769 31.92985756 66.19548769 31.92985756 63.49072266 25.54931641 C62.50072266 25.54931641 61.51072266 25.54931641 60.49072266 25.54931641 Z M17.49072266 49.54931641 C16.024219 52.48232372 16.12631971 54.26968985 16.49072266 57.54931641 C17.94300539 60.37263529 19.65301134 62.96339406 21.49072266 65.54931641 C28.58763469 65.42818171 28.58763469 65.42818171 35.11572266 63.04931641 C37.17443824 59.30619717 37.82257402 55.81176284 37.49072266 51.54931641 C35.29600116 47.25669022 35.29600116 47.25669022 31.49072266 44.54931641 C25.08643297 43.6685693 21.60668334 44.14711801 17.49072266 49.54931641 Z M21.49072266 78.54931641 C21.16072266 79.20931641 20.83072266 79.86931641 20.49072266 80.54931641 C21.15072266 80.54931641 21.81072266 80.54931641 22.49072266 80.54931641 C22.16072266 79.88931641 21.83072266 79.22931641 21.49072266 78.54931641 Z M32.49072266 78.54931641 C33.49072266 80.54931641 33.49072266 80.54931641 33.49072266 80.54931641 Z " fill="#000002" transform="translate(43.50927734375,26.45068359375)"/>
<path d="M0 0 C0.33 0 0.66 0 1 0 C1 3.3 1 6.6 1 10 C41.92 10 82.84 10 125 10 C125 9.34 125 8.68 125 8 C125.66 8 126.32 8 127 8 C126.67 8.99 126.34 9.98 126 11 C84.09 11 42.18 11 -1 11 C-2.41687119 6.74938644 -1.19320039 4.28148375 0 0 Z " fill="#000015" transform="translate(8,127)"/>
<path d="M0 0 C4.48839991 2.05189254 7.61717218 5.09374365 11.1875 8.4375 C11.82880859 9.02337891 12.47011719 9.60925781 13.13085938 10.21289062 C13.74123047 10.78072266 14.35160156 11.34855469 14.98046875 11.93359375 C15.53629639 12.44978271 16.09212402 12.96597168 16.66479492 13.49780273 C18 15 18 15 19 18 C17.24316406 18.71264648 17.24316406 18.71264648 15 19 C13.07714844 17.64477539 13.07714844 17.64477539 11.109375 15.59765625 C10.40039062 14.87255859 9.69140625 14.14746094 8.9609375 13.40039062 C8.23132812 12.62888672 7.50171875 11.85738281 6.75 11.0625 C6.00492188 10.29486328 5.25984375 9.52722656 4.4921875 8.73632812 C2.64980263 6.83489246 0.8200352 4.92279952 -1 3 C-0.67 2.01 -0.34 1.02 0 0 Z " fill="#010312" transform="translate(8,9)"/>
<path d="M0 0 C0.99 0.33 1.98 0.66 3 1 C0.90308431 5.64080887 -2.32828506 8.73327953 -5.875 12.3125 C-6.81279297 13.29959961 -6.81279297 13.29959961 -7.76953125 14.30664062 C-8.37925781 14.92345703 -8.98898438 15.54027344 -9.6171875 16.17578125 C-10.17003418 16.74208252 -10.72288086 17.30838379 -11.29248047 17.8918457 C-13 19 -13 19 -15.21142578 18.67651367 C-15.80165527 18.45326416 -16.39188477 18.23001465 -17 18 C-15.60493574 14.74957109 -14.03216606 12.92628208 -11.3125 10.6875 C-7.32505143 7.31967324 -3.63748264 3.73978684 0 0 Z " fill="#000517" transform="translate(131,9)"/>
<path d="M0 0 C0.65407333 -0.00058411 1.30814667 -0.00116821 1.98204041 -0.00177002 C4.13603476 0.00100857 6.28863138 0.03208609 8.44238281 0.06347656 C9.93881474 0.07093985 11.43525646 0.07663237 12.93170166 0.08062744 C16.86435071 0.09587717 20.79640589 0.13515244 24.7288208 0.17944336 C28.74393684 0.22041083 32.75914913 0.23864156 36.77441406 0.25878906 C44.64838407 0.30164808 52.521872 0.36989053 60.39550781 0.45410156 C60.89050781 1.44410156 60.89050781 1.44410156 61.39550781 2.45410156 C60.56056793 2.44743973 59.72562805 2.44077789 58.86538696 2.43391418 C51.00762002 2.37387282 43.14992981 2.32816281 35.29198647 2.29866505 C31.25185 2.28299025 27.21190262 2.26171931 23.171875 2.2277832 C19.27504994 2.1952538 15.37840708 2.17726222 11.48145676 2.16946983 C9.99264023 2.16391471 8.50383399 2.1530672 7.01509476 2.13691139 C4.93415815 2.11522149 2.85398016 2.11213095 0.77294922 2.11352539 C-0.41285736 2.10686356 -1.59866394 2.10020172 -2.82040405 2.09333801 C-3.73915314 2.21238998 -4.65790222 2.33144196 -5.60449219 2.45410156 C-6.59449219 3.93910156 -6.59449219 3.93910156 -7.60449219 5.45410156 C-8.59449219 5.12410156 -9.58449219 4.79410156 -10.60449219 4.45410156 C-7.31096046 0.36292851 -5.16914739 -0.03886577 0 0 Z " fill="#00041D" transform="translate(43.6044921875,26.5458984375)"/>
<path d="M0 0 C0.99 0 1.98 0 3 0 C3.33 5.28 3.66 10.56 4 16 C2.68 16.33 1.36 16.66 0 17 C-1.40333568 11.23073111 -0.67296616 5.81856895 0 0 Z " fill="#030713" transform="translate(69,1)"/>
<path d="M0 0 C2.30232826 3.8038467 2.87840421 7.93802837 3.625 12.25 C3.7590625 12.99507812 3.893125 13.74015625 4.03125 14.5078125 C4.35966676 16.337563 4.6805798 18.16865754 5 20 C5.99 20.33 6.98 20.66 8 21 C8.33 18.69 8.66 16.38 9 14 C10.52194825 16.41721193 11.01261321 17.73512258 10.875 20.625 C10 23 10 23 7.9375 24.3125 C6.9784375 24.6528125 6.9784375 24.6528125 6 25 C2.19311702 20.97646515 1.33981276 17.96122925 0.75 12.5 C0.60046875 11.2109375 0.4509375 9.921875 0.296875 8.59375 C0.05790403 5.70094353 -0.06689159 2.89863542 0 0 Z " fill="#000313" transform="translate(105,68)"/>
<path d="M0 0 C2.78672746 1.63136782 4.64376545 3.0390722 5.78759766 6.12451172 C6.3935958 8.71966409 6.87653383 11.30849189 7.3125 13.9375 C7.48072266 14.83146484 7.64894531 15.72542969 7.82226562 16.64648438 C8.58336719 20.83098969 9.08449971 24.73677723 9 29 C6.66939579 25.50409368 6.25524631 22.87101793 5.5 18.75 C3.7742507 9.04176424 3.7742507 9.04176424 0 0 Z " fill="#000217" transform="translate(105,29)"/>
<path d="M0 0 C0.66 0.33 1.32 0.66 2 1 C1.34 2.32 0.68 3.64 0 5 C-0.66 5 -1.32 5 -2 5 C-2 5.66 -2 6.32 -2 7 C-3.33333333 8.33333333 -4.66666667 9.66666667 -6 11 C-6 10.01 -6 9.02 -6 8 C-8.64 8 -11.28 8 -14 8 C-14 7.34 -14 6.68 -14 6 C-13.32453125 5.98582031 -12.6490625 5.97164063 -11.953125 5.95703125 C-6.05393523 5.75451345 -6.05393523 5.75451345 -1.375 2.4375 C-0.92125 1.633125 -0.4675 0.82875 0 0 Z " fill="#010713" transform="translate(80,85)"/>
<path d="M0 0 C1.32 0.66 2.64 1.32 4 2 C2.125 6.875 2.125 6.875 1 8 C-1.33297433 8.04092937 -3.66705225 8.04241723 -6 8 C-7.33332095 5.3333581 -6.67102033 3.83319697 -6 1 C-5.67 1 -5.34 1 -5 1 C-4.67 2.65 -4.34 4.3 -4 6 C-2.35 5.67 -0.7 5.34 1 5 C0.67 3.35 0.34 1.7 0 0 Z " fill="#010313" transform="translate(104,39)"/>
<path d="M0 0 C0.625 1.8125 0.625 1.8125 1 4 C0.01 5.485 0.01 5.485 -1 7 C-3.6015625 7.29296875 -3.6015625 7.29296875 -6.625 7.1875 C-8.12933594 7.14689453 -8.12933594 7.14689453 -9.6640625 7.10546875 C-10.82035156 7.05326172 -10.82035156 7.05326172 -12 7 C-12 6.67 -12 6.34 -12 6 C-11.38511719 5.98582031 -10.77023438 5.97164063 -10.13671875 5.95703125 C-7.66500527 5.81117256 -5.40322852 5.60506817 -3 5 C-0.8613923 2.61012067 -0.8613923 2.61012067 0 0 Z " fill="#010413" transform="translate(128,111)"/>
<path d="M0 0 C0.66 0.33 1.32 0.66 2 1 C1.505 1.66 1.01 2.32 0.5 3 C-1.48316621 6.96633241 -1.22357461 9.60303262 -1 14 C-1.66 14 -2.32 14 -3 14 C-3.99928065 9.00359673 -4.12039317 5.68718491 -2 1 C-1.34 0.67 -0.68 0.34 0 0 Z " fill="#000319" transform="translate(62,72)"/>
<path d="M0 0 C0.99 0.33 1.98 0.66 3 1 C1.515 3.475 1.515 3.475 0 6 C-1.32 5.67 -2.64 5.34 -4 5 C-2.25 1.125 -2.25 1.125 0 0 Z " fill="#01030E" transform="translate(118,22)"/>
<path d="M0 0 C2.50299808 5.00599616 2.05223099 6.65115915 1 12 C0.01 12.495 0.01 12.495 -1 13 C-0.67 8.71 -0.34 4.42 0 0 Z " fill="#010316" transform="translate(20,94)"/>
<path d="M0 0 C1.41196151 2.30234022 2.02997047 3.59471753 1.828125 6.32421875 C1.63734375 7.10410156 1.4465625 7.88398437 1.25 8.6875 C0.97929687 9.86892578 0.97929687 9.86892578 0.703125 11.07421875 C0 13 0 13 -2 14 C-1.03644647 4.58997722 -1.03644647 4.58997722 0 0 Z " fill="#030515" transform="translate(28,49)"/>
<path d="M0 0 C2.0625 0.4375 2.0625 0.4375 4 1 C2 4 2 4 -0.125 4.6875 C-0.74375 4.790625 -1.3625 4.89375 -2 5 C-1.125 1.125 -1.125 1.125 0 0 Z " fill="#000114" transform="translate(15,107)"/>
</svg>
