<?xml version="1.0" encoding="UTF-8"?>
<svg version="1.1" xmlns="http://www.w3.org/2000/svg" width="117" height="112">
<path d="M0 0 C6.50415108 4.75533698 9.98149263 10.68157645 11.80859375 18.48828125 C11.91171875 19.16890625 12.01484375 19.84953125 12.12109375 20.55078125 C12.47171875 20.07640625 12.82234375 19.60203125 13.18359375 19.11328125 C16.11890791 16.74609241 18.39017406 16.61401718 22.12109375 16.55078125 C25.49609375 18.05078125 25.49609375 18.05078125 28.12109375 20.55078125 C29.31193437 24.40350089 29.60716445 26.47630919 27.93359375 30.17578125 C27.33546875 30.95953125 26.73734375 31.74328125 26.12109375 32.55078125 C25.56421875 33.33453125 25.00734375 34.11828125 24.43359375 34.92578125 C22.50870961 37.11078487 20.64377437 38.87398689 18.43823242 40.75048828 C14.33407427 44.31196174 10.52055655 48.08633335 6.734375 51.98046875 C5.37088186 53.36631762 4.00693658 54.75172176 2.64257812 56.13671875 C0.5248363 58.29172651 -1.58961671 60.44963815 -3.6965332 62.61523438 C-5.75218407 64.72524996 -7.82021784 66.82244427 -9.890625 68.91796875 C-10.5178093 69.56893524 -11.14499359 70.21990173 -11.79118347 70.89059448 C-15.04656095 74.16530243 -17.0912903 76.14655836 -21.87890625 76.55078125 C-24.56067495 79.03390042 -24.9089847 80.71757991 -25.56640625 84.36328125 C-26.77388958 89.82232352 -30.61315106 92.29199801 -34.87890625 95.55078125 C-36.0077275 96.50461056 -37.13320724 97.46242176 -38.25390625 98.42578125 C-42.04280916 101.49298837 -43.92968574 101.70879335 -48.75390625 101.73828125 C-49.80320312 101.75246094 -50.8525 101.76664062 -51.93359375 101.78125 C-54.81437696 101.55583062 -56.44130833 101.04042442 -58.87890625 99.55078125 C-58.58459241 94.10090085 -55.43062326 91.64706322 -51.69140625 88.11328125 C-51.07370361 87.5107251 -50.45600098 86.90816895 -49.81958008 86.28735352 C-47.18185851 83.71493363 -44.52108117 81.1668338 -41.86230469 78.61621094 C-39.92220602 76.7484259 -37.99417312 74.86877797 -36.06640625 72.98828125 C-35.46223877 72.41730713 -34.85807129 71.84633301 -34.2355957 71.25805664 C-30.98556249 68.08508074 -29.4292096 66.19872801 -28.87890625 61.55078125 C-27.06933443 59.45890494 -25.32257059 57.6142077 -23.31640625 55.73828125 C-22.79626953 55.23619141 -22.27613281 54.73410156 -21.74023438 54.21679688 C-20.46202055 52.98548998 -19.17163478 51.76684055 -17.87890625 50.55078125 C-18.94818359 50.22207031 -18.94818359 50.22207031 -20.0390625 49.88671875 C-29.81346314 46.65051073 -35.09727201 42.82737567 -39.93359375 33.69921875 C-42.698347 27.41568864 -42.92737155 20.04074397 -40.87890625 13.48828125 C-38.06413919 7.00379453 -33.0162732 1.29471753 -26.75390625 -2.01171875 C-17.92093199 -5.30692158 -8.12625991 -4.73698238 0 0 Z M-31.87890625 7.55078125 C-36.4075225 14.2561357 -38.15692747 20.508893 -36.87890625 28.55078125 C-34.76469433 35.75153831 -29.87023632 40.17755797 -23.56640625 43.92578125 C-19.20605655 44.93981606 -15.31054655 45.44343394 -10.87890625 44.55078125 C-7.33108868 42.23143036 -4.6431271 39.3126597 -1.81640625 36.17578125 C-1.05908203 35.38171875 -0.30175781 34.58765625 0.47851562 33.76953125 C5.23280045 29.31027982 5.23280045 29.31027982 7.17578125 23.44921875 C6.62347871 15.69297007 4.29878523 10.72847273 -1.19140625 5.23828125 C-11.22096724 -1.05935007 -23.27265032 -1.5206777 -31.87890625 7.55078125 Z M15.2019043 23.8046875 C14.12182689 24.89249417 13.05806874 25.9966558 12.0078125 27.11328125 C11.43456741 27.6973877 10.86132233 28.28149414 10.27070618 28.88330078 C8.43537538 30.75884361 6.62165345 32.65372343 4.80859375 34.55078125 C3.00613446 36.41093276 1.19941022 38.26683238 -0.6088562 40.12133789 C-1.77416442 41.3172062 -2.93690055 42.51558668 -4.09695435 43.71655273 C-7.7118721 47.43902165 -11.42545033 50.9117762 -15.51245117 54.12109375 C-17.20929283 55.8964564 -17.63858508 57.11794503 -17.87890625 59.55078125 C-16.29557292 61.96744792 -16.29557292 61.96744792 -13.87890625 63.55078125 C-10.52097137 63.19179141 -8.85614576 61.8998577 -6.51904297 59.54736328 C-5.88513641 58.91645782 -5.25122986 58.28555237 -4.59811401 57.63552856 C-3.92507233 56.95014008 -3.25203064 56.26475159 -2.55859375 55.55859375 C-1.85872345 54.85685028 -1.15885315 54.15510681 -0.43777466 53.43209839 C1.03995662 51.94764725 2.51408686 50.45960394 3.98486328 48.96826172 C6.23740664 46.68458842 8.50042126 44.41173412 10.765625 42.140625 C12.19984358 40.69723517 13.63345794 39.25324466 15.06640625 37.80859375 C15.7434964 37.12725372 16.42058655 36.4459137 17.11819458 35.743927 C17.74579681 35.10671722 18.37339905 34.46950745 19.02001953 33.81298828 C19.57199005 33.25418976 20.12396057 32.69539124 20.69265747 32.11965942 C22.3295027 30.40067385 22.3295027 30.40067385 24.12109375 27.55078125 C23.80891735 24.90445838 23.80891735 24.90445838 23.12109375 22.55078125 C19.35729071 21.0443923 18.47931213 21.27420083 15.2019043 23.8046875 Z M-21.87890625 61.55078125 C-22.86890625 63.03578125 -22.86890625 63.03578125 -23.87890625 64.55078125 C-22.22890625 66.20078125 -20.57890625 67.85078125 -18.87890625 69.55078125 C-17.88890625 69.22078125 -16.89890625 68.89078125 -15.87890625 68.55078125 C-17.27223199 65.18357738 -18.85783485 63.56482885 -21.87890625 61.55078125 Z M-26.87890625 69.55078125 C-29.18060766 71.42613123 -31.10909641 73.22025335 -33.12890625 75.36328125 C-33.68320312 75.92337891 -34.2375 76.48347656 -34.80859375 77.06054688 C-37.86484949 79.81543652 -37.86484949 79.81543652 -38.87890625 83.55078125 C-39.430625 83.77507812 -39.98234375 83.999375 -40.55078125 84.23046875 C-43.59102369 85.95463308 -45.69316298 88.17593947 -48.12890625 90.67578125 C-49.0209375 91.58585937 -49.91296875 92.4959375 -50.83203125 93.43359375 C-51.5075 94.13226563 -52.18296875 94.8309375 -52.87890625 95.55078125 C-52.54890625 96.21078125 -52.21890625 96.87078125 -51.87890625 97.55078125 C-46.37425929 97.63997692 -42.76736464 96.94082085 -38.56640625 93.23828125 C-37.32621634 92.02023759 -36.09556681 90.79232805 -34.87890625 89.55078125 C-34.11578125 88.93203125 -33.35265625 88.31328125 -32.56640625 87.67578125 C-30.38167978 84.92464421 -29.73149871 82.15081423 -28.73828125 78.8125 C-27.43081701 75.37149185 -25.39660205 73.20456872 -22.87890625 70.55078125 C-24.72077973 69.82207594 -24.72077973 69.82207594 -26.87890625 69.55078125 Z " fill="#00020C" transform="translate(68.87890625,5.44921875)"/>
<path d="M0 0 C1.1859375 0.00257812 2.371875 0.00515625 3.59375 0.0078125 C4.7796875 0.00523438 5.965625 0.00265625 7.1875 0 C10.09375 0.1328125 10.09375 0.1328125 11.09375 1.1328125 C11.46135731 3.46099214 11.79616581 5.794651 12.09375 8.1328125 C13.7953125 8.349375 13.7953125 8.349375 15.53125 8.5703125 C19.09375 9.1328125 19.09375 9.1328125 20.09375 10.1328125 C20.1926794 12.29762047 20.223461 14.46575035 20.21875 16.6328125 C20.22261719 18.41171875 20.22261719 18.41171875 20.2265625 20.2265625 C20.09375 23.1328125 20.09375 23.1328125 19.09375 24.1328125 C16.76077567 24.17374187 14.42669775 24.17522973 12.09375 24.1328125 C11.949375 25.4321875 11.805 26.7315625 11.65625 28.0703125 C11.21875 32.0078125 11.21875 32.0078125 10.09375 33.1328125 C8.11662193 33.23181449 6.13584962 33.26252023 4.15625 33.2578125 C2.53396484 33.26167969 2.53396484 33.26167969 0.87890625 33.265625 C-1.90625 33.1328125 -1.90625 33.1328125 -3.90625 32.1328125 C-3.90625 29.4928125 -3.90625 26.8528125 -3.90625 24.1328125 C-6.54625 24.1328125 -9.18625 24.1328125 -11.90625 24.1328125 C-13.06399649 19.50182652 -14.09843189 13.51717629 -11.90625 9.1328125 C-9.26625 9.1328125 -6.62625 9.1328125 -3.90625 9.1328125 C-3.926875 7.8334375 -3.9475 6.5340625 -3.96875 5.1953125 C-3.99024454 3.84115617 -3.97773199 2.48525167 -3.90625 1.1328125 C-2.90625 0.1328125 -2.90625 0.1328125 0 0 Z M1.09375 5.1328125 C0.76375 7.7728125 0.43375 10.4128125 0.09375 13.1328125 C-2.54625 13.1328125 -5.18625 13.1328125 -7.90625 13.1328125 C-7.90625 15.1128125 -7.90625 17.0928125 -7.90625 19.1328125 C-6.2046875 19.349375 -6.2046875 19.349375 -4.46875 19.5703125 C-0.90625 20.1328125 -0.90625 20.1328125 0.09375 21.1328125 C0.46135731 23.46099214 0.79616581 25.794651 1.09375 28.1328125 C3.07375 28.1328125 5.05375 28.1328125 7.09375 28.1328125 C7.42375 25.4928125 7.75375 22.8528125 8.09375 20.1328125 C11.55875 19.6378125 11.55875 19.6378125 15.09375 19.1328125 C15.09375 17.1528125 15.09375 15.1728125 15.09375 13.1328125 C12.45375 13.1328125 9.81375 13.1328125 7.09375 13.1328125 C7.09375 10.4928125 7.09375 7.8528125 7.09375 5.1328125 C5.11375 5.1328125 3.13375 5.1328125 1.09375 5.1328125 Z " fill="#00010B" transform="translate(49.90625,11.8671875)"/>
<path d="M0 0 C0.58950439 0.22252441 1.17900879 0.44504883 1.78637695 0.67431641 C1.20756428 4.22254086 -0.04054663 5.85854444 -2.5925293 8.34619141 C-3.26606445 9.01005859 -3.93959961 9.67392578 -4.63354492 10.35791016 C-5.69412109 11.38078125 -5.69412109 11.38078125 -6.77612305 12.42431641 C-7.48704102 13.12169922 -8.19795898 13.81908203 -8.93041992 14.53759766 C-10.68493018 16.25678221 -12.44605657 17.96857512 -14.21362305 19.67431641 C-15.20362305 19.34431641 -16.19362305 19.01431641 -17.21362305 18.67431641 C-17.00724595 13.00437712 -13.20344053 10.03666967 -9.40112305 6.29931641 C-8.77141602 5.64576172 -8.14170898 4.99220703 -7.49291992 4.31884766 C-6.87868164 3.70654297 -6.26444336 3.09423828 -5.6315918 2.46337891 C-5.07238037 1.90344238 -4.51316895 1.34350586 -3.93701172 0.76660156 C-2.21362305 -0.32568359 -2.21362305 -0.32568359 0 0 Z " fill="#00030C" transform="translate(89.213623046875,29.32568359375)"/>
<path d="M0 0 C2.64 0 5.28 0 8 0 C8.33 0.66 8.66 1.32 9 2 C9.99 1.34 10.98 0.68 12 0 C12 1.32 12 2.64 12 4 C9.36 4 6.72 4 4 4 C4 3.34 4 2.68 4 2 C2.68 2.33 1.36 2.66 0 3 C0 2.01 0 1.02 0 0 Z " fill="#000317" transform="translate(38,21)"/>
<path d="M0 0 C0.33 0.99 0.66 1.98 1 3 C2.32 2.67 3.64 2.34 5 2 C4.01 3.32 3.02 4.64 2 6 C1.01 5.67 0.02 5.34 -1 5 C-0.67 3.35 -0.34 1.7 0 0 Z " fill="#000219" transform="translate(73,43)"/>
</svg>
